<mxfile host="app.diagrams.net" modified="2021-02-17T12:31:17.066Z" agent="5.0 (Macintosh; Intel Mac OS X 11_2_0) AppleWebKit/537.36 (KHTML, like Gecko) Chrome/88.0.4324.150 Safari/537.36 Edg/88.0.705.68" etag="xqZmbdRIQSp2eZJDpcBw" version="14.3.2" type="github">
  <diagram name="Page-1" id="KuYAv2s4yIt_SyrqkN1z">
    <mxGraphModel dx="2008" dy="1682" grid="1" gridSize="10" guides="1" tooltips="1" connect="1" arrows="1" fold="1" page="1" pageScale="1" pageWidth="850" pageHeight="1100" math="0" shadow="0">
      <root>
        <mxCell id="ie_nE9h8VSON7Q9d5ct0-0" />
        <mxCell id="ie_nE9h8VSON7Q9d5ct0-1" parent="ie_nE9h8VSON7Q9d5ct0-0" />
        <mxCell id="UznpmZ_KsHKdVXU8uouj-3" style="edgeStyle=orthogonalEdgeStyle;rounded=0;orthogonalLoop=1;jettySize=auto;html=1;exitX=0.75;exitY=1;exitDx=0;exitDy=0;entryX=0.75;entryY=0;entryDx=0;entryDy=0;startArrow=none;startFill=0;fontSize=15;curved=1;sketch=1;strokeColor=#FF6392;fontColor=#5AA9E6;" parent="ie_nE9h8VSON7Q9d5ct0-1" source="ie_nE9h8VSON7Q9d5ct0-4" target="ie_nE9h8VSON7Q9d5ct0-7" edge="1">
          <mxGeometry relative="1" as="geometry" />
        </mxCell>
        <mxCell id="UznpmZ_KsHKdVXU8uouj-7" value="&lt;meta charset=&quot;utf-8&quot;&gt;&lt;span style=&quot;color: rgb(0, 0, 0); font-family: helvetica; font-size: 15px; font-style: normal; font-weight: 400; letter-spacing: normal; text-align: center; text-indent: 0px; text-transform: none; word-spacing: 0px; background-color: rgb(255, 255, 255); display: inline; float: none;&quot;&gt;Command 命令&lt;/span&gt;" style="edgeStyle=orthogonalEdgeStyle;rounded=0;orthogonalLoop=1;jettySize=auto;html=1;exitX=0.25;exitY=0;exitDx=0;exitDy=0;entryX=0.25;entryY=1;entryDx=0;entryDy=0;startArrow=none;startFill=0;fontSize=15;curved=1;sketch=1;strokeColor=#FF6392;fontColor=#5AA9E6;" parent="ie_nE9h8VSON7Q9d5ct0-1" source="ie_nE9h8VSON7Q9d5ct0-4" target="ie_nE9h8VSON7Q9d5ct0-14" edge="1">
          <mxGeometry relative="1" as="geometry" />
        </mxCell>
        <mxCell id="ie_nE9h8VSON7Q9d5ct0-4" value="ASP .Net Core&lt;br&gt;&lt;font style=&quot;font-size: 15px&quot;&gt;- 訂閱 &amp;amp; 發布 MQTT&lt;/font&gt;" style="rounded=1;whiteSpace=wrap;html=1;fontSize=30;sketch=1;fillColor=#FFE45E;strokeColor=#FF6392;" parent="ie_nE9h8VSON7Q9d5ct0-1" vertex="1">
          <mxGeometry x="10" y="160" width="230" height="110" as="geometry" />
        </mxCell>
        <mxCell id="UznpmZ_KsHKdVXU8uouj-4" style="edgeStyle=orthogonalEdgeStyle;rounded=0;orthogonalLoop=1;jettySize=auto;html=1;exitX=1;exitY=0.25;exitDx=0;exitDy=0;entryX=0;entryY=0.25;entryDx=0;entryDy=0;startArrow=none;startFill=0;fontSize=15;curved=1;sketch=1;strokeColor=#FF6392;fontColor=#5AA9E6;" parent="ie_nE9h8VSON7Q9d5ct0-1" source="ie_nE9h8VSON7Q9d5ct0-7" target="ie_nE9h8VSON7Q9d5ct0-9" edge="1">
          <mxGeometry relative="1" as="geometry" />
        </mxCell>
        <mxCell id="UznpmZ_KsHKdVXU8uouj-6" style="edgeStyle=orthogonalEdgeStyle;rounded=0;orthogonalLoop=1;jettySize=auto;html=1;exitX=0.25;exitY=0;exitDx=0;exitDy=0;entryX=0.25;entryY=1;entryDx=0;entryDy=0;startArrow=none;startFill=0;fontSize=15;curved=1;sketch=1;strokeColor=#FF6392;fontColor=#5AA9E6;" parent="ie_nE9h8VSON7Q9d5ct0-1" source="ie_nE9h8VSON7Q9d5ct0-7" target="ie_nE9h8VSON7Q9d5ct0-4" edge="1">
          <mxGeometry relative="1" as="geometry" />
        </mxCell>
        <mxCell id="ie_nE9h8VSON7Q9d5ct0-7" value="SignalR" style="rounded=1;whiteSpace=wrap;html=1;fontSize=30;sketch=1;fillColor=#FFE45E;strokeColor=#FF6392;" parent="ie_nE9h8VSON7Q9d5ct0-1" vertex="1">
          <mxGeometry x="10" y="360" width="230" height="110" as="geometry" />
        </mxCell>
        <mxCell id="UznpmZ_KsHKdVXU8uouj-5" style="edgeStyle=orthogonalEdgeStyle;rounded=0;orthogonalLoop=1;jettySize=auto;html=1;exitX=0;exitY=0.75;exitDx=0;exitDy=0;entryX=1;entryY=0.75;entryDx=0;entryDy=0;startArrow=none;startFill=0;fontSize=15;curved=1;sketch=1;strokeColor=#FF6392;fontColor=#5AA9E6;" parent="ie_nE9h8VSON7Q9d5ct0-1" source="ie_nE9h8VSON7Q9d5ct0-9" target="ie_nE9h8VSON7Q9d5ct0-7" edge="1">
          <mxGeometry relative="1" as="geometry" />
        </mxCell>
        <mxCell id="ie_nE9h8VSON7Q9d5ct0-9" value="VueJs" style="rounded=1;whiteSpace=wrap;html=1;fontSize=30;sketch=1;fillColor=#FFE45E;strokeColor=#FF6392;" parent="ie_nE9h8VSON7Q9d5ct0-1" vertex="1">
          <mxGeometry x="360" y="360" width="230" height="110" as="geometry" />
        </mxCell>
        <mxCell id="Fg3YfvIdhjraeWdUiQER-1" value="&lt;meta charset=&quot;utf-8&quot;&gt;&lt;span style=&quot;color: rgb(0, 0, 0); font-family: helvetica; font-size: 15px; font-style: normal; font-weight: 400; letter-spacing: normal; text-align: center; text-indent: 0px; text-transform: none; word-spacing: 0px; background-color: rgb(255, 255, 255); display: inline; float: none;&quot;&gt;Notification 通知&lt;/span&gt;" style="edgeStyle=orthogonalEdgeStyle;rounded=0;orthogonalLoop=1;jettySize=auto;html=1;exitX=0.25;exitY=0;exitDx=0;exitDy=0;entryX=0;entryY=0.25;entryDx=0;entryDy=0;startArrow=none;startFill=0;fontSize=15;curved=1;sketch=1;strokeColor=#FF6392;fontColor=#5AA9E6;" parent="ie_nE9h8VSON7Q9d5ct0-1" source="ie_nE9h8VSON7Q9d5ct0-11" target="ie_nE9h8VSON7Q9d5ct0-14" edge="1">
          <mxGeometry relative="1" as="geometry" />
        </mxCell>
        <mxCell id="ie_nE9h8VSON7Q9d5ct0-11" value="ESP32&lt;br&gt;&lt;span style=&quot;font-size: 15px&quot;&gt;- 訂閱 &amp;amp; 發布 MQTT&lt;/span&gt;" style="rounded=1;whiteSpace=wrap;html=1;fontSize=30;sketch=1;fillColor=#FFE45E;strokeColor=#FF6392;" parent="ie_nE9h8VSON7Q9d5ct0-1" vertex="1">
          <mxGeometry x="-320" y="160" width="230" height="110" as="geometry" />
        </mxCell>
        <mxCell id="UznpmZ_KsHKdVXU8uouj-2" value="&lt;meta charset=&quot;utf-8&quot;&gt;&lt;span style=&quot;color: rgb(0, 0, 0); font-family: helvetica; font-size: 15px; font-style: normal; font-weight: 400; letter-spacing: normal; text-align: center; text-indent: 0px; text-transform: none; word-spacing: 0px; background-color: rgb(255, 255, 255); display: inline; float: none;&quot;&gt;Notification 通知&lt;/span&gt;" style="edgeStyle=orthogonalEdgeStyle;rounded=0;orthogonalLoop=1;jettySize=auto;html=1;exitX=0.75;exitY=1;exitDx=0;exitDy=0;entryX=0.75;entryY=0;entryDx=0;entryDy=0;startArrow=none;startFill=0;fontSize=15;curved=1;sketch=1;strokeColor=#FF6392;fontColor=#5AA9E6;" parent="ie_nE9h8VSON7Q9d5ct0-1" source="ie_nE9h8VSON7Q9d5ct0-14" target="ie_nE9h8VSON7Q9d5ct0-4" edge="1">
          <mxGeometry relative="1" as="geometry" />
        </mxCell>
        <mxCell id="Fg3YfvIdhjraeWdUiQER-2" value="&lt;meta charset=&quot;utf-8&quot;&gt;&lt;span style=&quot;color: rgb(0, 0, 0); font-family: helvetica; font-size: 15px; font-style: normal; font-weight: 400; letter-spacing: normal; text-align: center; text-indent: 0px; text-transform: none; word-spacing: 0px; background-color: rgb(255, 255, 255); display: inline; float: none;&quot;&gt;Command 命令&lt;/span&gt;" style="edgeStyle=orthogonalEdgeStyle;rounded=0;orthogonalLoop=1;jettySize=auto;html=1;exitX=0;exitY=0.75;exitDx=0;exitDy=0;entryX=0.75;entryY=0;entryDx=0;entryDy=0;startArrow=none;startFill=0;fontSize=15;curved=1;sketch=1;strokeColor=#FF6392;fontColor=#5AA9E6;" parent="ie_nE9h8VSON7Q9d5ct0-1" source="ie_nE9h8VSON7Q9d5ct0-14" target="ie_nE9h8VSON7Q9d5ct0-11" edge="1">
          <mxGeometry relative="1" as="geometry" />
        </mxCell>
        <mxCell id="ie_nE9h8VSON7Q9d5ct0-14" value="Reyax MQTT 雲" style="rounded=1;whiteSpace=wrap;html=1;fontSize=30;sketch=1;fillColor=#FFE45E;strokeColor=#FF6392;" parent="ie_nE9h8VSON7Q9d5ct0-1" vertex="1">
          <mxGeometry x="10" y="-35" width="230" height="110" as="geometry" />
        </mxCell>
        <mxCell id="mIC1jcf1zeOj8PMYKfJZ-0" value="" style="shape=image;verticalLabelPosition=bottom;labelBackgroundColor=#ffffff;verticalAlign=top;aspect=fixed;imageAspect=0;image=data:image/png,iVBORw0KGgoAAAANSUhEUgAAAW0AAAIICAYAAACl0L9WAAAgAElEQVR4XuxdBXhUxxb+N5ts3IUQJQQLJLgHdyhaoEiLuzsUdyjuErRFijvF3QMElwQIcffNxlbfNzfAA2Kb9d3MvO+9vq+5c+acf+7+O3vmCEsikUhAB0WAIkARoAhoBQIsStpasU9USYoARYAiwCBASZu+CBQBigBFQIsQoKStRZtFVaUIUAQoApS06TtAEaAIUAS0CAFK2lq0WVRVigBFgCJASZu+AxQBigBFQIsQoKStRZtFVaUIUAQoApS06TtAEaAIUAS0CAFK2lq0WVRVigBFgCJASZu+AxQBigBFQIsQoKStRZtFVaUI/IxAVlYWWrdqgejoGHh4eODM2XMwMzOjQOkwApS0dXhzqWm6i8CTJ49x8OAB3Lt+FhYm+gBySwiJxUBwbDamTZsOH28fNG/RQndBKKGWUdIuoRtPzdZeBAQCARo2rA/kJKN9HesvpJ1rj1gsQXBsDj5GZSIqGWjWvDnmzJkHV1dX7TWYav4DApS06QtBEdAyBCZOGI/Tp45jbBdnUj6oQO0zs0U4djcRaRlCeJYrhytXrkFfXx8sVsFztAyKEqkuJe0Sue3UaG1FICE+HqNHj4KH8Sc4WBkWaQZxmjwN4iI2RYDwBAH+nDkLbdu2Q5kyZYqcSx/QTAQoaWvmvlCtKAL5InD79i0MHNAfozo6Qq8YB2a+UIzoJD6uP0+Fa5nymDx5Ctq2a09P3Vr4nlHS1sJNoyqrDgHiP87OzmYWJP1CiGvha9+Q0NAQ3LlzBzeuX8P79++RkZGRr2Lm5ubwqlwF7dt3gK+vL5ycnL6R5VdZX10Wenp6MDQ0ZNwY+Y2bN26g/4B+GNvZCezisPYXYeTkHRSegesvUiESA+8DP8DExISSt+peKblXoqQtN4RUgK4gEB0dhdu3b0MsEjGxGOSfAc8CcPrUKYaoyX8MDfRQyooDKzP93HgNpvFTwUdeMofF/D33OeZJFpCeKUJSuhC8LCFzecj8axYLtrZ2aNuuLapU8YYeS49Zk2PAQd169RiXBiHtAV9IW08G0v66V5+isxARn40kvhUGDxmCQYOGwMDAQFe2UqftoKSt09tLjcsPga8n5hs3rmOHnx/EEjHzWGpKKoKC3jNhc5ambDTwsoCZMZuh3a8hdfpsFixN2DA2ZMsFbjZfjIxsEXIEYnzh7Fx5X74DBEIxAj7yEJ3IB1ufjbJly8LWzo7RMTDwHcZ0cQZbAReKb0J5uP+Wi6rV62D3nt2wsrKRyy46WfkIUNJWPsZ0BTUiIBKJkJqaCqFQyPxzzpxZ8H/0CIR8OQZ6zEmZ/P/G3pYo62gE4iguhqtYZZYRfj7vn4yYpBxGv0HtShfLp12UovuuxSAtQ4xFi5diwICBPzxOEnjS07lMAo+VlSXjTiEJPCYmpkWJpX9XAgKUtJUAKhWpXgQyMzNx+fIlJCUmIjUtlUlCSUxIQnlnY+bkTEjP0YaDck7GUMBhVeXGEp2V0Y77zutUhMbmYNzkWRg4aBAMDDggX3oTJozD+bNnUKOcGbiZIoTEZqFJs5bo168/GjduAg6Ho3IMSvKClLRL8u7riO3E3SEQ8LF582bcunkD5PIw+HMwsjKz0Km+HUyNiG8YsDEzAMdAE8/RmrER5IsgLUOAfdfj0bpVa8yaPRd2draoU8sbTbyt4OVmghyBBGk8ATJyxLj9Xgg3Vzec/+8ivchU4RZS0lYh2HQpxSBASDohIQFZWZk4ceIE1q9bC44+C0aGesylXsf6tnCwpKc/edDeeSEaArE+hEIBvFxN0LqWdR5xKekCXHueivg0EcaOHYcJEycVGPUijy507o8IUNKmb4RWIeDntx3Ex3ryxHGEh4WiuqcZSBSFozUHZUsbaZUtmqxsEleAy0+TkcAVwtvdFC1rWBWo7v23qYhM5KNzj0Ho3KULqlWrrsmmab1ulLS1fgtLhgE3b97EsqWL8eFjEJxtOfCtYgkDNgvWZgZa6ZfWhl0j4YhRSXy42BnC1KjwaJmMbDGO3o6DkbkNZs6cgx49emqDiVqpIyVtrdy2kqE0SVb59PEDunXrCkN9CcxN2PitiX3JMF5LrfzPPxGRSTn4Z/9RNGjQkPq6lbCPlLSVACoVKT8CW7duwbu3b3H9ynl4lzFB2dLGsLekyR/yI6t8CREJOTjvn4iZsxegZ8+esLQs2LWifG10bwVK2rq3p1pv0Zo1q7Fp00Y4WrLRro4NE6ZHh3YhQDI+D9xMQtOmTbF1mx+MjOh9g6J2kJK2opCkcuRG4PPnz9iyZTMunT+O3s1KwZhDw/PkBlWNAuJTBTjzIBH2ji44dPgoremtoL2gpK0gIKkY+RB4/NgfU6ZMQUp8OH6pZ0tdIfLBqTGzw+NzcPZRImrVroO1a9fD3Z2WhJV3cyhpy4sgnS83Ajk5OViwYD4OHDiAER0cYcTRk1smFaA5CJBmDLsvx2HEyJGYOXM2vZyUc2soacsJIJ0uPwKHDv2LZQtnMpEhxoaUsOVHVPMkxCbzcc4/CX47/0Gz5rRvpTw7RElbHvToXLkRINmN7m4uTNx1rfK0i7jcgGqwABJVcup+IlasWIk+fX/XYE01WzVK2pq9PzqvXVRUFDq1aYRezexkKuqv8wDpmIF8gQi7Lidi567daNmylY5ZpxpzKGmrBme6SgEIkJKp1b3LomlVK7jZG1LiLgFvCjlte9Vshp07d1P/tgz7TUlbBtDoFMUisGHDOqxZvRrlnYzBZn8N85PA1sIAtcqbK3YxKk3tCHAzhfjPPxkt2/fAylWrpdJn9eqViIqMRNduv6Jp02ZSzdHVhyhp6+rOapFdxK9NTtzEVdKksS+jOSmlSk7e3XzttMgSqqq0CHyKysKVF+k4dep0oQWmoqOj0bdvH4R8DoZILEGNGtVw8OBhWFhYSLuUzj1HSVvntlS7DCJF9i9duoiTJ0/i6pXLzGnb2lwftSuaQ1+OHojahULJ1PY//ySU8qiFzZu3wM4+b02Ze3fvom/fXrCzMEDXhnbgCyU4+zARf63dhg4dfimZoJFeopKv7aBLLATUcHUgwOfzcfTIEdy+fQtXr15CFXdTuNoZMt1lctvc0qHrCAjFEmw5E4V/Dx1mOuB8PyIiwtGnT2+kxEegm68900iZjDuv0/A5QQ+v37wrsf5wStq6/snQMPvIyfrWrVsYNLA/0+OwYRVL1PS0AFi5zXXpKFkIvA3LxPXnKQgLj/xGwuQcuXnzJqxe/RfGdXImbeq/gUJS40/eT8SHT2HQ0yuZMf2UtEvWZ0Rt1pIWYCdPnsDpU6cQ8fEJbC300bCyJY0WUduOaMbC0Uk5uPgkGSvXbkGnTp0ZpSIjI9GwQT30beHAuEZ+HrsuxmD46ImYPHmKZhihYi0oaasY8JK43I3r17Fnz248un8HTatbwaOUEU1VL4kvQgE2n7qXiAyxKV68fM080eu3HkgIe45WNa3B0c97miakXa1WfRw5cqxEokhJu0Ruu/KNFovFIF3Rq1SuxHQ/d7Y3RNcGNiXWD6l8xLV3BeIm234xCX47djKNEyqUK4s6lSzRwCv/cM9dF6NRrVYDStrau+VUc01DgBA2abZ74MB+OJplwcnWEJVcjTVNTaqPBiGw53IsevTuj9TUVFy/dBaD2zoWeCH9OIgLlpUPjhylJ20N2kKqirYisG7tGjx48ABhH5+hTkVzxhVCB0WgKASIb/tjujPi4+JR2jQdjbwtC5xCGiwE8srSk3ZRoNK/UwQKQyA+Ph4bN2zAkUP7YMgB+rdxhJ6ENjGgb410CGTxxdh5IYZ5eHwXpx8iRn6WIJEATxPcKWlLBy19iiLwIwIpKSm4du0qpk+bAlc7DhpWtoAd7eVIX5NiIiAUSXDePwncTBH6typV6Gy2HvAolpJ2MSGmj1MEchFo3bolQkNC0LGeOWzNDGhUCH0xZEbgdQgPJoZseDoVfv9BwrYfx1HSlhloOrHkIUA6zdy9ewdjRo+CvZkYLapbw8KUNt8teW+CeiwWiSR4lkRI+7h6FFDzqjTkT80boG3Lk2y1P/+cjuNHD8GnjAkaeVtpmwlUXy1HICFNgNDscjR6RMv3kaqvAgRevXqJeXPnIvzzS3SobQtLU/3vM4xVoAFdgiIA3H+XBo5tVUra9GWgCBSGwH//nceokSNgbaaPP1o60CQZ+rqoDYG/r8SiSvV6NHpEbTtAF9Z4BHbt2okVyxbCp4wpale0AEefhvJp/KbpsII7L8aies169KStw3tMTZMRAeK/3rtnD5YsXYQBrRxgzGExlfnooAioE4FdF2NRrRY9aatzD+jaGogAIezz589h+uQx6NnEDhYmeautaaDaVKUSgMDOi9Ho228IZsyYidjYWHC5XJDSCSwWC9bW1rC3t4exse6WTaDRIyXgJZfFxB07/LBmxRJ0rG+L0jYcWUTQORQBhSNAWo6ROiUtW/8CIyMjBAQEIDwinGlXx2brwdOzHLy9fWBrY/OldokEVlbWGDVqNDgc3XiPKWkr/LXSfoGk0NO8uXMwoLUdTA1p/LX276juWCCBBMSnXb+iOco5G0MsBlNFkvwP+XVITtsk+YZpHvw4GbxMEfTZbNjY2jJ/8/DwwLHjJ7UaEEraWr19ileeRIlMnTgav/rawtqcukQUjzCVqHIEJBKExvPx7CNxowDJPAGy+BIcPXoMlpZWqFChAvT1c9uZacOgpK0Nu6QiHe/du4s/+vZGAy9L1KpgpqJV6TIUAdUhIBZLEJGYA26GEAEfeTCxsGf6U5YrXwGjRo1SnSJyrERJWw7wdG1q3z69EPDkPga3LU3bgOna5lJ78iAgEEpAKgYevBmHjBwJzEzNcOv2XdjZ2Wk0WpS0NXp7VKMc8QX6bd+GLRv+Qv/Wjrk+QjooAiUIgVSeELdfpyIygY82bdtj3vwFcHZ21kgEKGlr5LaoVqnMzAx0aN8OFWxTUMHZRLWL09UoAhqEwMeoLITG5cDItiI8PT2xdt16DdIuVxVK2hq3JapXaN++fTi8cxFaVLdR/eJ0RYqAhiFAXCbXn6XhXUQ62rZtjx07d2lU2QZK2hr2wqhDHXc3Z9SrZI66FS3UsTxdkyKgkQjwskW48DgJrX7pjTFjxsLZ2UUj9KSkrRHboD4lSBLNimWLMbCNI4wN9dSnCF2ZIqCBCGR8IW4H18pYsHARatWqrXYtKWmrfQvUq8CggQNw5/Z1DO/gxNQVIYkJdFAEKAI/IrD5TCQa+jbG1m3bmQxLdQ5K2upEXwPWfvPmNbZv24YzZ07Bx8McFVyM4WJnqAGaURUoApqDAImwOnE/Ce279MP8BQvVqhglbbXCrxmLk4I73lW8mNhsUhzKwUo3ajRoBrpUC11BICNbjAv+SahWrwV27NytNrMoaasNevUvLBAImBP25EmTUM3TDE19LNWvFNWAIqDBCFx6kozwJAlevX7LFKxSx6CkrQ7UNWBNUspy2rQpOHn8KNPcoElV2utRA7aFqqAFCOy9EoMOnX7DqtVr1KItJW21wK7eRbOzs9Gv3++I/vQM9bws4WRL3SHq3RG6ujYhEJ/Kx413LOzZ+w+qVq2qctUpaasccvUuePXqFcyYPg05GakY2M6RZFepVyG6OkVAQxDgC3MbKRiwCw+hEook2HouCgf/PcwUm1L1oKStasTVuN6ePbuxcME8lCllyDQ3YNEqI2rcDbq0JiFAji63X6UiI0sIJ1sjpjZ3lTImMDT4uZ48C08/pCNR6MhkSpYtW1blZlDSVjnk6llw/bq1WLtuLVpVt4SnkzEMDWgijXp2gq6qqQhwM0U4cjMeWQIx0/XG3kIfbDYrl8DdTWFsyMbTDzykZbFw9doNlClTRi2mUNJWC+yqW1QkEuHkiROYPXMKhrV31KgaCqpDga5EEZAegT2X45CZI8TlK9exdMkSfP4czJRwJYlnhMzv3Xug1s8RJW3p91LrnkxJScb+/fuxY8sadKhrCwcr2olG6zaRKqxyBLL5YnyIzMTNF0nYun0nOnbspFaS/hkAStoqfyVUsyDpUj1n9ixcvXYFA1o5wMJEe9opqQYhugpFoHAEEtP4OHE/FYuWLEPv3n00hrgpaevgmxseHo6hQwcj/HMQ+rUqRf3XOrjH1CTVIBAal4FzDxPQrXtvzJo1Bw4ODqpZuJBVKGmrfQsUq8DDhw8wZfIkpCVFo0M9W5SiKemKBZhKK1EICAQiPA9KwN33WajfoAHWrFmvloiR70GnpK1Dr2BISAh69eqJ6OhoDGtfGqZGP4cr6ZCx1BSKgIoQSEjgIj45E5deZqGSlxdu3rqjopXzX4aStlrhV9zioaEh6NatK7J5yejTzAEmlLAVBy6VVOIRCAuLR2yqEI8/81Gnni/+2XcApqamasGFkrZaYFfsom/evMHEieMRGfoRnerbopQ1TUtXLMJUWklHIC0tA6mpmYhO5sM/RIi58xZi6NBhYLNV/2uWkraWv43p6emYMmUSLl26hGHtaPcZLd9Oqr4GIxAamgAWSwJelgR3Pgnx76ETqFuvnsqjSihpa/BLUpRqpFLftq1bsXXjSnRvbA8LE9V/6xelI/07RUBXEMjIyEZiIpcxJypVhIAQPo6fPIc6deqq1ERK2iqFW7GLbdywAVs2rkanBrZwpC4RxYJLpVEEfkJAKBSBXEry+QLmL9EpAjwLZ2Hjpq3o1LmzyvCipK0yqBW70N69e7Bo4XwM61AKHDatI6JYdKk0ikD+CBDSzszM/vbHswHpqFilGnbv/geurq4qgY2StkpgVuwiJ0+ewJwZE/FrY3tYmdJMR8WiS6VRBApGgFxGkkvJ3CokgEAkwc23WZgycxGGjxipEugoaasEZsUtEhQUiNatWqJmeVP4Vrai3dMVBy2VRBGQCoGwsIRvpE0mpGeJcf9DNvoPGYO58+ZLJUOehyhpy4OeGuaS5JlXAY8xuF0pSthqwJ8uSREICYmH3k8eyTtveTCyLYPrN27BzMxMqSBR0lYqvIoVfvDAfsydMxOjOzkpVjCVRhGgCEiNALmQjIpK/uG0TSbffZ+BOk07Ye26DTA3N5daXnEfpKRdXMTU9Dzp6/jrr11hJQ5DzfLSvRASSMCSsEAb1Khp0+iyOokAaYoQHk5cJD+OjBwxLr/KwtXrt1C5chWl2U5JW2nQKlYwj8dDZa+K6N7IHs52hWc8koLt0Qk5OHE/ESw9YFwXZ8UqQ6VRBEowAoS0w8ITwfpyGfk9FIFR2QiMYyEsPAp6P/tQFIQZJW0FAalsMVFRURjWuzlaVLcqdCnSKfpNaCbehGYwbZJGdHSCEW0tpuztofJLEALkUBQXl4KcnNx47e+HWAJcfcXDgOETMXv2HKWgQklbKbAqXihpajCoRxOGtEnbo7xDgjMPE5HKE2H0+BlYtmwpqnqYomlVK+jpFd5dWvHaUokUAd1GgMfLRlJSbnbkzyMxXYzn0QbYtHkbWrduo3AgKGkrHFLlCCQ1RmrWrIY2NUzgZm8Mth6LiRGViMR4+omHpx8yYGtrg1mzZqN9+w7w8fZCixpW8HI1UY5CVCpFoAQjUBhpE1hOPeFi0tRZmDx5MljER6nAQUlbgWAqW9TDBw8wbtwYWBnw4GLPwYvgdKRn66FRo8Zwd3fHosVLGBXq168LA0ESujS0VbZKVD5FoEQiUBRpp2WIcD+Ejdt37sHFxUWhGFHSViicyhf29u1bcNPSvkSEsKCvz0b58hVgZZXr6z548AAWzJ+H3xpZw9qcFpBS/o7QFUoiAkWRtkgMPAvJxvRFm/Fr9x4KhYiStkLhVK8woVCIBQvm49KZg+jdTP297NSLBl2dIqA8BIoibbLyu8gcfIxnISwiSqHlWylpK29fVS757ds3aNe2DQa1daTd11WOPl2wJCHA42UhKSm9UJMz+WLcfJeNdZt2oEuXrgqDh5K2wqBUryAS3texYwcgPRhNfCyZi0o6KAIUAdkQEInETNQVK/9QLUhD2mTl/55x4VOzIc6cPS+bIvnMoqStMCjVK4jHS4dPlUpo4mMFHw/19K5TLwJ0dYqAYhEIC0+Ai7Mt2PmUPuZys5CSUvhJO1cbCd5y3XH0+AnY2dkrREFK2gqBUf1CpkyZjFuXT6JPc+rLVv9uUA10AYHU1AxkZubA1NQIFhYm3/IjyK/a6OgUkDskacZxfy6WLFuJIUOGSvN4kc9Q0i4SIu14oEXzpnAzT4S3Oz1la8eOUS21AQHShZ0MAwN9cDgGjMskK4svNWGTuU9DsjF0wmIMGTpMISZT0lYIjOoVsn79OqxZvRoTutEaI+rdCbq6riEQGZkEkUgkl1lJ6SLoOflix849MDGRP9mNkrZc26H+yTk52Zg7dw4C/c+gSVVr9StENaAI6BACxD2SkJAml0VJPCFuvefj5as3sLeX331JSVuu7VD/5LCwUKaTTU9fS1ib09Zj6t8RqoEmIED8zqQ1mLW1fO7CzEz+F9LObS8my0jmiXA7MAfPX1LSlgU/nZtz585tTBo9AJ0b2MLUiGZA6twGU4NkQoCQNmnCa2dnIXfBtJ+b+RZXIaFIgmdhApy78RwODqWKOz3P8/SkLTeE6hVQp04tuFtmoL6XhXoVoatTBDQIgdya1wkwMzWCrZ2FXH1ApCFtcg4n/y2oNNSLsGxsO3gV3t4+cqNESVtuCNUngLyY5TxcmXKtFWk1P/VtBF1Z4xD4StokxczNzV6uNHKRSIKIiPhCZdwJ5CGNJ0IlZyOUc+TkefZFaBY6/j4RM2bMlBsrStpyQ6g+AX/+OQMXTh9C/9aO6lOCrkwR0EAEyKk3MYHLxFmTMD1XVzu5tPy5A/vPwsQSFs4/50Io1kO5UgYoba0HG1N9sFmAWAwEhGShfqvfsH7DJrn0IJMpacsNofoEdPylPcKC32FAa/n9ZOqzopgrk6OT7HdCxVyMPq7NCKSnZyE5OZ059dramjNJMrKO0FBy0i58dmSyAI+D+Rg9djx2bN+EUhZ6MONIkJ4tQRKPhZv3/OHuXkZWFb7No6QtN4TqE0BIu1bpeJgbq/cCknCoKiqdXH6ajLD4LAzvoDnx6OSDTNpP0aF5CHxfiY+kopcqZcUkycgyMjL5SGRC/wrebPKXtxHZiM4ww5Onz7Bhw3rs9NvOzPhz5iyMHj1GLjfNV70pacuygxow59zZs5g2fSqGtrZUEWXmb3RahhAXHifjt6b2Si1S9fAdF48/pKOMgyG6NJTvp66ito+XJcI5/2R0qmcDMzV/cSrKJl2S83P5VGtrMyYdXdZRlIuEyE3gCuEfzMe2HX+jXfsOTJ9WxqVR1DG9GEpR0i4GWJr06I4dfli0cCEm/qrYrhjFsZG8jqfvJ8KIo4d2tW2K/PlYHNnfP/simId7b3ITHMZqUGd58oV1+kESuje2gxkNt5R1e5U2L7+a1+7usie3SEPaxJjYVCECk82xe8/fqFu3nsLto6StcEhVI5CQ9pE9K9G+jnpaipETxO5LscjMEaFVTWtUdpMviaEg1GJScnDibhLEYjHa1bZGBRflrCPLrqVninD2UW5bN0rasiCo3Dn5kTbp9OTsLNtn5msdEmm0PvooFXPnLsLYceOlebxYz1DSLhZcmvEwn8/H/PnzIIy8hFJWHLUo9Sw4Aw/epKGUNQed69vAkKPY5qXEqIxsES48SUZ8cg6MDPXRoa4NStsUz97opBw42RoqBSNGv8dJ6FDXDqZGirdfKUqXIKH5kXaub9saBgbFvweKiUkBny+QCkHyK+xmkBD3HzyGm5ubVHOkfYiStrRIadBz8fHxaOTbAF3qm6uFtJN5Apx7mAzyYlYvZ4om3rn9KRU5WHoSHL+ThOYNG+LIhTtwczDAL3WLd0K6/TINsWl89GxsD2X0hMjmi3E5IAlta9nBiKOKq1hFIqz7sgpqCWZpaQIrK7NiA5DBy0ZiEleqeQKRBE8+Z6FTr5FYsGCRVHOkfYiStrRIadBzcXFxqFO7Bno1c1A5aYslwOYzEUzulwQsTOjqpHBkxBIxdl6IQ/2aPvAu74YtB89iQmdnSIpxmfPgbRqefODBwVoffZopJySSLxTj+otU1KtoDhtzA4XjQAXKh0BBpE1cJCSShPyzOCMjIweJiYS0pQsXehOehU+JeoiIjCnOMkU+S0m7SIg07wFC2m2b12XqjViYyBbCJKtV156l4EN0Ngz0OXCxZaN9HcWesjNzxCChfT6VfTBzZB9MXLoNvLQI5jQr7XgbmoEbL1KYLxV7S330aa4c0haJJbj1Mg05Qgk61KEVFqXdH1U9V1jzXUdHaxgaFu+LNiMj+wtpS2cBCRy5+JKH9Vv2oFOnztJNkuIpStpSgKRpj3z69AmThnZg3BLFOHzKbcbbsAzcepWKqYN7YOXOkxjWoRQTOaKoQcKijtyKR8tGvpg9qhcevgjCoJlrMb6Ls9RFf96HZ+LWq2S0aVQPT998hFjAU1o3H7FEgjuv0vAqJBPjlfCLQ1G4llQ5hfVxNDTkwNGxeAeO4pI2wf3yCy68qtMekSX1Hfxmd9u2rWHED0djbxKjrZoRmyLAkdvxeHhkLd4Gh2H/v3tRvZy5whYnldD+uRqLWj6VsWvpRABilG8zDG1q2cBLyroqIbHZuPosBZ7uLji1ZS7aDp4DF+ts1PAsvv9SGsPISerum1S8CM7A+K6ak/Ajje4l4Zm0tEyQlmEFuTPc3OzAYkl/6Ciue4TBWAJcCWRh05btaNOmrUJgpydthcCoWiFurs6oUc5MZaQtgQSXHqfCwtoZfovHoma3CWhezRLVyspPhsQ7KOCLcTEgGVW9a2DNDNKSSYwzN/yxZNNe5vLRzrLon7GforNw/20a6teohk3zRoGcgtsNmYv2NdgwIAUglDCI7iR+/HlwOiZ0daGZkUrAWFaR/689kl2gCJId6eRkI/USMpE2yWV4ko4Fi/+i7cakRlrHHiTx0e5uLrNTId4AACAASURBVKhe1hRNqhbv552sUFwOSESOyAL/rJwGMzMTtB0wAV0b2MNEAQklpILa8XsJaNHQF7NH9wbHgA09Nhs1u4xFFVd91KlY9Gn+2QcennzkomXDWlg6eSBMjQ0RHZ+MPpNXoGdDY6nNloiBT7FZKO8k/RxC2s8+8VC1rDmaVaXlcaUGW8kPks9JZFQSxCJxgSuRQlI2thYwNZEuJDSXtIvfxSY0ng/vZr9j0eKlMDAoXshqfsrTk7aSXx5liHd3c0a9SuaoW1G5JEFOKw/fpeHph0x8vrGHaWbq22cKDJCFHo3t5TKNuBbC4/m4EpCEGt5e+PuvSV9+xrKwYNNB/Hv+JuPLLmwQ/Z5/TMe9t2mo5OGKs37zvz3+8Pl7jF+yHQNaSn9BmJ4lxr6rscwFr6u9dB/ke29SERwHmHIEcmMiF6B08g8IMKVZwwovp0omWFmZwtJSuoQtWXzaZA3Suebm+xy8evUWdvbyfW6IPEraWviyVyjriu6N7WFrodzIkcxsMU49SEAL3/pYOmkAUz+hSd/pcLbmo2Fl+fzpJCQv4CMPXVs3xIppg77tQlxiKiYs84O+IK7Ixg6Pg7h48I6Ldo1rYfO8UT/s5NX7zzFj1V4MbiPtz18J1p+MYi48uzSwhXsp6SrC3X2Thj/HjMPwOavQsZ6t0vdEC19Xtaj8fT3twhTgGBrAwcECbL2iw/9kJW1yGLj/kY8HT17DnpK2Wt4HtS/qVd4Ng9o4Qq+IOxQ9FhsiiUimCnwSFnDoejyaN2yAeWN7w5BjgKCQSPSbtgZ9mljAQF92P/GVgGSQKI+eHZpg/pg+jOyvg0R89Jm0EiM7loahQcEG3n2VipehmejXpQUmDuwKU+MfSdb/ZRDGLd6O/i2k+3IhmZPH7sQzEbjdfO3h7iA9aW9etAC+faeieXUr+JSR7tSm9pdIxxWQlrQJDM7OdtDXL/pCUtZ+kSS34UVoNjbsPYfatevIjTw9acsNoWoFkBT2alXKYUi7whsfkBjiGy9S4eNhCkfr4vnR+AIJTtyNh52DE877LYRIJGSM/MvvCHYfv4oJ3WQrUkVcIo/epSM8lY0FY35Hy4bV8oB3zf8l9v+7D7UrmBcYzvjsIw8foiXYvmQivMu75rsBiclp6DF+GXr4GheZC0E+VCQdXcQyR7VKZcHK+iTVSZvYc+dNGrYsno+zN/1x9/5V1C5vptIwTNW+fdqzWq57JEHKvWDB3b1ot0VSEg8kjLDIFyofmJ6HZiEsmY3wiCi5K/5R0tae95DRlMRod2rfHEPalS5U8+gkAY7djcfwDqVhXIxYavKyP//Iw913adi5ZAKa1f1/T7uVu45j19HLMoW3kbTex4FcCNn22LxwHEpZ53/B2OC3KfBxZ6GqR97IFL5QgpfBPCRlW2DL/NFwdyrkg8Zioe2g2ajlISqy9khcigD/PU7E01N+OHP9IfYfO8K0cCtqkAiV26/SsHXpAoTHJDAXn6M6OhX6C6EomeTELxQBbg7S+dSLkldS/07e4/DwBKnNJ00SzMwKv4AuTsGonxf+StoRkdFS61TQg5S05YZQtQKePXuG33t1KZS0WRLg5IMkRCRkM6RdnASYzGwR/r0Rj2VTh6JDsx9/yhHSvnLrNro2LF4NkA8RmfAPSoeevjHObF8IB5sCIkIkLHi2HoSWNWzykHZ4fDaT2JOeKcGNAytR2q4otweLidPOyUxBjyaFZ1PuvxaHsQN7ol/nFjh99SFmrN6DcVKUgCVfIteep2DvqkWwNDfFrLV/o5RhOEwM9WQ+TfkHpuP5Zx5Gdij8S1m1b532rVZc0ibZkSRLsrAhbWnW/GSExPPxJhoIDaekrX1vk5wah4aGon3rJoW6RzKyxNh9OYYhjmHtHaUm7bRMAQ5eT8KUId0xpEfrnzRlYdXuE8hKegYbM+kvQGOShfjvSQpsLS1xfd+yIqxnocf4peBI4lHZzQxGBnrIyBaCuC/O+fNgZ2OFK3ukL77z24TliIyOQN/mBddQTk4X4tTDVGyaOwqNalXBvYD3mLzcD70bW4BTiE+dGEKaIJz3T8KJrctQys4Kq3efwM6jFzGui2zuIyLzUSAX/oFcJu6bDtkRIKV8IyISiyWgsEgSJtopPL5Y8n5++PwzHgJeBcHGpniHnp/l0JO2XNug+snS+LRJYX5yMnUvZcgkp+hLkVwSm8Jn/Lr9f/0FkwZ2+dZx43sLV+48AVbGS6ncLUlcPoJjcvA8OAvLpgxEq4bVYWxYtG89JiEV45dsw4eQMNiZsxk7+nRqAd8aXmjbuGaxAH/zIQz9pixH+3o2cMqnpOvHqExcfJKKzfNGok2jr7JZGDJrPeJjg9G2duGRJ4lpAhy9k4Cb+1cypB0Zm4ROI+ajoZcJvNxk65Dy8D0XT4LSMeKXwi9iiwVECXw4JYUHLrd4/mcDjj5TtpWdT0nIxCQeMmT0Z3+F/8zTNAwcOgaLFi2Ra0coacsFn3omVyznit+bO+Sb3PL0QzrIB3/L1u04vHUGqkuRwp0jkODvyzFwLl0a5/zmwaCA6mfEPcLivSqctFksiEUS7L4cDeJqIYTm4li8k0UqNx3pGXzmwodEczjaWYEjU28/PXi2GoQmPlaoVf5Hl0xEQg7OPkxCLe/yOLB62ncbycKSbYdx+PwNjPylcBdFfAofh27F496h1Qxpk1H714mwNhHK3BLteTAP999w4WJvWGw3lHreRs1cNZRcQkpZje97CwpqkiCPa+Sr/LNP09CgcWscPnJULtAoacsFn+onf8uI9DRlyOj7kc0X4UpACuxcfTBmzDjsWz+BiR4pbIjFEpx5mAge3wB7lk9GlXIFF2xftesEuHHPUMo6/7TyHL4YLz6n43EQD0N6tsOE/l1gyJHelaIMNN8HR6DzyEVMx3orM31k5IhAOs6ceZiGSp7OOLz2T5DC+N8PFlgo13oIqpY1RfNqBfs540k9ljvxuHNw1TfSJiVry7UejLa1rOElQzefLL6YKZpF6nP3VlJJWWXgrGky5bk0JJ1tvi/bKhSKEBmZDBa5LJJjnA/gol6jVpS05cBQa6f26/c7uBFP0Pg70o5OzMGbsAy4VPTFxk1bcPXqFZzaPRdViyDtV595eBiYCb/F49CwhlehmKzcdQJnLl1HnxZ5fcQkKzElXQifKjVQrYIb/ujWSqb4cEVvSlJqOiYt9UN8fChTxpacjqOT+VgxbSia1/OBlUX+X2pb/r2AAyfPMQkzlqb5f/E8/5QOI0tPrJoxBCZG/4/2mL1uPx4FPEbXBrZShpz9aPW+a3EgX6ad6pNknaLrrigaM12QJw9ps9ls2NtbMKVb+XwhEhK4TDawvCM4TgBz94Y4cvSYXKLoSVsu+NQzOTQkBC2bN0Gvpg6wNtcDaXxLLrA8ylbEmbPnYGpqirt372LnipGFkvan6ExcfpoKE2MjBJzaWKQxm/afw+b959CiptWXnpASBIVn4N47LjIzBejetgnmj/8dRsWsU1zkwnI+wMvMRutBM5GYnI7Jg39Fj7a+sLcpPPpEKBBh+Y5jOHXpNga3z78e99Zz0ZgypAeG9Gjzg4b3At5h6Oz1GN3RGaQDT3HTkPZdi0UqT4TGPpZKq1AoJ6Q/TBcIRMjMzAHpCKMJg3zhRURIH+6Xn84kM5bFYjO9SSWkKI2CRiS8cfjYCRgayh7SSUlbQZuhajHnzp3FP3//jZSUZNja2qH/gIHo2LHjNzWePn2CP8f1ReuaVvlerBCf7t0PLAgFQggF2XgmBWkT4eOX7EBYVCzefAxDaTtruLuUgmspWyydNBhs9XpCFL4FV+49w4xVe+BoLUGjKtbfTtzE0379eQr0OPY4tXVevpe2q3adxM6jFzBehiiQf2/GITFNiDoVzFHPy0IprdIUCZZAIERGZg6spKzhoci185OVkJDGfIlo4rgTaoKdu/bK1aWdkrYm7qyUOpGfbJGRkXB3d88TF0xIu1u3rhjRgYT8/b+uQhpPgDehmXj+ORP/HjoMv+3b8fTxAwSc2iTlqizEJ6fgyt1nqFjWFXV8yks5Tzsfu/7gOYbO2QhHG2O0rWUJG3NDfIjKxM1XqVg7cwTaNqqVr2HxSVw0+2MamvpYoEoxU9sjE3Nw4l4i0+G9D7lwNiw6xVqd6BLSTk7mwd7eUupmFcrUNz4hDVkaStrH/dOxdv0m9OnTV2YIKGnLDJ1mTxSJRJg1ayaOHfkXozqWZoq9vw3jMZ1WSHbim7fvYWFhgQH9++GJ/wM8O/09abMgYUnAIr8Ki/vbXrNhkUk7bkY2/jl9DdsOnIUeiwXSsOH4plnwrlCmUHlZ2XzU7jYOHerZwL1YGY4sbDwdycTODG1XGqYKKIErk+FSTiKkHR2djJ8v8KScrtDHyEV9fHwasrNJ9JHmjeOPvpB2X0ramrc7GqDRkydP4Oe3Dc8CAkBIvFq16qhWvTrGjRsPDic3Zpoh7ccP8OzLSftTeBza9JuKmIRkOJeyw5X9K1HWRTk9FjUAIqlVIHEDenp62H30Eob0bJuvSySPMAkLnUYugDknDQ0rWUj9BUiIZ9OZKOYbk6PPxoiOpUAiWjR1EJ92LmnbFLtZrqJtIjWvExLTNBatY/5crFu3CX36/i6z6fSkLTN02jPxwYP7DGn7+jZiiOf7MWDAl5P2F9JuN2g2bvu/+PaIT0UPnN2xCI720pY41R5cVKEpacYwdvE2cERJaOQtff1zvwvRqF/dG0/ffMCgVrYa4XYoCK+vbb2MjHKTU9Q5uNxMkMQaTR3HHnGxjrhHKGlr6hZpvl6EtJ/6P2SiR0jau5FXhzxKv/hvByp60B6Isu7mqPlbcdM/AOM6uTFuJ2mG34UYTBzYHXuPX4UhOwvdfKXvRi+NfEU+Exoa9+1Oxd294JIBilyzIFnyhPqpQr+jj7hYv34z+lD3iCrg1s01xowZjZvXrzDRI1fvPUPn4XPzGNqncwvs+WuKbgKgIqvGLtyKt0Fv0b62jVRt2jaeisSfI35DbEIKzl67hc717WBhWnShfhWZ88My32cLurk5yBSbrgi909OzkZzMVYQopck4+igd69ZvRF960lYaxjov+PLlS5g8YSyen9mM89cfovuYvAWZzEyMkPD0hM5joUwDSezwnA37ce+RP35rYl+4f1sCbDgdhRnDe2Boz7Yo33ooWlS3gY+HZsRBf49TbjW9JKYZMxnm5qawsVFMIwgSkWJjI13zaE13i3zFjLpHlPkpKyGyyYfOq4InzmxfAA8nexhWzuseqVzeHQFntpYQRJRn5qW7AZi2Yg8cLFjo2siu0Muyf26kMJ3pm9TxRsC7z/hz+Tp0rGsDthTFv5RnQV7JMTGpIEXMvg4OxwClSyvGr00uNx1LWzMRO4UNkmZOshb5fIEqTZdprWP+6V8uImn0iEwA0km5CJDu7iSrb8bwnjD17gjRTx2s31zeA09X1UeQkEu8Ww9fMpdwJDOtUR1vuDmp12cq7zuz8+glrNp9HPUrWaC6pzk4+bRtC47KQniaBU5uns2UPPoYFo2RczehVVV9mJtolouEECsJ+VMOaadALBbBwcEKnAJq2JC+jaSanzYQNsEol7Q30otIeT9IJX2+m6szev/SBIsm9MOR87cwcPqqb5C0a1oXe1dMLbBGh7KwIyFuvr0mIuD1h29LVK/siYfHi063V5ZOipJ74dYTTFvhBxc7I3Sqb5fHVbL/WiycnVxwcvMcZknSIWfueuJaeYyeTaW7kCTuAgsL5bpTSHhdUhL3h/BH8gVra2sBExPZ07SJzaTmR3w8l2l1p6+vDwsLY6azTG7RJhbz99TUDGRlaWbmY0HvyvUPBtjmtwtNmzaV+XWiIX8yQ6c7Ez083NCzbUMsmtCfMWr7wfOYv3EfStvb4tT2+fBwKbwfpeKRYCE4LBre7YfmEW1sZIjkZycVv6SKJR7+7y4Wb/0XHLYEA1o7QP9LpUHS2/PAtThsXTwVdXzKfdPqQ0gUekxYht5NrWBhXHQRqdjYlNzwO5IkpaSo5bS0DIY4fx7W1mZyf2HkhhEWFLqnx3xRyFt1T8VbDomEhRiDajh67ARIUSpZByVtWZHToXlbtmxC0NNbWDp5AAz01V9AhNCMU/3fkMrN+6ElL7v/yY2oUr7wbERt2J67Ae9w5uoDvHjzAuWcjJl0d//3XDx8l4rg63vymDBi3mYEBweicwM7/BRun+dZQnrEbeDgkFutTtGD+JGjopLzbXJbWAcYafXQlotFae0hz118kY7aDVrS0qzFAY0+mz8CqampaNqoPvYsm4Aq5d3VDhMh5lJ1eiAlH9Imyo3o2xHr54xSu56KUIAvEGL1rhPYf/Y6HK0NkJYpwtwxA9CtdYM84pNTeWjy+2S0q22DMqWMCl0+J0cActomtcLJidvAQPaTXX4L/XwB+f0zZP+cnKzzJHIVB680biZSNThJpji2fH32zJM0NGnRDgcOHpJl+rc59KQtF3y6MZnL5cK7SiWmg0vdqhXVbtT9p2+ZePHM7Pz9lb93aYFdy3UtbpyFHuOWon3jmhjcs23+jYElwL/nb+HE+TNoVtWy0HhocpkcHpkIkv9KLvFI01qSPKWIQWST0qeFyXNxscvTXELatcmlc1wciQbRzPoh0trx/XNhCQK8ipIgJCxK7n2gpC3LDujYnKysLPTs8Sum9WuDetXUT9pPXgah3eBZyMzKzhdp3SRt6V6qT+ExIIk6VZwF8HAs+LSdW1OaNLbNzcA0MzdmSqf+3KVHulX//xRzQZjAhaiIpgCWlqYgbhJZRq7rhcR+a88ITxTAzS5/NxQJxgoIyUbtZt2wZcs2uY2ipC03hNovgFzq7NmzGwf3+uHCzoVqN4ic5Fx8++Tr0ybKlWTSJvZPXbELV+48wfBCelgS0g4np+Evu0kO2YaGHNjZWchM3OQEHBWdDPFPIaEFvTCyprR/de2o/UUshgLXXvNA7ocbVDJjft18P1IyxLgblIP7jwLg4uJSDKn5P0pJW24IdUPAgQP7MXPmn/h4ZafaDSK37E4N8r+IJMr179Yafksnql1PdSlAin5VaDMMZR2N0KFu/oksBZ1WJWIWXN1si03cuS6RpGJFbMjqIgkNJa4X6Wq0qGsPfl6XkLaEYw1Ldhq8nA2ZWujkizIjR4xr7/hYsXIN+vSRvbLf9+tR0taUXVezHi9fvsTIEcMxd0Q3tKhfVc3aACu2H8WCjf/k0YOtp4dT2xeidaOaatdRnQqs3XMSR/+7hl/q2sDaPG/ED4+XzcRQ5zfIRaG5uRHMzU2KrB5IfoVlZfGRnMKDSEhS1aUnUxK1QnzpxRmF6V0cOap+lpB2z34jER8fj8uXLsDDVsx0HPoUK8TMuYvwxx/9mDaAihiUtBWBoo7I6NmzO+IiP+PKnqVqt4ictl18eyM59UfiMTczRfzjo2rXTxMU6DB0Hjxss+HlZpInQYc0AiBkWxjJko7jRoYc2NqZ52sOP0eAhCRC1kLp6of/JMXIyAClSlkVq5MGiXgh7hFtG4S0B4+ehlGjxiA2NgZpaWmIjo5G+XLlUaFiRbkiaX7GgpK2tr0dStR38qSJuHHtIi7uWgLrArqUK3H5PKL9XwRi/KItePMhFKRolUtpBwSc2aJKFTR6LRLnPX7RNnT3tYSV2Y+n7ZiYFKlTu8kXJCkZa8gxYJJ8CNmTrjmKiDUh2ZFmZoWHJ34FOT09C8nJJFlHcY10VbWBhLTHTVuA0aPHKn1JStpKh1h7FiA/hT3KuGHsHx0x9o9OmqE4i4X1e06gjLMjurZpqBk6aZAWoxdswYOnrzG0w49ZqzGxKSAnZXUPY2MO0zuyqHBDTW8TVhSOhLT/Wr8LXbp0LepRuf9OSVtuCHVHAPngVPOpgu6t6+PPET1l+kmsO2hohyWJyWlo2HsKapYzRyNvy29Ka5KbwdXVvkjfeXJSOri8bLCK4TPXpB0ipH3s3C14e3srXS1K2kqHWLsWiI2NRd3atXByyxx4V1B/dqR2oacebbcduoDDZ/5D+zrWMDPWZ75sY2NJyVT1n7S/IuLmZl/gaZtEukRGJmtdxMj3u33jDQ+PXn6Gubn0LeVkfVsoacuKnI7O4/F4GDF8KBpXccLAX1vpqJW6ZZZILMa0lbvx7v1rpuZ2Rmbe6nvqttjGxhzm5sZ51CCXjqQWNulhqs3j1vtsvAiMkqsQlLT2U9KWFqkS9Nz27duwZvUKvD5HGx9oy7afve6P6at2Y3RHJ6SnF1YhT3qLyAXl10GKEIolYMLYSKlYJvBPAqlbixHftoMDcd/8XyZJAIqMSoSECNbiQerF+H8WIehztEqsoKStEpi1a5GHDx9g9OhR2D5/BKpV1P5qetqFvuzarthxDLsOn0FLHzOYG/2cl1e0XL4Q4GYRQpbgfYwIyTwJSFhglXLuMDLifKNbUuTqQ0gkeJnZMDTQQ12P3EQSK2NWodUHLSxMYWpqyCT2fD1hFyfuu2gL1PPEh5gcvI2WICIypsgLV0VoSElbESjqoIxffmkPblIcrv29lF5IatH+erYcjDK2EtT0yOuKKMiMzBwJPiWIkZEtQTxXgt6dmqGKpyskEpL6ro+WDWrA3Mzk2yVhdg4fd568RnJabuncF+8/MyVmS1vpoYqLPgz1CwoXZDGEra+fS9q6MnJJG4iMilGJSZS0VQKz9i2SkZGByl4VMXFgV4zqk7dvpPZZVDI0johNRPPfp6JJJUPYmhVRjlUC3PsoRGqWhGkxt3XhOKZgmLERB/rFKNIvEIoYEu48eiFiYuNRydkA5eyLf9LX1h36GJODN1ESREbHqsQEStoqgVk7FyEZkvbGEiyZ1A8mRvK1j9JOBLRT639OXcf8DXvRo55FvgkyAqEE4cliBEaL4VvHG/06t2AaCEvtoC4Elu7jluFV4GfU89SHo6WeQhJ0NHkXyK+RN5E5+HP5brRrp5rDDSVtTX4j1Kzb58+f0bRJY1zeuxhlVd5yTM3Ga/HyweExGD5nA/Ry4lDdnaS4//+i712MGOmZYlSsVAXtmtRG9za+CrWUNK6Y8tcuPH7+Fu2qEj+4dl8yFgUOXyjBldeZOHH6EmrWqlXU4wr5OyVthcCom0JIvO/atWuwccMGBF32000jddQqEgZYse1wlLUTo5qbEUOdgTEifIgRoWJZd5zeNgdsEgqihEFKuDbqMwMQpMG3vPrb1ynBxG8icwQSnHuegf/+u0xJW5lAU9nSI3D+/DlMmzoV2xeOQr2qFaSfSJ9UMwIsjJ6/Gc9ePkWdssaISBaBr++ITfNHw9PFQSGukMIMnL3uH1y7fR8NyrFhwFbOl4OaAWaWf/I5E21+HY5Fi5aoTB160lYZ1Nq7ULt2bSHKSsPJzbNhoK/YXoPai4rma06iPGav24e79+9i0fTxKO/uBE+30ipRnNQaqdR2KGq4seFsrZuXkuTXy/nXQvy99wCaNWumElzJIpS0VQa19i70tZDU5EFdMbxXe+01pARqfuXeM1T2dINLaTuVW1++9RBUdzNAGTvNJ21CwGIxQJKIpBnkAvLWex6MLF3xNOC5NFMU9gwlbYVBqduCDh8+hDV/LcGprXNhZ638+gq6jWbJsK5Gl7EoZyfUCtJO5glx7Q2PubitUJpEShV+gfo+MgfvY0lLN9Wkrn//xlDSLhmfH7mtTE/nYsrkSUiO+YwDq6bJLY8K0H0Eeo5fDklGGDy04KSdzBPh5rtsJsu+Qik2fNwKrgGemiHC/Y9ZmDR1LsaNn6DyjaSkrXLItXfBNWtWY9OGDXh1bjM4nPw7T2uvdVRzRSPQpO90lDLmaslJW4Sb73Owdt0GzJ0zG6Z66ajtaQwDPRb0v1ykCkQSPPqUgbgUEYYOH43FS9TT4YmStqLfVB2WR3zb7du1hSSbiz1/TYKtVf5tqnQYghJnGrlQfBkYgo+hUUyhqIoeLvCp4C5VjY3yrYeiupu+VpB2Ek+EW+9z8PLVW3C5XGzbtgVHDx+CKUcEj1IcZt9fhGajWbMW8CxXAYsXqy5a5OeXjpJ2ifsYymdwYGAgOnZoi8UTB6Bb6/ryCaOzNRIB4s29cv859p+6BhZLDxExCYhLSmFq0Dja2cCllC3sbSywYe5oiMUFl1Qt32YYqrmytcI9ksQT4tZ7PkPa9vb2ILHmT58+YUrG8nP4MDDQB0uPjYoVKsDG1lat+0ZJW63wa+fiDx7cx2+/9UDAyY2wNFdMh2ntREK3tCbV+85ce4TZ6/+GoQEHFmZkb8Xo0qoBhvfqAI4+G7uPXcLh/26DZAJyDPSxf9VUlHUtlQcIQvBVOw5HrTL6sDfT/Dhtxqf95aRNSFuTByVtTd4dDdUtPDwMw4YNxS8NvL6EAOp2qrKGboNC1SKV+o5fvo+jF25jYLfWqOTphm5tGhaYhh4WFYc/1/zN9O5cPmVAHl3+PnUNfvuPopGWZERS0lbo60SFaSICb9++RY/u3fBrq3qYO6aPJqpIdZISgZ1HL2Hf6euIS0zF+P6dpW7q7Hf4P6zefQp3D66Ao8OPLoOGvaZCxE9DkwrqubAmMdfX36ajZhlj2JoXnUqflC7E81gT3Lv3ELZqdn8UtW30pF0UQvTvBSLQvl0bmOgJsGvpBKacJx3ah8CFO08xYcl2sMBi/NTrZ41AHSnLFejp6aHTiAXIyeHj0p7/X8yFxySAVPtrWjZHEYUDZQKVnJxvvMtCbQ9DlLEv+osjKlmIdv3mYPiIkTKtp8pJlLRVibYOrjV0yGAgIwEb5o4AW0/KdDIdxEEbTUpLz0Sz36ejdtXyePA8EL41vLBjyfhimdJ55AIIhWJc2LWImUc62CzzO4rrN6+jhhs54arHdXb4QSrMzS2RnZOF7rVNvrQ5K1iXE/5cLFq6AkOHDiuW/ep4mJK2OlDXoTVv3LiBAQP6YduC0WjVsIYOWabrprDQe+JfyMrhl5I+7QAAIABJREFUY/eyiWgzaBZqVSmHnUuLlyzSb+oqjOjbCY1qVmYuLUlo4B/TVqO2Sw5M1PTjSyAGLr4S4OLFK5g5cwY+vXmI5t6ktnj+pE16YT6KscC+fYdQuTKxQ7MHJW3N3h+t0G7lyhXYsmkTbh74C04ONlqhc0lWUigSYfHWw/j33C380ak55o/ti5rdxqKmdwXsWDwOeuS4LOO4fO85Nu/YjoqO+mB9V8dbRnEyTbsXlIEsWCMw6ANSU1PgXcULHnYSVHM3ztOUQSiS4NIrHpq2+AV//7NPpvVUPYmStqoR19H1xo0bi5cBD7F57khUKOOso1bqhlmfI2Ix4M816NKyAaYO7s64MHYdu4wDZ29i07zRTPIM0yCymOPohbtYsmUf6nrow9pUduIv5rI/PJ6eLYL/pxxMm7McgwcPYf624q/l2LtjHeqXM8rT8Dg4jo83USLcvP0Anp6e8iytsrmUtFUGtW4vRHpKelUqD9+albH3r8m6bayWW9dywCyER8fj/uE1cLC1zLVGAvSavBIklM/I0AC3D6z4wtvSkTfJnGwzeDbSUuLQuHzRF3/KgjAiSYCnIUJERMV+y9okCTLr163FpvUr4GjBQu1ypiAukXcRmficIMahY6fRsKFiO/goyz4il5K2MtEtYbJJ0s2IESOwf9UkVHJXTd3mEgax/OaygPKth2Hm8J4Y3KPND/L4QhHW/3MGZ689RFxSKrbOH43WvkXfU2TzBVi06SAu37mH5pUMmEgUdY3Hn7Ixf9UudPilYx4Vpk2bihcvnuPNy+eQsIBq1Wpi8JCh6NWrt7rUlWldStoywUYnFYTA9evXMGTwQKyaPgSdWtSjQGkYAuREvPfEVdTxqYAq5d3y1e7Z2094/SEMLepXg6sUdbhnr/0bN+89QB0PNjj66iNsXrYYwVnO2LX7b1SoUDFf29LT03HkyGHmb3/80Q9GRgVX89OwrfumDiVtTd0ZLdbr4cOHGNCvL/wWj0eD6vl/eLTYPKr6dwgcv3QPc9f9Ay8nPXg6qLer0eknaejY5Tds3bZdqoJW2rqRlLS1dec0WG9SbKd//z9w+9Yt/Lt2OnOqo0O3ECCNg+8/e48Zq/4GB1zUKcNWo1MECInn40WEGO8DP8LcXLerT1LS1q3PksZY8/nzZwwfNhTBwR/x19TB6NJS21wl5Ge+dJdwGgO6ChVZvecEzt14AjOkobKz+lwixOS0TBEefcrBvMWr8Ue//ipEQT1LUdJWD+4lYtWsrExUrFAe+vr6OLB6KmpW1uyQKhJRcOnOU8zbsI+pHU1Iu341L2xZMLpE7Jd0RrIwaPpa3H/1DmVs2Kjqoqe2VPWv+kanCvDoowDhkTFgs9XropEOQ/meoqQtH350dhEIkFDALp07IujDB+xbMRkNanhpIGYsvP0Yhu5jl8DewQGVK1cBW18fErEYRP+gd69xaN0MlHV11EDdVadSanoG1u09hYs376C0lR7KO+ip1SVCLCeXj/c+s+G3YxdatGipOjDUuBIlbTWCX1KW/hwcjMGDByIqMhzLJg9GpxZ1NMZ0CVh48yEM4xZtxejxk1HJywt16/7flcPj8dDvj76oWc4e04f2YBoBaMpITOHi1JWHGNarrXJVkgA7jl7Co5cfEBj0hqmRbajPtFNU+7j2moeqdZphz96/YWpqpnZ9VKEAJW1VoEzXgFAoRNmyZZif0ic3zSkw3EyVUBECJp1ZvNoNx8bNW9CpU+d8l4+MjIRvw3o4vXUuvDzzD5NTpd5f17pwO4Cp0Pfx6k7lLC8BhCIx+kxZiZeBwbA2ARqVN4CeJrA1gIDPWYhMZeNzaDjjgispg5J2SdlpDbAzLS0NkyZOwL1797Bl3kg0rlNFpnRpRZnyKigUvSYsx7TpMzB6zNgCxcbERKN2rZo457cAlctpDmmTQ/+YRVtRx6ciBv3aSqEXp0EhUXj27hPmb9gPR0s9eJXWh7kJycZTFPryyYnnCnH/Qw5OnbmAOnU055ebfFZJN5uStnQ40acUhACXm4YHDx5g4vixGNevM37v1IxJm1b1SE7LwMSl2/EiMBTv3gcVelKLjo5C9WpVcWnPUo0ibYLZTf/XGDV/ExZP6I+e7RvJCSMLxy7dxd0nbxAYEoGMtAS427FQ2pKtMadrYiBxad18y0OnHgOxZOnyEnXKJvZT0pbzNafTZUMgJCQEzZs1gUgkRuAlP7DZqqvF/bVx7YTF2/EpOKTID310dDTq1a2NM9vmaRxpk9N2pXbDwIIedi4dj4bVvcDWlx5LoTC3Me8Sv8M4eOZmboU/iQStvQ1gzHyXaogv5MtrRlxaZwO4aNSsLf79NzezsaQNStolbcc1yN7Lly9h+fJlyE5Pweb5o1GlnJvSM9n4AhGu3AvAyr3nsGXrdql+WhPSbuzbACc2z0alsi4ahGCuKoR4Z675Gw9evGca8pKWYU1qV4GNFUkyYTH3CCSE8UNIJAJDIiERka8tFrg8HpZuO8x0LnC2IqF7EpSxY8PalJmlcXbmCCV4/CkLZg6euHLlOkxMSHODkjcoaZe8Pdcoi4OCgvDg/n3s3LYRZZztsHf5JObnrzIGqWC3Yudx3PR/hdNnzqFatepSLTNn9iwkhb/D0kkDYGJsKNUcdTz0MigEUbFJGLd4G2pVKQ9L4oTOpW2IIWEq+xEMyOncxJAFLyc29PUkYLNYsDPXRJr+EcW7gRngCoxx6PBR1KtXXx0Qa8SalLQ1YhuoEqtXrcTu3btQ0b00di2bAFNjQ4WdunP4QgiEItTqNo4pEPTk6TNYWFhIBTqJevEsWwaj+nTAxIFdpZqj9ockwIfQKCSlpcPcxATOpW1hbGiImWt3Iy3iGWzN1NcGTBZsxBLg4ccMxKfrYdnylejfP2/3d1nkauscStraunM6qHdUVBTmzZ2Dq1evYObI39CvS0voy+HrFoslOHLhDq7ef4Y7T15j0qQp6D9gIOzt7aVGb8vmTdi7aztu7v8LBvram21HMJi+bCN8KxjBmCO9z1tqoJT0oEAkwYvQLEQkizFrzgKMKSTKR0kqaJxYStoatyUlWyEul4u7d+5g8uSJqFzWGaN+78j4Z78OcnHZb/pqxoHiXMoOM0f2gq2VOSRiCVhsNj6GRGLFjqPIzM5hEmEev/rA1KPo1KlTsQvdX7p0EZMnTcA/yyfCp2IZ7d0YCdD492kwQxKquBipPe28OECS5Jn0HD1s3uqHrl27FWeqzj5LSVtnt1a7DSOEW7dOLZDYbkszY5zbNh8W5iao1X08BAIxLC1Jx5Uvl2xiMUPQenrkMo3F+GwlEjEOHPgXlav8n/CLg4hAIMCSJYtx9tQxPDyypjhTNe7ZDsPmIyL8M9pVV3/1u2y+GEZSnPRJ78Zrb3gwtS6NP/+cjd69+2gcrupSiJK2upCn60qFwJnTp3H5yiU8f/IQ3dv4Mifsmy9CsW27H1xdXRmyzszMRE5ODkxNTcHhcOT2hROZxC1y5vgBbJ0/Bq6lpXenSGWUCh96GRiCkXM3wMGYi/KljZR0xSudQTGpAtx5n4FeDawKnZDIFSIoRgDf1t0xZux4VKpUSboFSshTlLRLyEZrs5mkaNPZs2fw1/JlcLazwOuPofAs64lly5ejYUN5E0p+RIYQ9sIF83Hk8EH8t2OhVneXT0hOQ5eRC+BqzoObHUehGZPFfZ+S0nPLp+aIWGhflfjV848QehKciTiuBF2798HSZX+V2LC+wvClpF3ct48+rzYECKH+0qEdYmJikZSUyOhB/JxTpk6Du7u73HrFxcXh9OlT2LFlAx4eWwOxWG6RahVw+d4zTFy0AY0rGcPSWL2Xj8FxAkRlWSE9nQdrw0w0qGD6w6mfmyXC6/Bs6Jk649fuPTBr9hy1YqfJi1PS1uTdobrli8C7d+9w4b/zTIggOYUTMp8+40/4ePugSdOmjG+7OIN067544T8sW74UJmwJNi8YjTJODsURoXHPnrz6ADNW+KG+JweOVqovE/A9IO+jc5Bl4IYdu/bgwf17WL18Lpys9OBsrY+EdCFEYhY+JrDQo2cvTJ48Bc7OmpfApEkbTElbk3aD6lIsBIKDPyHg6VMsW7YUycnJsLKygoNDKdjY2mDdug1wcnIq0L/9tcTqmDGjQBJ8oqOisX3haLg72cHRzrpYemjaw5FxSRjy51pwk8PhW8lcrX7stxHZ+BAPXLl6A5UrV2ag8vPbjiWLFsKIwwLJcmzUqDEWLFwCNzc3rWy0q+r9p6StasTpekpB4MWL55g2dQrCwsKQnZ39bQ0SRWJtYwtfX1+4urohMPA9U2VQwOczad621hao410es0b2giFHvSdSRQAjEkuwfu9J7D5yBh2qm8p9KSuPTuGJAjwJ4eP33/tj5arVeXTJLY2rnOxXefTW9LmUtDV9h6h+xULgyOFDIEk6JMY6MDCQ6fJoZmKEPzq3yE1Bzy27wYQE1qjsybQT0yXeeBccgV9HzkWjCoawNlNfMlBcmgD+n7LRsm0nbN++g4nqoUMxCFDSVgyOVIoGIUBOcElJSYy/+9dfuyI5KRGlbK1hbmqM6cN6oHEtb80pDK1g3Or/NgVG4iTUKmuitnKq8WlC+H/ioWpNX/x76AjMzEpGRxkFb2WB4ihpqwppuo7aECAkPnzYEMTGxoE0NIiLT4BvTS9MGfwrxGIxyrmVhqmJkdr0U9TCw+ZsxO37j9ClbuFx0IpaLz85UckCPA/NRsUqNXDx0lXq/lAC2JS0lQAqFam5CPj7++P1q5fMxeXRo0dAwvzaN60LRzsrxk0yold7WFuaa53LhFT4G7NgM+w4qSjvqJ5KhG8jsxEUI0Tbdr9g85ZtNMZaSR8DStpKApaK1WwESJgfSZEnVfyuXbuK2bNmgvw7G0tzpiEDW0+PuZxs36Q24wbPdYZr7jh55T6mLNuGX+tZoHgBj4qxiYT1BcVKMGDAYCbGuqTWulYMmoVLoaStCpTpGlqBAHGj3Lt3F9u3b4OAL0BWdhaCAgOZfzo52GDmiD6wtjD9YouE+XcujvZqP5Xz+UJ4dxyBuh5slLZSTIPbbIEYoQkCOFjow6aQC81kngjRKUJkcpxx6NBReHh4UJeIkt92StpKBpiK114EyEn89u1bSOdycefuHVy48B84+vrgC4SMUaTJr08FDzC5PBKAJFCS8q31qlVAs7pVYWJkxHSMIX/8ErTypX2XLKf2r6Fx/z/3k441dx6/xg3/V7h44xbqleXAzEj+czZZ4c77TMRzRajnaQRXO4M8sd4CsQTBMXx8jBeheo26WLx0OXx8fLR3s7VIc0raWrRZVFXVI0BO38Tv3bhRQ2Tn5OD5qY25jhIJi6Hii3efYuHGfyEQCUH+DYkn5BjoM//9GoP8NR6ZoW+JGGKRGITpDfX1mcqFhNyNDTkwMGCD1AAnZWWzsvlIz8xi/ikWiaCnx2IyPb+PbSby+HwB8yXiaC5AvXLyt996GZqFkDg+WBwTCIV8dK9DIj/+/yVD/l8SV4TbQRnQZxvixMkz8KlalSbFqPDVpKStQrDpUtqBwMuXL5CUlIyXz59jx04/8DOz4GpsjZDMJPyPvasAi2qJwv+ydCqIWBjPBsEWsLu7CxvFDgzEBFtRsVssbFSwARsRMFGxJQWku7bu++YCKroL24Du+b73vfd05syZM3f/e+6ZEx+9DhWxibymuORCMyU9Cw+fvsVd/1dIScugAZd0OTfRqYJyqhqgGPntvSjq53//wjkmOxWhmfEwbWSGikYVf8SXF7jXmzZrhkGDBtNZhNWrV0MVHTZaSQDaMclsJGXyQOnWQfUaNTFs6HDY2EzEoBY6SMlkI4dD0enmL0KyYd60BerVb4BNm7Yo4q9L4JFWgHYJKF2xZOnUALmUJFmVvr4PkfDtO1pXqI2HKV/h3H4S9DI4sA++jMAbO+kwQVGJWMON+kzHTvMRsNT/77fpP50nBX8RnpmArR+9QdU3Qpfu3WBrO13gksbVqqCSDgcWdTVFSlknVntGDoV333IQncpAp85d4Oi4Bv/Vro3Q0FDYTJmEtNhPIKVScznAsGHD0K5dR7Rr344uF6CgktGAArRLRu+KVUuZBnbscMEOl+1QBROb6vdDPQ0D9Hp2EAd7zkFLwzrIiYzC2GdHcfv6FnByWSJLT7rAm/Seil2NR8HqD9Dmz45L8TDYdw9iclOxcetWjBo1mu8lX2ZmBurVrQ0uJxeDWpUDU4lY8YL95qRxckwyCwFfssClmNDTKw//gKd038xfi22RaBrygipw85C/E7UYl8iKUkwoVgMK0C5WRYoBf7MG7tzxgZ+fHx5cvI6auhWx3nQgnoW+xawP7lhmOQJD6rcFxeGCFRlNg3aPwZaYNbavyCohjYW7jl+KpZW787G0C7P7mhmPsOxEMEgHHgbwMPYjbnx/i+07d2Lo0GF81w4LC8PBA/vx8eMH+Pk+Qs2KqjAqR3zgP4cT90bwt1yweUpo0qQpqlY1xvgJE0Ruwyby5hUTpKoBBWhLVZ0KZmVFA8Q1cOyYK10hsK62ETZ0mIjqOobwffoAyz9exQKrYRhQx5LeDgHt3MhoWD87Cl4FJt0cQVQi6x04dwvGz5horV+HrxsjlZOFw2G+8E8KRWhmAqqo6qGedkW8SIpAOieHBvA+/ftj0sRJsLDMk+13IklD/k+e0JekpHjW/ft3kZycTIN0y5YtoaWlDWVlFZibm6Fy5SqibkMxvhRoQAHapeAQFCLIVwOk/6OVZSskxifg3sgNKKeuQ1/0pb//BOewu7ib/BmPxvzsC1kA2sTSZpcDbh9dK5bAHncC8PZsMGbW6vjHfOIKsbq/kXY/XBuyGtW0K4DcaOZ+iwLF5oFiUFCGEprfdIISiTJhMvA1JAzKyj+jVMQSSjGpzGlAAdpl7sgUAourgezsbAQE+GOqzRRYVqyHCaZd0axSHZpd7rcYXAkJwPG4F3DpPA319Kv+WOZXS5uA9i0xQfuS1xOs2nYCj9ovKrQF4g6Z9/o8OtZqgklm3VFZW//n31MUWLHx4GXn/vizq1FBeJ4UCj9ODCZOnoz58xeIqxLFvDKoAQVol8FDU4gsugaIe2LUyBF4G/wGK5oNR/tqjaChnFculJuVhcsv72Ltp5vY2dUW7Y0LJ4kUgPbIp4dAlWeKbWlf8vLD4i1H8LTTsh/ukVRODuYEnUUz4wZY1HII34s+issDOz4RvOyfdcKJ3KfCnsA19DEse3TGkSNHRVeKYkaZ1IACtMvksSmEFlYDBKyJhd2hfTvw0rLgYDUSXWo0+WlFUxTtFln68SqCsr7Dd4zzH6x5+ReRs4LOIF47G7ePiOceIaBt73wUgR0dfqwRlpWIUU8P4Ww/e9Q3MBa4LW56JtiJyXQc+K/0NT0OE/yPoOewgXS3HuIuUdDfrQEFaP/d5/vP745EVJw+7QYTGGB9hwn5aeQFaqHASU7DyZe3cSk5GFcHr6b9yL8TxeUiNyIaIZnxcPh+DbeOrBFLr8Q9Yu/sisCO9vR8EkrX5uEWrLAaiQF1rYrhSYGdmAJuWsYf496nxWDmCzfYzJ+N+QvsxJJNMansaEAB2mXnrBSSiqiBeXPn4MrlyxjRoB3sWg6BKrOwFcpOSQUrOhb9Xx7G9Bb9MbR+W/4rUBTYScngpGeig99WrJo1GkN6tBFJGjaHhz7TVmGAqglGG1vQ7hHnL164n/QZ14eugRqz+FZn5KshN+zbny8VUDj89RFOxj3Dx89fFQWbRDqZsjdYAdpl78wUEhejAdIj0nnLZlw44YaDPeagvj6f7t4EAKO+w8JrDbrWbIatnacUWXyVnZoGbnIKuvnuwNABHbBw8iC6hKtQROqXJKWi65ilcDEfgeblqiOXx4HtKzfMthwEq6qmQmcy8rKywYpN4Lvs0iB3POPF4ol/oKJbjFAHUzYHKUC7bJ6bQmoBGvD3f4ILF87j471A7Oo6A+XV+be6Yqem4tG7QMz/cAWObcdiYDHuCXIJSC4Dv2UkYtxzV4wZ2hULJg0s9hyIC/qefxBmrN6N1Q36oadRI3rOhajn2PjxJt5O3o/8KiTF8iIDKDYHrLgEUCz2H+M5FA8W3msxffZsLFu2XGFxC6XRsjdIAdpl78wUEgvQgKenB9Y4OYJKz4Vb38Uw0hLQdouikPUlBCs/XEOcEgsn+hQOwROkYGKZs3JzcDLCH0fDH8OyuQkWThqEBrX5XSDmVeUbOH01ImLisbP+cDTUqUwDNLlKvBj1HBqGBhhav53I58mOTwI3I5PvPP/EEDhFeuPUuXMwMTERmbdiQunXgAK0S/8ZKSQUQgPPnj3F8MGDYaSlj5vDnATPoIDsT1/xMOEzHMO88XDUZigrCde1nC6FGhlNZ0iS+8oBT/YihZ2NNFY2Fk8Zgj6dLaGspIRzNx/jwOmrdJnVSuraWFKvJ50FWUCpnGx0ebQdJ3rb/YgTF2KLhYZkh0XSae6/UxaXhVnPT2PKhqUYPHiIqGwV48uABhSgXQYOSSFi0Rpwd78Ie7uF9IWjTeNe0FMr6C7z5zxioZJEmgXvL8GiTlNMMOsmtD+ZcOOx2WB/j6eBm2QxPkz4hA8ZsXTNaQLgpJ52eRUNOjJPRUkZk2u2+YM/Ae0Zweexo8s0VNMxFOt4iYuEl0nW+5MCEkOw4p0HPO/fQc2aNcXir5hUejXwz4H2r0XkC46F35+RvyN/ToiEZv3+3wV/RqqgkWpomZmZ9D8ZGelIT89ATk42atX6D9Wq8bkEK73PQ5mT7KqnJxYuXACX9pPRtGIdqOcnzPDbCMXjgR0Th8ufn+Bq5hfs6jod5dX4+7wFKoKiwM3JASc+CSTp5Vdi8bj0/6oWYbmTJ2pfyANkazDh0HqUSC+MX9eieFzkhEfznU9821MDjkHFpCo8PK6WuTNVCFy0BsocaCcmJiIhIQFhYaGYN28uMjIyfoBqHpDScFsIZMm3LAmxyisxyYASUwnKTCaUmEwwlZi075FZ8P90U9e8Pyv4h0F3DWGC/JvBUCr0QyEcfzaAKhzjm5SUiMSEBHh5+aBChQr0PwqSngaeP3uG8SNGYVfXaWhqVLdYxpzUdCRGhGPgy8PoU9cCy61GFTtH0ABSvIkUkQI7D6iFJfKstLi3HqMadsByq5HCTuM7jqxPLH5+xOJx0M1vB7bu2oW+fUWvSiiRYIrJMtVAmQJtZ+ctCAwMhJ/fY8xdsBAMpfxiOT8sYgpbN2+ifYnqmpoYYj0ZSgwmGEwlKDEKgFcJqmpq0NRQh66WBiro6kBVTZVul6Smpg41dTWoq2tATUUZKioqUFFVhTL5t0revwm408Cd71DMex0UwHYeaOdZ5QwEvXyOJ48fY7vzelhYWGHcuHEYOHCQTA/0X2F+8cIF2C9ahO2dbNDWmITM/ZkU87susj6FwDXcDwe/+eH1xL0S91cnSTckdpubkg5QwjdGaE0SalqPxKC6rSU6Lm5mFthxiQJ5bHl/E2mNjTB85Mh/NpKE9NEkLd5kRQQjRCENDQ2YmZnTtcvFpTIB2sQFMXWqDby8bmO09QSMn2QDY+PqfLPXIiPCsXXTenh73ULXPoMxc6ngMppKDKC8pioMtNXF1Z9Q8yLCw3H2lCvOnTkNS0tLHD9+Qqh5ikH8NXDr1k3MmTMLF3otRg29SsWqibxCc0MjEJr8HYs/esCl53TULi89txWxdgmAkwQcKqfoBgnEeOj4eDsejNpE+7wlIV5GFnLjEwW+rqKzUzA08CDUtDTpHpP/GhHjqeDLW1Z7F7UpBBnv5LSGbhUnLpV60CaW9dKlS8CjgOted8Ej36VCEJedg97duyIhMRGOLodQz9Rc4CwjXXXoaeQVD5IlzZkxFa+eP0WvXr3g4LAMWlqCL8xkKUdZ5v38+TOMGzYSzp0nw6qKcCFtFJuN7NBIPIz/iO3Rj3F54ApoqqjJRg3E552VCU5qBh3dwfstnnrDp5u4m/gZj0ZtIR9jEhKpAJgIknDDjzI5ubB/cwkd7aejQ8+eEq5V9qbfvnIZO5wcMcdpC+o0KPlO8ZQSA3OGdMfmzVvoLkTiUqkG7cuXL8HefgkamTWG8869MDSsKNI+I8LDsN5xJe7du4MFqzahU6/+AudX0FKDvraMfsi/rBrg9xh7dm5FlcqVsG2bi6IxqggneuH8efrScVGrwRjZoKPQoXqktCkptmT9xg0jG3fB8AbtRVhVgqHEfZKRRcdUFyTDzA46iw9ZcVICbdDZkYJAm0h+LPQx9oU/wvUXL/l+mUqwu1I/1evKFbg4rS5VoD13aHe6IfJfCdqfPn3CtGlTkZScjNv3HoudlksiOm56XoaT40os27IXTVvx9yMSo8dAHsBNiu2np6B/r65oZNoIrq7HSv3DXxoEvHfvLmyn2aCFQW24dJkmtGuBRHqQeh1cHhdjPpzFrq62qKEr36a0JGqFjlyJjMHs1+cQlPoNAdYuUrC0AYrFotPxBTFLYWXB5vkJ7PW7C4aSkGn3peHApSCDArSloERhWZAQuo0b1+Pe/Qe4fN2HX+E1YVnR44hfa+/Ordizawecj5xDnQamfOerMBkwLq8FZWFrSogkReHByQlx6N6lA4YPG4YVK1bQLaAUxF8DJGKoR49uKMdSxsWBy0RSEzs5mY6r7vv8EKrrV8Kx3iVXBY+Xk4vpPnsxtkk3tKuWl84uDcoJjSySzejHB5FdRQeHrnhIY7kyw0MB2nI8qkWLFuLL169w3rkPRkbFXzQJI1rs9++YOW0SoqK/49jVewJv03XUVFCpnIbk7kYhhHI9fBCb1zvCze002rfvIMSMf28IuUwaP94aMa8/Y3unqaimI3zYJIllzv4Ygq9ZCZjx7gLWdZz4R4MDeWqU7GW6127s6zFLqGgXYWUjlja/WiQF829EvcYRVjAOXvGke0f+K6QAbTmdNIkUqfVfTcyzs4eN7QyprprqPPmUAAAgAElEQVSdnYVmpvXQZ+hYTLX7WYj+90U0VJm0xS1rIl8UjiuW4uoVd3z69OWfDcsqSs8ODvY4dfIkAqy3Q0NZ+DuHgogRYt3ujfDFiahAvJ60T9ZHWiT/V3EhWHjvEHyGb5CKa6RgMeJ6yQ2PErg20YWl9zpMWDgfwyZMKlEdyHNxBWjLQdvE/zx58kQ6qmLHfleZrJiRnooW5iZYt/c4zJq14ruGqhIDVfW1oCIHNwnxMlo0bwRzM3Pa4lbQTw3s2OECz8OncH6AA53wJApxc3PBiohCNisHm0LuQNegApa1Fj+ZRpS1BY31+PwEy31P4s3EvdJg95MHxUNOmGDQJgOHPd6H9jajMcpmmnTXLsXcFKAth8O5f/8eZs6cAf8Xb8EQ8UcqrHgcNhsrHBYjNOIbnHYeETitgrYa9LWEt+yEXZ/fuBvXPLB5nSP27NkHCwsLSVj9NXM3btyAk4eOYkP7CWhvLLr/lxWfAE5CMu0amRp8DleGrBZc9U9OWpMZaAN02VhuRpbAnTxNCoVz1gus2bcP+v9IZq4CtOXwYNvZLUCHzl3RuXtvma7mfesGFtvNhfvDIHA4HIFr1aqgLRdrm1yUWjUzgb39Uowday3TvZcF5gkJ8WjXvh1MdCrjcI+5Ivt/ebks5ISE01v9mBkL+5CbONPfHvrqOiW6fY8v/ljx6ASdjSlt4qRn0C8pQRSamYDhTw7g6PUbqFxdcC9KactVkvwUoC1j7RNftoVFK+zcdxhmjX82XpXNshQmjxuN12/ewu3WY4FLGOmoQU9TPta2n+9D2EwYQ/u21dTks6ZsdCsZ16SkJDrbUSk0GTu72IrFjJ2UAnZsPH3ptvzzDTSuZUpX8ytpIqC99L4rgqcckPpFNzcrm7a26Sw0PhSXk47Zr04jNDcJahqaJa0KuazP43DAZrPpUhRKDCX6ClaYcgeyFI4Uktu8efPfEac9bZoNoKQMZ5c9coknffn8KcaPHYk5y9ajfbdefM+JlKuvY6Qn9R8Yv8WSEhOxcO4M6Onq4NChw7J8bko17xHDh8EwnotVbcYIHYv9+4ay3n+m/4iAtqW/C+xaDColoP0Ejr5ueD5ht9SfKXIZySIlY3MFp9Hv/3IfRyL96Jo6HXr1hsU/ErFEao/43vGBukZ5lK8gWoKetH4sL/we4vO7Vzhw4CDMzMzyynCISaUiI5KEQtWoYYy+/Qdi8/bdYm5FtGnEJWFW1xi9hlrDZn5ed2x+pKeuDCM9eVgmFJbbL8SlC+cQHh75T0aSuLu7Y8mC+VjVZiz61RHPt5/zNRw8Fosu2sWjKEz84o6z/RZDWcI6H6I9XfxHe3zxg8fnQBzpNU/qoE1eUQS0edm5AkUloH000o/OjJyyYCEGW/87rjiPM6dxcu8+LNy0B0pClsKQxpkX8Lh+4SSePvSSym+7VIC2p6cnZs2agXdf/+w0LU3F/c4r+M0rrFu/EQscN0NXj39rKg0VJoz1ZR/+R2Qjln1jkzrYuWMnevfuI8utlzreb968xuhRozCudl4jA3GI+LLpcqVs0j+Rwrg3bmCqq+Nc/6XisJP6HOIeiUpPwIymsimVyk3LACsxWeAL4XH8Fyx/74EMTi5sFhLQHif1PZZWhp5nz2Dfpo1YveckGCUC2ifw9KE3IiIkx7hSAdoEsC9evIAvkfFyPfP4+Fi0bdkUW49eQD1T/gVlmEoMVNbTgKaqZBXZhNkY8bk1afgfOnfq/E+5SCIiIjB2zCiMqdQKIxp2FEZVfMeQ+iLsuJ+dyocHHUNNg6rY3U268f7iCujx5Qnt8un9X0txWRQ7r7jsyEG+e/AtNwU2ixb9U6BNLO0DWzZj1e4TJQLaNy6cROBDr78DtEn0Bgnz2+ayC5SQyROZGZng0V1CSFMCQFtHvKiA3NwcrLBfiNa9hsKkcTOBP4iKOuoopyn7KoBEAGUlClPGj8XBg4egqSkPt0yxOCDzAfcf3Mek8eNwa+gaVNQU0Iy3OCm4PLBiYkGiKAgRa3Lcm1O4M3Yz2DzZ1VMuTqxf//7alwBoq2mgo7HgipOi8Pt9LHEJkTorRdHgh7vxjZeOCbPmYNikSf+MG45Y2vs3b8Kq3cfBoORfg+WvAm0fH29MmTIZrz9HoDhVZqSng8Q073JxRkI8scoZUFFRxuq1G9HSwgrG1WuI/MwfP3oIp8+cwa5TVwTOlWfMNvnhmdYxxt69+9C3bz+R91PWJly96oll8xdiU4dJsKraUGzx6fKrX8J+zD/8zR+Hvz2RSXiduELeDHkKHVVNtK3Gv/aNuHx/nUcKZLFi4gW6SLZ98MKZqKdQVVWD681b0DcUviyANOQrKR4K0BageV/fR/Dx8cG8efNRrpxwFhNpbDBhwnh8CieVyooiCiMG9cf7t6/Qq0EF6KiTDLm8gsRnXsWhZq1aOHPBE7p6onWEOH7kINauWY3rAR8ELq6sxEDNCtp09xtZEwFty6Ym2LhxM/r1+7tBOz4+HgMG9EM9lINL1+niq5aikBP+DbzsnF9A+wkuJQTj/qhN4vOV8kwC2rpqWmhTVbg64OIsT/pW5kYIzo5kU1y08d4AhrISTvjcgYGheI2FxZGtJOcoQPs37efk5GDFiuXw8PSgeymy2SycPHEKrVsX307p9u3biImLx9CRYwWeKanRMWJQH8SGvod186ogtUF+paQsNtxfx0FZzxB3HgaIVBWQtASbZWuDI573BJa3JGvVNtQB8W/Lg+773ERKYsJfnWhDznTDhvW4cOwUHozeLJFaSdeY7E8hP3iQqJF9kb4YatELtcpVloi3NCffCHlKd4qXKWiTOiSkd6WAeG2yn+ZeawAlBmrUrYODly4X+dxLc/8lyUsB2r9pf/36dXC/cgUDRo2Gtq4ewr9+xk33i9iwfgOGDBla5FktWDAflm07one/AQLH+fv5YuG8mehurIxaBvz9vJ/is+DxNg5bd+1Ht56iRF5QGD6wL0ba2qFR0xYCZahtqA2mnOoR+9y+ifVOKxAY+Kwkn3OZrk3KrZI6M03ZBpjbnJy9+C/E3KgYkMiJAvqWk0JHjpwdsBQ19eRbO7sopcnF0iadc9IywElKEShKzwfbkcljg8Xg4dqLVyIZOTJ9KGTIXAHavyh39epVcDvtBusZs6Cjp/fjb3w8r4CVkQlvb58ij4LEZ29x2Y1effl3lSFFpKZPHofKGSEwqyLY9UEiL74kZCJcvRYOHz9NN+IVlkYM6ouMHA62HzsvcEp5DRUY6moIy1Kicd63b2LO9CmIjCy6CJBEi5SCyd+/f8fgQQPQWK0yNrSfKLZEtGvkl5Zb4dlJGPbKFVeHOKJWKQJt2tJW1UQbGfq0iRI5aengJPIHbfI7uRv7Hh8yYuDxLQgbL5xG9dq1xdZ9WZmoAO38kyL+15EjhyMkIgKjp/6WckxR2LZqBZYsscesWbN/WkHfvsHKyqLQrXVB93JJHwDaVmMAThucMXT4SKHZDR/UB9/jE3HY3UvgHCWKQp1KP19KQjMXY+D9ez6YY2uDkJBQMWaXrSnk7Fu1aoG+FRtjVrN+YDKKu44uvD92cgrd5OBXIkWijqcFw7HtWGipyLZpsyjavvY1ADqqGuggo+iRAlnoLu0JSQJdJO9TozE36BxSczJhatkSm4/IpqKmKLqR9VgFaOdrOCgoCLa2UzFy2nQ6+4wQSafNysyk//vOVU9079wJE/Jr+L569RLz581DoxYt6DoA5GLP/8F9/Fe/AQwqSp5eSvgFPHyAOQsWwXbmXKHDmYYN6I24xCQcKgK0yX7qGYl2ySnugxgfF4t5s6bB47LgiBZxeZfGebGxsZg6dQqasA0wtXEv4YGWosCKSyjsCqAorPp6C7WNa8O2iShuMtlrhlT5U1Fiondt/iWBpSkBCX/kCegM/z41BtbPjqC7YUPE1tLF5iNH6QzS0kCP7/ggMjSMdtmQ9mg8Lg+GlY3Qtks3qKmL/wJWgHb+6Z4+fRpLlizCAqe19J+wcnNx5tAB8Lgkhhogl01MBgO6unlgl5SUjN7DR6BqjZ+heWcOHUQzC0vUN5dO7Orb58/w5O4dPAoMErrw0tABvRCfmFwkaDOIpU3qkIjvehXhN0FhwezpcFy1CpUrl56LNBE2IPLQuLg49OzRHcZMXdhbDEdDg+Ir0dEXkCTM75c4bAI9Vv7bYdukt8wyD0XeXP4EkhEZmRaHWc0EN5gWl/fv83Jj4kDl8E9pJxX/Zr48jUMtxmFC8GkscXZGk1ayf5EUtTfy0rh9yR2HXbbTONKiRUsYVjCE72NfZGVnwbBSJRy+5AGesJ138qpD/SAFaP8AbTc4OjnBdok9crOzccH1KDR1dDBk3HiSRVyIYiIj4XnWDeNmzYG6xk/f8Nf373HlzCnYOa2TyvMa8fULLh4/hhfBX6GhIdybedni+fB97I9Dl24XKUM9I5LEIxfUpkG7slEFODqukYpeygqTNq2tEP3tG1x7zUcTo6J9rVR2DrLDCvdHJEWi2gXsxPwWg2DdqEup2jYBbfePvjjRZ6HM5SLuEW563hfv70SAb8dHb/Sr1hQjHu/DXEcn9B5adMCArAUmoOq6wwV9eveFfnn9QssR48/L+zaioqPouyqSm1EU5ebmomKVqjji4akA7d8VdebMaVzz8UGLtu3w+ulT3L1+FXNXOfJ1S5DatkaVK6Pxb0X+kxMScO3cGVjP/On3luQB+R71DVdOncTjwKBCL4eieJ4+eQwH9u/DoUveRS79XwVtuTT9JUIsmG2L+3d96FKt/xJFR0Vh4SI7kJj/NW2sMaCulcDtZ338WsjKJgMzSSbkx/M4228JHV5Xmoiksa94dAqvJ+6RuVjFZUe6fPDGg5QvaKBZESYzRqBXMVFeshTY29MDu9Y6oWuX7qhWtZrApR77Pcb32Bi0tmpTZCPsgEB/sLhcnLr9845KYWnnq/X0aTcEvnuPGrVr48UTP9y7cR12a/hbzNtWLken3n3Q1PLPH+GNC+fRsXdvaGppS/xs5Obk4Ja7O9yvXIWamnDRHnd8bsNp1ao890gRhrSBlhoMtOVT63r+LFv4eN1EaGheMf9/iVJTU/HkiR/mTJ8Bp7Zj0bMWn1BMBpD1Lq8E66+06stNfGAn4+rgVaVOZR6f/eHwyBVvJ+2XQ11nCjmhglPaCWi7xTzFvsajsJt6j3UHD0rkM5ZE2Q7TpyEhKgo9uxddKIwkY3lcvYIxo8ZC45ev9d/X9r7jjfSsLAVo8zsUYmn7v36DmvXq0aB9/+aNH/7t38fngXZfNLW0/IMVAe06DU1Qr5HobaV+Z0b86bevXMb5cxehrCocaN+/642VK1cUGT1C1tFSZaKqHBr+krXmz5oGEvoXFhYhye+hTM998eI5Jk0Yj0pK2tjUcTJq6P68rM6NiAY3/8L7102Oe30Kucqgw/1KG5GLyBW+JxE0cY8cQBtgRcaANALgR8dD/bAv/CH2mo/C1OcncCkgQCpGk6g6f/HkCTYvW4oRQ4YXexlKvh78nvihRs2aUCsipDfwaQByFZY2/6MgF5FuFy6ga//+iAwNBQHfSXPnQYVP55WtKxzQuU8/gZZ2267doFu+vKhn/sd4FouFW+4X4X75KlRVhfNpX3G/gG3btuLwJcEhf2QhTRUmqsmpTOu8mVPh43XrnwZtovP79+/Tl93K6Wxs62yD+vp5n8+5kVF8eyKOf+OGSvpG2CVJWrzETyF/BlfyQVvqjX0FyMsjzY2j4/j+bQ6XjYF+u7HFfBiWvb2C3fdulQhoe125DBfH1Zg8ZSoYQgSw+Ac8QVhERLE1UwaOHouegwf/2LvCPZKvCgLaDg72tB+bvAXPHNyP9NRUOitSU7uwPzE6PAKtu3T9w9JOSUrEtXNnMXbaDDq1VlJKjIsFKcN492Gg0BeRpNLfg0ePcLgYnzYpz1qtvDwq71GwmzMDXrdu/JPukd+fAZI92bSJOXRVNWhr+3iHGWBFxwK/hamRCG/rN25wHbgY2qryOCfRntaCxr6vJ+wROhxVtBUKj6Y4XORERgv0+PW6vx0WRnWhzKPQa58jatSuI8lyYs29c+0qtq9ehUkTJgs1n/ire48Zg2ZWRZfI0MmPWCtgqgDtfE2cP38OixcvxJyV+ZePFIXzrkfyH0gGWKxcqCsro0qVqsjISEdcQiKGTZwMVfWffmESPeJxxg3zHddI5UGO+PoVF4+74uW7L1BXF849QpJrYuMScag4S1uViWpyco+sXb0MZ91O/vOWNokEMGlYn+71V7FiRWhpaaNiIgdTq7WGqW7hcMjA1Ais+HwDD8c6S+VZEgpFRBgUnBgBu7sHcWtYXoisrInicJD7LeaPSK6CdXvf345qeoaoqVoeV5Pf4SopmyCfmNYfWyc5HStnz0SdajXo8y2K0tLTQArM7XG/hPL6hSNMitOlArTzNRQeHk7Xj2jSph2q1qz522se8Dx7GkP696czImNjv8PW1hYq2tqw6pwfikUxcOnkMWjr6aL7gEHF6b3YvyfWPgHt6+fPwv9lMNTUhHGPUBg2sC/i4ksXaJ86dhSb1jv+85a2q+tROK5eBdL4eeWq1WjfvgMO7NuHGxcuo2+Fhphf92dYn1v0M+yMeAR5uR+KfSB/G8CjeLD12o0DPWbTQMqQMUCSRDfSoZ1kSPKj/g93orKuAaop68Az/i1uvAySuUz85Fg9dw5eBfhj7BhrugGvIPIP8AdTSwMrt26HhpZokUEK0P5FqyNGDMfb4GC651yh7zAK2L56BZYudcD06XmdQ8hl3/ETx2DevBU69+mLA86boKGhib4jRkJf0hKR+cH0u9Y4YenylRhlLXwtC1J75HtcQrGWtpYKE1Xl5NN+FvAEE8aO+KctbT+/xxg/zhrE2u7arTvdGEJZWZm2up8GBmDUiBFQZwE7mgyDuV41ENDeHn4f7yYdEBVP5TZ+mtcujDbpiPbVGsnlMpKTmgZOUirf/b1Li8GOkLuYVaM9pr85iyvP5G9pE8FIxNdAK0uYm5vBouWfgQpkzOevX/DgwT1Mnjc/Lw9ERFKA9i8KS0hIoGtH9Bg4BPXM8qI/MtPScfbIIdSuVRMeHlcLqXf27JmIjo5GeHgElJQYSEpKooFbXUCKKpfHQ0J8HH0JKExp1AwWF2s2OGPwsBFCH+uIwX3xPbZ40JafTxuI+x6NLu2tEBJCUnol9/ULrYxSNHDHju3Y6uxMS7Rs+QpMm1a4vk1WVhbdW/Spnz8qs9VQV9cI5YyMsKhVySaKCFYhRVva7xMiJS5HK+wxFQXa5LkiyTU7m4/GcN/9WOt2HA3M+LfdE3Y9ccdlZWRg/nhrfAsLQ7duPUAykGliMPD5yydERUfTF4vTFi4WawkFaP+mtmPHXOGycycqVTNGo6ZNQeoHxHyLxJkz52Bl9WdcNonD/fDhA5SUlHDnjjeYKuqwaN2W72GQz+KLZ07h/RNvWFYvuvbH7U9J0K1cE3sOHBW6iw2blYvRwwYiNiG5+OgROfq0KR4H5g1q/7PukT17dmPTxg35X2irMcXGRuCP9f79e/j08SPWODnh7AB7mFYQvYORWEgg6iQKsPXahdcJYfAbs1XU2WKN52Zkgp2Q/MelbQEzC+91WNaoL7YF34J51/ZYuX2HWOtIYxKJQPsUHAzXnS5IjCfddxh07HifYUNh0rQZWnfqLPYyCtDmo7qDBw9gzRonKDGZMNDXx4ULF1FbiNtocrFw6YoHnHfsFXggx44cxOZ1q2Hf5T+BVicxRl0eRsCiXWfsOSh81bIrly7AcflSaOqWg6vH3SIfCnla2kwlwKROjX/S0iZ3E43NGyElJYWOSvoaEgZV1aJL7ZKiU+3bt8GxrvOEqlsi9q9fwonTbu8CuZB8NHqLXAoiEP2xYr6Dyv0zXpuk/Lf0WguHRn3g8s4LZp3awnHnbgl3KPl0krZeUMCKfGMSTJH0a1MB2pKfyw8OBLQnTZqAD6ExRXLdunEtzh4/iFHNKsNQq/APOJvNg2dwPGo0bo09h46JJB3pEblpnSPMW7SG087DRc5VJz7tcppCuWlEEoLPYNLgt2GdmvjyJQRMZuFOPZLyLs3zs7OzsXjRQnh4XKEbNu/auRtdunYtVuSYmBi0atUc5/svRUOD6sWOL6kBFz/6wuW5B3xHb5GbCLlR30Gx2HzWo9D5/lbMqt8Fz+NCkGxqBKddJQ/aslCMArSlqNUXL15gqs0U3Pd/USRXchN+YI8L3A7uQn1DTXSoY0BbKt6fEhCbzkLLbgOw0mkDVIqxyH5f5KTrIaxf44iVW/eheesORcpAKhZW1tOAplrRBWukoR6mEgWTOjXp2iMqKirSYFkmeLx58wZjRo+krWwLS0scO3YCWkJEChDQbmNpgTP9lvxIwCmNG+ZSPHQ4vRg+I9ZDXVn4Rh2S7EUwaANnIgOhwVRFTyMTzMt9DMe9e8Bkyv75lmQ/4sxVgLY4WitizsyZMzB4+ChYtG5XLOeDe3dil8uv/kAGGpmb4fRFT5Fv49PSUmE9Ygg+fniPm88+gy0g5fdXoSrpqkNXQ/Y/tjzQroH37z8JvKQtVlllbAD5JK5RPb9gEIOB8PBIoT+LCWjbD52Ete3G0R3PSzM1OTYTU817YUazvnIRkxWXCJ6AsL+XyRHwT/qKaf91REe/7bB3dkar9u3lIpc8F1GAtpS1TSIAPD088C5EuPZa5F455NMHsDgc1K9vAiXiABaDSFRKO4umdA/Ua/7vQAnhZTTSVYeeHECbtKM0qV0db9++g7a25IW0xFCP3Kfs3bsXGzfkFRxbvGQJZs2aI7QMDx48wN1NrnRJ1tJO5q4zMKJBeyyzEr67kiR7Il+pdIf239LEvb8H43XKNyRzsrHKtB+svNdj0aZN6NJXPi8TSfYk6lwFaIuqsWLGBwcHo1evnngV/AmqQmYxSkOEG1evYMGcmXQN/WuB74ViaaSjDj1N2VvaDCUKprVrICjoDfR+6b0plJBlcNC5s2exfLkDHZM9btx4rHZ0omOyhSFioXfp0glt1WpgQcuf9SaEmSvvMQxQMHOdhZEN28PBUviwVEnkJFidG/qz7ngKOwtHv/riQvQLNNA1wgazIaikpotmXo6w3+yMzn1KV8cfSfZeMFcB2tLQ4i88yI+uZs3q6NV3AJxd5HMRQtY0rV2NbmnE4XJx1f+DULuSN2i/fBmE8lIopCXU5kpoEIm3dlhqj0uX3GlXkPPWbejfn3RoF56qG1fF+EZdYVfKQZsAKOkV+TouVH6WNkXRzSJyuCwEJIbCPsgdGmrquGw1HeVVfrqShvntw/BVi+kSyn8bKUBbBifq5OSI5y9fYvuu/ahoVEkGKxRmScqxLpgzA6amZggMDMBVf+EsbUMdNZTXlH1NbRLCaFqnOp4/fwkDAwOZ66MkF9i8eRN279pJi+CwbDlsbaeLLA4B7QmNupZ6S5tsLIOVhQX3DmNjh4nQVyfdkGRHJHXeO+wlQsO+4Ex4AJrqV0c93UoYV90Kyr+ljHvFvkPqGAt0UljaUj+QGxdOIvChFyIiBNc4F3ZRBlVKOnoSMWrVqkHHWHfoJPs2URPGDEfw29fo3qM33n38gk0HTwmlMxWmEmoaaMu8rk4BaD99+hyGkqb4C7WzkhkUFRUFK8u8/oQ6OjoIfifcF8+v0pJnp16tWljVegz61inZXofCaDElNwMdz9jjWO8FaFLxP2GmiDSG6INDcTHlhgsd4xwcH47yyupY3bAfGuhUoqNF+NHj+M/wbsDAzGXLhL4AFkmwEhyssLRlpPwrVy7D6849bN6WZ3XJikjJ06UL52GT807cu+uN5p16oVEzYX/sFOpWlEODXwaFRnVq4G8G7czMDPTq2QNhYWH0Zev9Bw9RsaKRyMdOkjEsGprh+jAnqDFLf3hkam4m2p1eiOO97dDUSPJyqIQfm8sBKUh98NVtnHl/H7oqGlBlKKOHkQmm1+4INUbxsf6+8Z+w5IMHLgc+pbOV/yZSgLaMTpPE6NraTsO8RUvRq08/maxCig3ZL5yLmKhvGDt+Mk64Hob1HHvUbSh8zYW6FXVkb4kwgEZ1qiMw8FmxJStloigZMyXNKohL7MTxYzRArFq1GhMnCVdT+XfRvL1uY+mcBbgzfL2wvbplvLui2edwWJh75wBsm/ZG04pFNy/+nROLy4Zf1HtEpMXTBdpIrsL5D48QlhaLGpoGaGtQh66IOKBKE9TWMhRpn77xnzEv6Byuvwr66xK6FKAt0qMg2uBJkybixcsX8A18JZPO51mZGWjZpCFmzbVDJaPKWL50ETYdOo16JuZCC6qvqYoKOsKUfRWaJZ+BFBrVrYHAwKdiWZ+SrCyPuZGREejdqydIHRpS7uCi+yWxffekEmBw4Av4DF8vD9GlssaZ9/foUNMxDTvmvWiIP4yiaGOAJHHFZqXg2pcA2h9N0s0LSmhyKQrf0uORnpsNVSYT02q2Q7PyNeh+EOVUNFBNQ/zuTwS0578+h+svg2i3yt9ECtCW8Wk2bmyGdh07Y+3GrUKHfQkjUnJSEtq2aowu3Xqg/8AhIMk1Dovt4Hz0nEigTSqQ1a2kJ8ySYo8hP1SzvxS0CzrREOWQBq0fJew4P3TIYIS9/QCfEXkFpsoCEUBe/dgNuTwObS0TsFZRYkJDWQ1aKmog1S0JcBNSZTBhoKqNejpGWFq/J/RVtQQ2NpBk73mgfQHXX71SuEckUSSfuX/lReSv+3z27Clsp9ti36HjaGgqebNfwpskGCyxmwvv2zewfvN2OjU8LTUVq1YsxaaDp1GngalIx1TbUBtMGfr9CkA7ICAQRnKIphFp8xIOnjhxPO74+NBcVq92wqTJ4rlFCsQgoB3y5gPujiw7oF3g1ojKSKQL/6sylWGgroM65SvTBa9CU2MxwnMjvcX5tbtglLGwdy7iH050dgqWBl/Glgc3FaAtvhr5zjv3xm0AACAASURBVPzrQZv45HbscMH5Cxfgfd9P4hZI5NPx4T0f2M2diXl2S1Cpcl6bqvT0dFxwd8cCx83Q1RPts5JkRZLsSNlRnnvE3z8QlSrJPgRSdvsozPnChfNY5rAUOTk5GDvWmk6iKa6CX3GyDR0yCDXTVLHcanRxQ8vM339IisRwD/IS4sGvw9I/wvNksREeRWFl8BXY3bkILo8riyVKjKfCPSIn1S9caIfbXrfheesuDA2L7h8nUCQK+PTxHUYOGYCp02ehTt16P4aGhXzFl2/fMXnukh+lIIXdmpaKEiqX06IbOciGCkA7AJUqFe6FKJv1ZM+VhPe1aW1JX5RVq1YN167fgL6+ZDHoJLyNWNrOtQejvEbR9dZlv0PprdD9wnJ8z0iiGQZ2sJfYcBFWspWvL2PAwXUl0uRXWBnFGacAbXG0JuacjRs34JHvY7js3ofKVY1F4sJhs3HzmgeWLJwHm2kzYda4SaH5G9asQvN2XTBl3lKR+BYMJhX/dNRlE2JGrp7M6laHn58/qlSpIpZ8pW2Svf0SnHbLi4dfv34DxlqPk1hEUkfb2noMLlrNAbEU/xYydyUJRgxYm3bG7IqWApsYSHu/BLTjGhhg7R7B9e2lvaY8+ClAWx5azl+DxOBu27YVZ8+dRd369XH42JliV8/77VLo2t4CyUnJWOKwEgYVKvwxb/b0Keg7Yjxs5tkXy5PfAGUmA/9VkE1GG9mDWb3qePz4CapWrSqWfKVp0swZ03H1qict0qFDR9CjZ0+piHft2lXY2S1AwIi8tmR/A2VzctHqxDz6cpJExOil5oLKZcllayteX4ZP2ld4Bj6TeQKZXDaUv4gCtOWp7fy1iJX28uULcHkU7JYsQwXDivjvv9p0O6ICSkpMwLfISNy8cRUnjh5Crf9qo2//QYVcIr+KTkC7/8gJtHtELKIAYwNNaKgIV9hIlDXYHB5taT958gTGxqJ9YYiyjjzGenp6YNFCO5AGB7Vq1cKJk26oUUM6LcFOnDiO5csc8Hri32MZ9nFfjYi0OOioqsNz8Cro5VDgpqTL46hAQPtmwjvcevVabi4ZeWxMAdry0DKfNdLS0nD+/Dns378P6RkZ6NGzN/TKlaNjVEmY66cP7+H32Je2UIivs3PX7kX6qsnY+as2wapjN7F3RDzaVcppQEtNem6SXA4XMSlZ6NXKBKTk6H//ST/VWewNiziRXDhOnDAejx/70mnqR12PwcKCf8dtEVnTwwloL3Owx5tJ+8WZXurmkOepr/tqhKfF0V3bSQEspRw22LEJcpGVuEduJb3HjZev5bKevBZRgLa8NC1gHdLBncPhgM1mwdPTE/7+/nQ8tyh95Mhl2NPnL3Ds2kOR5vETSU9dBUZ6GhJrhX75gMLXhAxwuRQGtDbFzZs30KiR8NmaEgshRQbkxdm8WRMkJOQBzmM/8tUg3VZgBLRXODggaNLfYWmffncfW5+6g83jwq7lEIxv1AW8nFywYuKkeDKCWS0PugSv5I+48TJILuvJaxEFaMtL0zJc59Chg9i+azdO3fCVyioVtFShry1+CCBx+2SzOYhJyc7LkKMo9Lcyhbu7OywsLKQio7yZrFixDMeP5fXsNDdvTEeLSJtOHD+O+4fOY1vnqdJmXSL89r68hv2vbqC8miY2dJiE1lVN5A7at5M/4qYCtKV6/n99nLZUtSWA2YgRw/Hm3Qecuikd0CbLlNdUgSGd3i5iGCBFISo1C5m5hWNj+1ua4OjRo+jevbs8VCLVNV68eI4Z020RHR1Nu0P27N0nkxoqxNLWvhOGzjUKRwZJdTNyYpaYnYrZPgfwNiEMJhWq42y/vAtyeVraR0MeYX+Er8LSlvKZK0BbCgodPnwY3rz/ALebj6XA7ScLDRUmKumqQUWIrivEHZKQkYPUbPYf4WoE9vtZmsDZeQtGjhwlVRllzYwU5TI1aUAn0BA/dkDgU2hrSz/KhkQWOTtvhmWIKhpLoVqerPVSHP+wlO/of9mJHjaiQQcss8rrbCNP0P6QFoMJL47j2ktS++fvIYV75C84S2JpxySkwOX4RanvhtQmqVxek240rKasBOUfPSwp5LB54JBKQRSFmNR8VwgfCegLKUsTLF5kh7lz50tdRlkxzM3NQZ06tX98a4wcNRqbN2+RyXKk483AAf1g/19vNPsLQPvCx4dY43eW1FzA618uVnk5OWDFxMtEh78zzeGx0eGBM26+fkMnQf0tpADtv+AkCWj3tbaFaZMWMt2NugoTqr+AdhaLmwfaQlBfi4awHjsGmzZtLnI0yTQ8eGA/SHSNmbk5xowZCzU12XfX+V0ocvG4f99ebNiQV21v6tRpWL5ipRA7FW8I2W9j80Y40mNu2QdtEpd/bAb9spvYqAvmtxzyQym87BywvssHtMmTaeGzFl7vP9CX/X8LKUC7jJ9kenoaRo8ejTX7z4K0YyqVRFG0pT1s6BDs2CG4KQRxEWzatBH79+4Fl+KByVQCU4mJNyXQxf327VuYamMDiuJh0KDB2O6yQ6aFh0hZV7NGJnQHmLJuaU+9vQv+0e/pMqxXB61CzXI/681ws3PAlhNok6/Dll5r4fHyOVRUZd/AWl6/PQVoy0vTMlrn7t07mDV7Ntxu+5faovnE4upj0bBY0A4JCUGH9m1x68ga1K5eGQyGElbsOIHL3v6YPMUGdnYL6YqGsiYSmjhtqg29DCm36h/wVOYNiUlpXVOThjjW2w7NK0neAUbWOhLEPzknAxNubENo6nc0NKiOvd1mwOCXOiq8XFZeyJ+c0vQtb6/FhpPHYda8eUmpROrrKkBb6iqVL8PTp92waNEiXA0QvR+hPCXta9EgH7R3CVw2NCQE7dq1wa2ja1GnekFhKQb2ul3DntPXcfzESbRt206mYpOMxzlzZoHHzftqOep6HF27dpXpmoQ5Ae1m5uY42ms+zA1ryXw9WS1w6ZMf1vufQy6HBdsmfTCzWd9CS1EcDlhxCaBy2bIS4Qdf2j1yey3G283DiMlTZL6evBZQgLa8NC2jdfJAezGuBgjXgV1GYhTNlrhHiKU9bGiR7hEC2h06tMfNw460pf0rrd17Fieu3EFIaLhUm0n8ukZKSgrmzpmFe/fu0UlK+/YfQO/efeSiMuIeGdWxF7Z2skFlbX25rCntRTJY2bB/6IqHkW9RU88IVwev4vv1x05IBjc9Q9rL8+XXymsteowYhrkrV8llPXksogBteWhZhmsQ0F68xB6eT4JluIqkrCn0adUAw2nQFmxpk+xQmymTscS6G8wb1Cy0KPFPdhpnj1p1TXDK7bTEmZ+/74hcPK5d4wSSqESI1MaeJGafR3G0RZpYLB80GStbj4ayUtlsj+X+yQ+rH5PKhxQmNeqO+S0H8VUFOyEJ3PRMcdQk8hxiabft1xtLi7kAF5lxCU5QgHYJKl8aS7u5ueH4mXPYuD+vTGjpJAq9W9RH06aNsWnTFpiZmf2oqfJ7uv4Ol+245XkBl/cs/2MrL9+FwNZxP3bv3ot27dtLbasEsGfOnI5rV6/SPA8fIUlAPaTGXxhGnz59xOGZq7HMamSpvZsoah9Eh61OzkMOl0U3HXg3Oe/lx49YCUngyQm0iaXdpndPLNvy91ROVIC2ML+oUjyGWNqRKbno1n9oKZYSGNyuCZTAhrqaGu0vzsll0Uk4Gppa2LZtG9rTIMzAkSOHsX3bVgRf3wdl5T8tzr1u18ErVwN2doukYm2TiBWHpfY4cybPeredPgNLltjLNFKE30GtXr0KGY8/YbnVyFJ9jvyEI5E+469vRVB8KN2V5mx/e9TXryZwH/JyjxCfNrmIbNOnBxy2bC1zehUksAK0y/hRurq6QrlCDZg2lW2MtqRq2uQwD4ZKqdhmb4Ow6Fi43/JFUmpGfudu4PGLYER+T0Dz5s1BfNtDu1tg0eSf8b0F67/+EIZpK3bC/3mQVOK3161biwP799HsmzZtRof2lUQlwpYtmqFj+fq0pV3W6EHkGyx7eBxprCz0qtUcq9qMgaaK4No18nOPUGhF3CN9e8Fhs8LSltZzpUhjl0CTxEpcu24tajZpA7Nmsm+WKoGoiAoLxe3DTthqP4VvidnPYdFISk2nw/yu3vPHq3chuHpgNe0f/ZVYbA4WbTqCxFwmLl68JLZItEtkxnSQxgOE9PTKwcPzaokANlm/unFVDG/QvsxZ2hnsLIzy3EyXXy2vpgW3fotRTcewyHORl6VNnh3iHmnXpzeWyiiTVewHUIKJCktbAuWV9NTc3FyMtR6LPmOmwrx56a6eR2K1d9iNgYvDFKirShZr7bj7NNw87yI8IkosFwmLxYKT42q6fjVxiRhVqoQ7d+7RtUVKgsgLpEb1ahjRoB2WWZWd2iwpuRlo65bnpiJleG8NW4sq2sX3yWQnpYCbKvtGCOR13+KWIzr274ulm2RTfqAknhcFaJeE1qW0ZnZ2Fu0Lnrl8Q6kHbR6Xiyn9WuOA40w0biBZIwSKR8Gs3wzs2XtA5FZf79+/w7lz53D0yGH6FBo3aYJ169bT5VZLkoilPax+O6xoXTZAOz4rBXN8DiA4MYz+FupbuxXWt58oVE1Iuv7I9wS5JNhYea2DVd+ecFCAttQeb4V7RAJVZmZmwszMFCu3Hyr1oE1xuejf2hRH1s1GRwtJAZIB0z626Nq1Ow4cPCS0Bs+cdsOuXTvx7ds3es6sWbMxZqx1qehbSUB7ZIMOcMivhif0pkpgIJ2e/iUAjo/d6AYHXWs0xZp21tAqwo/9u5g54d8AIevWiLtF8jJZ+OIsYFlXYWmLq0Q+8xSgLYEyMzMz0KBBA6zZ7Vr6QZvHxYDWjWA9oBNWzRotwa7zpg6asQbGdU1x8GCexSyISKGguLhYEAt74oQJ9DBVVVU4Oq2hi1GVFqpVozrtzx5Sr01pEYmvHMSVE5kei77ueWVXTfSNcXbAUpFlzgmPAmRceY+8XPwTQ3CxcooCtEU+IcETFKAtgTLLEmiT0pgzR/bF6mn90alVIwl2nTc1NikN64750Jb277HeBKhv3LiO8PBwpOf34iSJO4RIK7dVqx0xfnwegJcWql/rP5zrb09nEpZWIparT9hLLLh3kC7V28G4EfZ0nQFxypTJw9Imekzj5MBJIxj2iotIqT1WCtCWQJXEPWJi0hCOO4+UekubbPP2lfOopxyDPh0kL95DokxGO+ynAZj01rxPp57nKZPEf0dHRYHo51caaz0OEyZMRL169STQumymmtSug0ejt4DJUJLNAlLg6hf1Dnb3DiOTnYOqOobY1nEyGlYQr0+mPCxtessMBhYrP8fSrVtBoq3+BlJcRJbhUySF81tZtMTCtdth3lx6XcFlpZL7tzyxd+NyvL0qeeNaBgXU7ZFXiU8QaWhqwrhaNdoS9/K+I1akiax08Svf+Ph4dLC0hP/Y7X90/ZHH+sKs8SUlBoMur/lx0Ti7WT/YNO4lzFS+Y+QF2uQ9PovtC4ft26Ci8neUZ1WAttiPXclPJCF/o0aPQv9x08uEpX3/pie2OS3BFy/hLw8FaZlY0w165DXAJb5LVRU1NG3WFB3ad/zR1rJq1aoYPPjPBJ2SP7nCEri7X8SKxfbwG1M6s/a8wl5g8b0j4IGia7bPaz4IUxpLluYvL/cI0fSIiPNY5uKCKsbifRWUtudFAdql7UREkId87q1bt45OrmnUrKUIM0tmaFJCHNYvmYWbO+bRzQUkIYdtJxCfzcS69Rto2CbuEhJnXa5cOUnYyn0uudhbvswBp06dRAP9aljXbjzqlKsicj9lWQke+P0TZvnsQw47lw7tW245EiMaSl73RV6WNnk2OgXswvIdLmjcsnQnoAl7hgrQFlZTpXQc+bFnqZZDi9YdSqmEhcVynG+L8A8v4H9+m0TyNuozHd179MLeffsl4iOvyXTURWQEyIUol8eD6/HjcL/oDjCYyFYzRDalTIuixmRAKysKakwlrGtnjeq6FWCoWQ6VtMrLS9Qf6wQnhmO45yaQCjAUxcCUxt0wt/lAqcjBiooFj8WSCq+imJAXTSufdVi5cyesOnWS+XryWEAB2vLQsgzXIAWjLnjcwIqtefUzSjsd37sN3pdO4eXlnWJXs7t6NxCLNx/B8ZNu+YWmSu+uAwMDcPv2bbA5HHjfe4APnz6Bq1MTOfrN6HR+SlkTXAMzQFkjfxMMMGMeATwO1KhcqEXegHmFmrCq+h8qapTDJPPuYutNFC15h73AkofHwOGy6UoCdq2GYHwj6TWDYCengpuSJopIYo9t6b0WK3buQOvOXcTmUZomKkC7NJ2GGLKUiSYIv+wrNycHQzs0xZRh3bB02nCRd0y6VC3e4opr9wIQGhYh8nxZTyBAzGaz0b9/PyTExSEuLQuJqeng6jcEq+5oOguQUlL5BaSLkIiiwGCn05d/aq+3Q52Tipo62pjZtB8G129Dh93JgoLiQ2BzaydyOCy6K5i9xTCMMZWulUqx2cj99l0W4v/Bs6XXGqzYtVMB2lLStiLkT0JFnjt3FgsXLoTHk3cScpL99PjvMTCsVBmLbEahqjbgvHgSdLULLEzh1j96wQsX7r2El5ePXPpFCiMVieIJCnqFjPQMTJ48ERwtQ3A09cHRNECq2QjwNPQADgWk5wLZ7ML+6hzhu4Qz2JlQjrgJpaxYGOR8wcRG3dDB2AQtK9cXRszix1AUXsWFwvqGM/06IC6RiWZdsUBAM4PiGRY1gkJOaF5mqiyJuEeIpb1SYWlLTc0K0JZQlSEhXzFx4iRsd8urVldaiSTXLJw8ErXrNwSXw4X3tUs4vW0RLMzqCikyAxsPnIdXwHvsP3CgxGuFEIva398f1655IikxGdeueyDNZAi46npg6/8HVjkhIhUIomTk5u0/iwVkCwvgSmB+fwS1hOdQTvuCKWYdMLBua5gZFu72I6RifwzzDnuJ5Y+OI5u2sCksthgKa1PZuRRyQiNFFVGs8Qr3iFhqEzhJAdoS6pP8uEaOHI7ohFTsOH5RQm6STc/OTIe6hhaUmEp/NNumSBq7lSnyckcYIH1ztbVU8frKnmIjJbhcHtYfOIdTHvfw4KEvatSoUWIx10TfcbGx6Ny5I1hsFnKzc/C9+3pwNcuDR/zSBRk+oqqS+CEIiMdngJHFASWM54PHBnhcaPgvQgV1dYw0aQOHVsNFloFB8fAhKQpjrm8Bi8sBj+JiUathGNeoi8xcMEQ98gLtVt5rsXwncY90FvVUSuV4hU+7VB6LaELNnTsbPvce4tRN3x+1qmMiwxEVEYamFm3AVM6LTPidHvncoBMOtHX0ULuBCd1FpijKTE/Dh6AX0DMwRK269QvxvX35PFx3bUQuiw2DipUwatJ06JWvgBp16sLQqDIYFIVDyybS9bRJqOKe09fw9nMEurdphmE9+dfb+B6fjC/hMRhvvxUNGzTE5SseJVY+lbg/oqKiYLdgAZLUKoGnpoPMmm2RXVXy7M4/dE7AOzMXyGLn/VMsMcCMugtm8gd01mZjepOeaG9sVuwsMoC8hF7EfsHEm9vp8ZoqahjdoAPmtJBOlEhRQsgDtPPcI2uwcucuBWgL9UQUP0hhaRevo2JHhIWFoUvXLphp74SOPfshLTkJK+fZ4OuHYLTv3gcVDCtjxKRp0NTW/dFUgADnjjUOqGtsBLfTZ+jON+oa2li8Zstv0QkMZGWk4vCOLUiO/47n/r6oULESGpg3x5I1zrRFqKSkhOFdWmLE0CFo0aIl3brL97EvLXd908aoYlwTKmpq0MyMhPPiyX80NvgTtBjYfPg8XgR/RdCHUGzdth1NmjYrkQYFpI7JooV28PV7jJi4JKQ0HYecyubgqsmp9jZxnwgL3hQXaqFXoRZ7H+MaWsHecniRlfeyObm48OER9r26Qaemm1aogYlm3dC9ZrNinzlpDJAHaBM5m3k5YfUuAtqyc/VIQx/C8lBY2sJqqpSPq169GvoOs8bk+Q5Yv3gmnvreg5eXN6KjozB+/Hg6+aReIzNsOXiGBuVXgX5YOWcyPn/+QhdRmjNnNt3FhaGkggWrN6JD196022LpzIkIfvWUrsjm4eEBMzNzPHr0EHPnzgEXTNit2oS9W5xgXLki3N0vgbTNSkxMwvoF4zCgqyVIM9656/YjPikNA7pYwnkJAW0+RLwDDGD3qWvY53aNbg67aNESTLOdXiIXjsQCnTVzBm7cvIFchioSrWaBVaE+UFKd0kndjEhhQuTI6fKg8Wge9DVU0LZKQxzsOSuvoN4vLhfiEul0bjkSc1Jpa7u+flW49V0EVab8Ur3lAdpEG81p0N6tsLSlhGEKS1tKiiT1KywsWqFd9/54cvcGtmxxxoABA35wX7FiOYhFHhj4FANGTaBdFK/87uLmzVt0qVJC5LKQjPv+PRY3bt2GjpYGWrZsiVq1amHt2nWFJCU/9ClTJuPlq1eobmyMo0ddMW/ubCjlJGHJtOGoVfW3anUUwFRmFirak5GVA99nwbQPduOBc0hOz0abNm2hrqGOPXv2lYjfOigoCN++RWLaDALSdZBTuQnS60qWsi2lIwZ9EZCcDWSS2OnCbdh+X4NBcaH85Sy00z9Am5dBp5/bNulNN9wlM7cEXERsVgr9322qNsShnnPppB95kjxA+6elrQBtaZ2tArSlpEnSQmvVqpU4eeokTp44hU58sr+ysjLx9OkzpKamYMbMGVi3dh3fEqXEJeDldRuamlpo0aIFtLW1+UpJ4pFfvw5CtWrGiIyIwNFdG7DRbgJUVfn70ClyAcnlYubqPVBVVUFGVjZ8n71Fu3YdMHLkKOjo6tCgXfASkZJqhGZjazsNQa9eIjI+EYktp4NlUAc81aL9/EIzl+JARhYbVGoOkFt8tIlSagh0g3dAlQkstRkKl2OXweWRk8gjXVVNXOi/FJW09eX+kpQXaLfIj9Nuo3CPSOUpVIC2VNRY8kyePg3EeOsx8HZdBz2dvNhrisegP8kZSgwMsl2ND2FRUGYq064afQN9HDt2HI0aCXdhJqsd5qWXR6JXz+5IzchCSrOJyKzVVlbLSZdvUhaQlh8yWBRnTg5UXm6CPpUC1fzKr2Tf5MuHkBIY4HC54FI8uA9wQJ3yVX74UpRl6A6SFWizKR7ds5Lsa9DDPYhmpWHlrh2w6qSIHpHGA6gAbWlosRTwCA0NxexZM/HmzWtoaKhCWUkJKelZYCopoVUrC1SrVo2ONrGxmYr69aWUDCLhvp89e4p7d+9h++ETYBnWQ2KrGcVfkkq4ptSnJ2QCLG7ePwKIQXGgmRAIvRgfMFnJ0FRXQ9vmpti9ajo9g7jFHLYfB49LQYnBQODbz4iMjoOWqgbsWw2lz5B4YzRUVNGqcn3oqUnn60Ni0GYA8TnpeJEcQd+BkDsR8uJx+eiDdE4O6puZoVqd2qhr2hD9ho+iL8z/BlJcRP4Np1hK9kAKIn398vVH2CERi1jZJiamqFixYimRMk8MkknqvHULojIYSGw1FaxyNYiwpUpGoYVh84DETIBvdiUFw4/7oJbxFeTykZS0ZaioYvGEgbAZ3v2PJUjt8XdfIxGbkExbqiQFf7fbNUREx0OdyYSJQQ1oq6rngX0+4DeuWIvub2mgkRedRK9B/ot8ZVF5ndopPvHr2aGR+W4a4llngGLku23oiQxweByEZybievRrfEr7DiUGkYh+qvJerkoMpPBy8DEtFhyKC30DA4yeNh1GVcmXAlCjdh1UrFxZaDWWlYEK0C4rJ6WQUyoaIN1s9u/fB5ddu5HUei6yjCRvfSYVwaTBJDw5L0Enn8hlZIXPB6Ce9pmuOU4pqSKq6RYwYx5AN8ITfawaYs/qmVBV4X8HwU8k8gX14Pk7LNp4BDm5ObQfnLha6H8DYLE5YLM5ecWwfsJrHpjnN/IlY0kTC7A4P8WlcZpBW/oqKsr0P0rKTBrsGfRgwp9HR8GoMJno2b4Fls8eg0UbDqFa8w4YPG6cNDRYJngoQLtMHJNCSGlogLhuJowfh5gsCsnNxiHHyFwabEsPD+LDiCUWNxtqGWHQiveDVuJTGjBZ6kZIrDsFHDVDWl7lCC9ofbuOQR2bYfOiSXSkkCSkpMQAm8PDo2fBCHz9EekZWfSLgi5qVXDr+SuK5wMxWZMOhKFIIwsVGBrooW0zE5jWrU6HehbXIqxutymwsVuIwdYK0Jbk/ESZq/Bpi6ItxVixNfA6KAi2tlMRVLUv2HrGYOtWFZtXqZ7I4UHv5TloRQeAyU6hQTOzvBlSq/YFRz0PsAuIGRsAzS9u6NysHs5uty/V2+InHLHMCWhPWWCnAG05np4CtOWo7H9xKVKBb8mSxbhy5TJSzYYhvX6fv1cNFAWt0IfQf3GUdifwlFSRWG86crQFF5JS/uYD9fDrGNG5KVyWTYNyfkRJWVCS9SJnBAR9xJQFxNK2LgsiS0VGhXtEKmpUMCmNGiCAPXv2THh5+yDNdBDSGvQrjWJKRSbVxC9QS/yMcq/P0W4JQkkmk5GlWXxIpXKEN6qm3oXL4ono0a6ZjKp0S2WbhZh0m7gM4VFxCtCWvmqL5KiwtOWs8H9lOXIR1rtXDwSFfkdKkzHIriKfehry1y8FAtgV/PeAmZ1CL8/Sr43kpmPA0q0JxGYUGQ5YIK9y3FOYpN3E7cMrUU6XfzKV/PcmeMVnbz5jpuNeZLE4sJ4xS2Fpy/FwFKAtR2X/K0ulp6djzOiRCPzyHf+zdxVgUWZd+J2g00QUC7tzrbW7O9bu7u7GFjux1m7X7ljXtfW310ZBJUR6GJj+n3OHQZCYYIAZ+O7z+/yr3Dj33I/3O9+557wntPowSLOljmfaVPXGU0ghiImE64WJcSJGFmmMsMq9E6a5fw0H5NpT1IVfriFHwDk8PLwCubI7meq2mVxrd5/Crr+usavOnsNGcKCdjqfFgXY6KjsrLEXp/MOHDcXZx+8RXG04FPamFR9urDMQiIPh+N9fsPO5WOgqLQAAIABJREFUCwrto/y/yJItEF62S+IlKDzju0h7kQXih/G7gXKyf7F9/giUKVbQWOIadZ7QiCiMX7QVLTr2wuIlizjQNqp2tU/GgbZ2HXE9dNQAuUQaNWqAN19+IKTGcEhyFtdxpJG6ETgmVwSB/YzWiY1/08RT61LsIJF4KrhemAJhVNBPd0jlfpA6509+IxQjHRCpg6uEB6unK1AmmxiXty+AnY06kcaU2kdff7QYNBc3/7mF5s2bcqCdzofDgXY6KzyzLkeAvcrTE2vXrkZY2c6ILNk6fbYqk6tTA4nAKZsNZX6wdYWRfuAplQxYc95Zwz7j40G2OtmFAvJ4AkSU7oDofBVZYozCxhlKy6R9yjyFDLa+95Dt2X7w5DEsvlnhmBf+TZdQ6qH2/RJwfwlLkICT1CC+yBeOrzfi/PpJqFSisNbKQtoXNm4PryOXoHQqhHHjxqNEiWIcaBtXvVpn40Bbq4q4DrpogBJnhg0dihfONRBZoqUuQ1LXhwCQgJqK9dJ/WwuBXPYQSMNg//Ea7D5eh5OlCm0aVEOeXNnigFKTOajOIoylOuGBha7dfvQfJHnKQpq9MKTZ3RHtWjFBan32Rzth9/kfJrfcJhuiCtVDZKlW6uruurawGCAsWmtvfuh/cHy/Exun9kHHJrW09k+vDvSiqtRhLJYvX4m27dpxoK1Kf+oFDrTT62nPxOsQlWzVKpXwwb0DogrVSfudkn+YCJriX+45WSHn8/WwFAXARi7CvhUTkDtnduTM5qhTmniESIzwyCjw+QK0GDQLYoUACit7iIq3gtLCBk6vT0EY6R8bzKeEf8t1UNjSZaGe/hUyyAm06YWTQmMseaGvkOvzXmybPRiNa1VMe73qsMKQ2evhGyTC5SvXGIUvZ2lzoK3DY8N1MSUNkMX6++818V7qhJDqI6C0tE0b8WQE0pQmHplofp41H85+J1BJ+QEl3d3gOW1w6tkCeTyMW7QF5/9+FLeeSmAJqVMB/Ph9LKtRmar2PUpdAV5Ls3uyCHN61MLoXq3TnW/7V9G+B4ej56TlGDluCuNfp8aBNgfa2p5h7ucmpoGjR49gwoTx+FF7AmLypBGXiETBqqQnHTanRPagk2ieMxieM4bC2cEYLw0e7j75D2duPMCxi+pam4xfKVthfG801zgnQC4dIpjSUj2eJwmD3dtdGN64MBaM62WctQ2YRaFQYtWuE/gcpsKOHbviZuBAmwNtAx4nbkhGaYB4oIcPH4rzFy7ga8c/dbuM00dYutzzCVePiGWoiz+ceKpzvvNCUftQnNky12iRFt9DwtBswGxEidUujOKF88Ev4AfCZXyEVh2IaLeq+uwi+b7RMnXyjZZm8XYfcoY/wKdrO7VVOdM2lcE/D/gRgqb9Z+Pw0eOoVOlnohQH2hxoG/xQcQMzRgMxMTHo3asH7j1+irCynSAqmpgj2iDJqJQX1WNMkqOa3g9yOPueRHXnLzixYZZRXAeBwWEYMH0N3n/+phaZx0PbRtXhOWUgVCoe2o9YgAeqIizDU8XXnU41xf1T5ZtQsZaIEhUsX25Fi2JKbJozHNmdUuma0fNAyAXm3mgAK0Ctac7Ozmjfvj0OHjyIJu3ao26TprEROVSJR/2OzZ4zB9wKFmac7pmpcdwjmek0s+heNAWJDx86gOACDRioaY1rS0lXVA1GLEvSuqZhwm/X4ST1Q5OCYnhOH2w0EDtw5m/MW7+fSVa7ahk0r1MVXVv8LH0WEi7CxKXbcD66OCJKtzfOaVOxYP9I7RmTfCEc/x2BvR6j0fT3Snrff6ZG2K2HLsDr2FX0Gz0mgTuHwJwubunFffvqVbx69hQqpYJ5fFRKJfIVLIhyVapBIOCrAT02KtLG2hod+/RFjtjCHPRBxX5kJtjOgXZqniZurMlogCJI9u3bizmzZ0NUtDFCGXDr21RAcLQ6jC+ZJgi8ixy+R5E/pxNu7F0CS6EFFKyIig5x0lrEOXLuFuau2wtnZwf8vXcprCwTh/It9zqGbccv42unn35dfXeZqD9VFvCNdQOlMJkw8B7yBfyF1+c2phu+HT7/D+au24fjd+7ByirpRB8Cb5lUCio0/bOpz4M4uV8/ew7PubPw3T+AWd1UVMHa2g4CgTqmnoVf8vlYsG49SlesBJVSE0Of+jNN9dkkMQEH2mmhVW7ODNOAl5cXlixaiB/l/oComB6uEh1C4fhBT+Dw4U/YCfno2aY+Bndpjj5TViAkLBILx/dB24bV03zfUdESNB0wCy/LjYQ0ZzGjrceTKqDyi0hxPp4sElavd2JV/xro36mR0dZObqKnrz+h27glqFqnNlp37oa8BfLDtUABVnYsVY2Z3Dy8efUCf+3dA3FUNANyKjgdHBQE77dvWJWc6nXqo1WXrsxKt7W1RYmy5WBhaZmqpY0xmANtY2iRm8NkNEDW1swZ03Hg6Al86+iVkDgpOSnplzgkZQtb+PUasn07DQs+HwM7NcGo3m3Rb4onGtYsjxKF3dCEXAbp0nio02MSfFS5EdRghvFWJCdwUBRAl5MpNH6EN5xfr8PqSX3RtUXaxcR/8Q/CoJnr8OlrQGypMRUKFyuGQsWKx7o71B4wK2srdO7TD65ulMKvsZANUwslPgX4+eHV48dqelseDw//vYVbly/B1t4elavXhKW1FdwKu6Nr3/6sRmVGeFQ40DbsfLlRJqwB8nF37dIZd16+h3/LlVBfTSXTGGCLgcjkY5YFgfeQzfsgREoVclrxsX/lVPSb6ole7Rpg+tCucZeQ5CERiWMwe80eTB7SGa65sqeBlnio22MyPiMngurPNP78X8IB8nMn0wimbP4djUFt6mDZpP5p4gf2/hKIUQs2we9HGBZt9oqThOxjqh354J9bOLxzByRSdXQNuTnUZc14qPBbVczzXA++lZDVm0xto2eJ/OO0tvfbt5g4uC8UMQpWLIL+/eT9h+DzhbF1LFO7mm7jOdDWTU9cLzPTAPkpy5QuiYDcVRFWsTdUfLX/MkHTwSXCi/oKu+eecBKqIMlXCUXkXxARJYaVlRXuHloRNx0lfjx9640ZK/9EzcqlMG9UT+RwTpsoi6MXb2PinjsIqm9ES1uzE3KRULZnSk0hh+P9CTi6YiLq/lbGqE/G2RsPMH/jAWR3dcO4OfN0smTpMvL96/9w4+K52OLAAjy5fx9tunVFmUqVUbdpM6PKSC+H88eO4sn9uwgO+M5cKkMmTUblmjVgY2tn3LWSmI0D7TRXMbdARmngzOnTGDpxOoLqTYbc4ZeakATYzMJO/tIRSjksn65AdsV3RJduhxiXsugoPgn/wDBMHtABDWtWYFujqfaduoHFWw5jx+KxqFW5tG5uGQMV8/eDl+iz5kLagDZFklC4Y0pNpYLVp2Nokuc7jq6ZauAufh3Gw/ajl7DM6yjKVqmM7oOGwNHJME5vulR8+uA+6HJ69/q1GD5tOtp0U2dQGrv9CAzEm+fPsWjqJOY+GTh2PNxLljD2Mgnm40A7TdXLTZ7RGvDy2gqP+fPwpeuehKIQYFOMcjKNPqwt3uyCi+g5lJZ2+FFrHGx8b8PB+zob8e7yjriRn799R/MBs3F++3y458+T5lseu2gr/noVbnz3iIzC/yKSDXWMvzF+0GPk/LwfHy5uhYXAcDcEYyqUK1Cq5RDmZlh7YL+aNTEVjVwaSpUK544exbWzp9Fj4GD0GjkyFTNqH0qukj2bN+LujevYfOw4eCm55LRPl2IPDWjP2bAHfJXhujdUDI4wylDNceN00oDX1q3w8FiAHzXHqelPqRFhErHdJdfoguvzcWQPugULAR/BFfsiqkh9WAV/RO4bC6FQKPDxGhXPVbeTV+/h2dtPmDG0KyySKIxLFKwBQSGMyY9aicJ5UapIAZ3kT6pTrW4T8U2QB9+N4R6hC0i6fCTA1oH976c8Klj+54WifB88PrFe77h4+jq59M9jPHzxjn2l/Fa3Duo2aYYC7u5664Us6uePHkIhl7Ovnu9+frh5+SLKV/kNRUqWRJ8Ro9LE9/6roJdO/oU18+fhwv+epel6pw4ewJblyzB3414OtPV+WrgBJq2B0NBQdOrYHh8+fIDcIQ/8my0HfkQCopSJkgiMske9hgWfh7BK/RHpXpftky+PQb6TwxAjkcL35u64vVftOBZ92jfCmD5tk9THaI+t+Or/Hf99/IKNc0eiSP48KOzmYqDu6CJyEt47VERYlX4GzkHDVOB9F7PLNBC3iibzRI8ZeaKvyP7faiwd3R292tXXYaQKkaIYeB2+iNfevrj39A3qNGuBoqVKo2ylSixeOqnGeMdjozkC/f1x4egRREdHM2CkiA8Ca/JpqxRKtOzcBdXq1mN3DgTYdg5pc6/wq5wymRRje/bE5w/vcf5/T3XQheFdTh08iEPbt2H8grWGT5KKkZylnQrlcUOT10BUVBRKlVRXruHz+exPcIFmiMjVBCwbJkl0UMLi3V64K95h/MJF8Jg6BV/bb4vryZdFIe/pkVDIFPC+/tPSrtRuNPp3aowxfdolmJU+0+es3Yez1+9jwoBO6NOhYaqPbMP+s9iw5wx8Ou40zJojyzqCOLVTpmbVVVCbe1MwvE0NzBzWDQp6AcQ1NVk4nw+8eOuLMR5bERZBceA85rqwEFpg8VZ1ZIgmuYWCPURh4Th/4jge3v6XvVD4LAWdxyJErKyt1ZE6Kh6UUIKnUqFWo0aYtHARlAqFVvIrXfekTz9JTAxkcjm61vkdAktLluRz8ckzfabQqy89Uwe9tsIumxvyumVM7VMOtPU6Mq6zLhogwO7R/Q88efI/1r1Hj54oUbIEJqw8hHD3XlAJbZKcxsr7GLL9+BcjJ0/Gpi27EVxzFKTOP+sk8pRyZL+/FTbfHuL95Z9gfuLKXXzw+YZJAzrFgox6+lfvfdFvmif2e05B8UK/XITqspFf+oSEizFp6VZcDnJCcLWh+s0glast6uAoo+Zr82Ri5HgyG0XzZscXv+9xL8nkhItfZU0dwmeBHC65UaJMOTg4OUGpJKs//mh1Ikz+woXRrH0HFi/Nvg6MEM6nnwJje6uAKHEUnty7i4jQMFw9cwo8axvkzJsX+YoVxYEVK9IUtMNCQtCtQT0MmTwP+Qunczm9WBVwoG3Qk8MNSkkD586excSJ4yEWi9G6dRusWLkSISGhqN+0GT4VGAGVbeJiv8JXG5Az+jNsLASQyWIQk+83/Kg5OtEyVJUm25O9eH9pO1Sxqet0Edlr0nIcXjMd+VxyxI159PI9Fm05gv0rJ8HW2ipVh/bG+xtmeP6JewoijOquO2EUYV5A7OUi+a2N3VRK2PicxvR+1VGiTBn20iIaVYWCIlA0l2Txamf+AshkQds7OiJPPjdY29gk6yIxttj6zEdfAgqFDId27sCLB48glUnh8+EDXArkR9shQ5HPvQjsHB1x+/x5HFiZtqB9/+ZNHNm9F+17DoGVddLGhz57M6QvB9qGaI0bk6wGPn78iAb11T7oEiVK4MpVdbQHtdWrPTFz8QpE114Xb7wSQt8LsP5yBS2aNWDVUK7fvA//Nsn7C3P/vQT5VQH49yAl7gBf/ILQdsQCHF07HUUL5o2b+3+vPuJ//33EwM5N9GIBpE/g0MgoBn5BoREYt3ALvH9EQZatEILqTNb99EUSIFgbg5/u0yXZUxYJ50ezsGXvHpSplF5ZoamUOZnhUokEIubCUTMsfvPxxZxRIxATE8184wILK0b/O2LxYuQrWizRmaY1aEeEhaF7wwao3awNGrbuolMMe1poigPttNBqFp2TLKJCBfPHWWtPnj5Hjhw/Ld+bN/9G/6HD8Tlvb6icijJLkC8OgM3b7ejZvj5y5MyFXXuPILD50hTrLjp8uIr8745iy8Kx+K2c+pd3w/5zCAoJw7xRPeK0/+jlB+w/dQ3LpgxMsuQY3bvdfvwfPvj6x45RUWY0wkXR2HfqOkLDIyGzd0F03oqIcm8AuYOrbidLDIUUa62lpJhuk6Xcy8LnPCo5fsaitWuYtWwOjc7Lz9cX92/9A5WKvj547Avh3atXuHLmNAR8IXK4uqBinXrMV04p7bVatoRrocIpvnzTErTphTJzxHB4v3uPacs3M1KrjGrnju7Bw3+uwNf3a6pF4KmSu35O9dTcBOaggfnz5mLHju1M1MVLlqJXr96JxG5Qvx7ufJFDWn4s+2WlcloDe7bEoLET0KlOTfgXbQdRce0ZdNaBr1Ds2WYc8JyCogVdsXH/Oazb/Rfesvht9S/U45cf0GeqJ+4e9oSjfeKKNnKFEr//MRE+eepB5pQPVE5MYUsvGeIKVftyKUZcbq9jpAmNCYhUh++l5S+1igd+6AsIfC8iv0UovI4dg0ve1PvsU/uMxapMrTty08jlOHf4CC6dOg5LS2IIpHATtXpFEeHw++LDeMrpkrp57z4oU70mVCp1Nqitgz1c8hfQy12TVqBNPvy/DuzH3s0b0Wf0DOTLXzi1qkrV+HNH9+LBzUv48iWW9z0Vs3GgnQrlmfvQ8+fPY+yYUZBIJAysCbSTateuXUXrgVMgKTUINi/Won3Tmhg+fSYGt22D7znKI+Q3qu+ovQliwuByaQY2z+yHprUqMQus2YBZaFanMsb368AmeP72M/pOWYG/9y2Hk0Pi9Oa1f57G8n9DEVItlTUlCaSoyPC3lFn6tO9KSw95NHjyaNi93AQnCzHy5HTGrvMX1Lwfxmix4XvRYjHEUSIoZHJGpcpeXxrOawpV5BG9qoCB88W/TuDE3r2QSMUUY6KOWBHwYe/kzHy+jPhJc7OpAlwLFkT3CZPhkCMbk5hFoxipGRu0Y6LFCA0OQZ+mTWDn5IReIyajgHvGXD7GVxFZ2ryYSBw7dizVmuNAO9UqNM8JyAc8csRwnDt3FpaWVti8ZSuaNGmS7GZc8+VFlBxwsuTj4pOnWOfhgQtHD+NL1716JYlY/XiPHPc2wmNIK3RvXZ+F9z198wmnN89maxOWEhe0vZ01pgzq/Is8PBRrMhDigr8jpNqQ1CmeijZoiT3XawG1kc/AmBfyEnzRN4aadqKPEIS9g0sORxQsUhRVa9eBPB6Hdewwxk3NAvXiKFQ1F5GxPeLdS6oXUiMyT8BHVHgEPrx5g7cvXyA8LBRCIXGKqzmwlUoVLK2sULxSJbjF+pTjPq7j7jzVfSrUrccAmrkRjIfLKapRA9qTFiw0OEInIiwUEkkM0z3FfN+8dAl1W7SHq1shlK5gpDJzej0MCTvTy/T47s3YsXkD3A1IhPp1aQ60U3EY5jxULpfBvbA6ZnXKlKkYRRVOUmirVq3CqtWejAVu3f6DmD58GD5VGgmJAfzUQnEI8l+ZwrIh2zWqiVrdJmDe6B7o1ExdcWbu2r3Yd+ZvfLz6M+1dI1qRxgMRU7iOztZ9oi3RRSOl4msjeEpRG7EmLPFJy6IgfL0TfBnxS6sLOziqIsFT0GUmD0K+2mYlTmklRYjEMuCxRJ3YNRgsM0uYx15aLKxakzSjIpZq9Xq2dvYoVro0qtWti3KVqsDR2QmUoML6sv+pXUxq9j715JpKNRFCAazt7Y1qJRvj+deAtrWNtcFfHzKJJDbenYeWXXujcLFSyO1KtLOm0b75eGOb53z87/Fj5MyZK9VCcaCdahWa5wT53fKyX2AXFxc8fKSOzdbWFi9ehC2bN7OLqMhSbSDOXwMyJ8Mu0oRhn5H7lie2zeyP5V5HULdaeUwZ1JHRdxIDXeX2I7B98QRULBnfF8lD0cYDEG0IaBOwRUmBH2Jt20zy5wTOkEVCKI2E5Yc9gCQc1ja2KFwwH2z4VJoLsLCyxJo9+8CPre5i0EJpNOhTaKga/E2saUB73sZ9Ble7U6cSmW578b97uHnmCK5du45s2dQuptQ0DrRToz0zHXvx4gUMGTyISb9+w0a0a6db7UQG2ls2M16Ku39fx7tXLxFZsi1kjvkgzl9dv+QN4ir58QY5725A14aVcPjcTdw+tBJ5cqkf6sEz10KhVGH7orHxkm94KNaU3CO19bO06XOfmAmp6LCejScVQeh3AzZiXwjD3mLAmDGwEpBVDOTMkxcNW7VSp4ubNGwApg7a8zfsM3EN6vngxHVXYcH4gZg1YwYGDdLt7kfbShxoa9NQJvz5iBHDcPbMGWTPnh07duxClaq6+f00oE08EeQ7jRZF4crpk9i/cw8U1k6Q5KmA0Er61ZkUiIPhem4Cs/pzOjvhzhF1HHd4ZDRqd58Iz6mD0LRO5bhTKN50MKLIp63j5Sdzg3wXaS/C+8s58yhCIugh7L+eRT5nAVZu3wELC0vkcTPsyyKjHyMOtDPmBHau8YCtJR/Hjh6Ho6OjUYTgQNsoajSfSagK97BhQ3D92jV06NgJa9fGT5pJeR/xQTt+T3IHTOjTG2HBwfDz/YTARgugtHaA3DanToqxiAhA9odbIQzzxcn10+CaOwcrhrD10Hk8eP4OXh5jICBCDvBQvOkgRBWopdtFpFQO3rcIqPSJdlBIwIv5DvtnK5E3jwvmr1yGMpWq6LQPU+7EgXb6n05EeCi2LJ2F1i1bYOVKT6MJwIG20VRpHhPduXMHQ4cORnhYmNFAW7Nzvy9fQCnDXp7LIXcugNDyPSDJXVJH1wEPdt434PzsAGqVc0dJdzf07dgEYxZsQsXSRTB7BBHyx4J24foI0cbWR9SpVL9R59hrHngqBaze7YFNxH+YMHkcSlWoiBJly5rHwWqRkgPt9D1GUWQY9m1aic7t27KLfmM2DrSNqU0zmOvihQsYMmQQc0fMX7AQ/fr111nq5CztXycI+fEDd29cw/rlq6C0zgb/Fkt1pjHlx4TD6b+/YPfxb+TO4YQIkRjRUim2LxiD1X+exGtvP3xrtwFKixQ4JOQKwC9SD8AGiNjK8tE8VC2eF+PmzEXJcuV01os5dORAO/1OyctzHoIDA9C3dy9MmzYdQqHQqItzoG1UdZr+ZBrQJtKhx/97yvzaujZ19MgmnNeRRtP/61esnDUT//3vMcIq9dIpazJOFpUSlqG+cHp+UF0vnIUH8BBUfzagSqG0F6WiU/kvPZqF70VYfTmPhnVrYvHmbRSpl+maqYN23zEz0rXQr1EPmIVp8vHN9wMuHD0A99KlEfjVFyOHjcC4ceONHmbJgbZRT8/0J9OANr39vT/56CUw0bb26dMbnfv1R6e+uhUTIK7kK6dP48TePXgnKAxJ7lLqSJO0aHq7RACL90dRlP8Obbt0Rq/hw9NCKpOY0xRBm7I310yeCO9nT1kSkLk2FqLasCFKVFRXeapUrx7WTZ6Ebm3acqBtrodqSnLHWdoE2t6f9bYCRCIRypYtDaGFBfZevMwoQnVJa46OFqNd9WqM9S2w0TyD47uT1aVcob501PV3X8WDxcfDyB16F6cfPGBZhMSnkVmbKYE2ndHpnTtx48RxVK5dG13GpJzYZQ5nQslT9DuhaUuGDuFA2xwOzhxkvHDhPIYOGQyBUIhPelramv35+flh9epVOHHiOAoUKYI+w0eySOWK1aqxlPjkAm6vnTsLz1kzWZaexKU0wir3hczeSEV96dKRkmd0aLwoP1gG3EalHEHYcvAQ00VmbxkK2ioeIsND8fn1a1ZNh6zQQiVLIVuunBjisShTxmdzoJ3Zf6PScX/xfdrvP3in6pKkfPmycMqREzZ2tnj97BnqNG7CyltRxuTI6TNhY/eT8Gnf1i04sGUz26lMJoObmxu+xlgiqM5EKKydU6cBolPVMXFG8OMJLHzPo6K7MxasXgNXN9NJd06dElIend6gTdmX3798xfk9u8HnCRAZ8gOvHj7AwDlzGXVr8YqVkC134sIaaamD9JybA+301HYmXys+aF+7fgPu7kUM2jFZywTaRUqXxvRVa/AtIhwBvr7YuWABgr5+YancjNFTpUKpChVYDPfXz58ZudTqPftQrExZHN65HXs2bcbXzrt0ji5JJCxlOlLRAh0aP+IDbF6shyNfgQvPXjCrL6u0tAJtDUcK8Z3QV9aYti0RHRHBzp6cTURM5pwjF+YePMA4rowdSWGq58eBtqmejBnKpXGPkB962fIV+OMPin82rJHFXLSoO8bPX4CqjZsgXBIDOREiqVSs2OzVQwcR9O0bXty5HbcARYKQH3zywsWQSqXYsmIZfoSJEFGiFURFmzB+bJ0b48IWqYsXaGn8kBdweL0N5cqVxuo/d7MyXVmpGQTaPwkGEeDjAz/vj4yNkP6ZiMO+vP+Aq0cOQy6Vw9beDkUrVoBQIGR0BgWLF0OT7lTcwvRT/NPiOeBAOy20mkXn1IA2bb9vv/5YuNAjVZrInz8fJixYiCZt2kIil+OHWIwYVuuQfl952DprOl7evct+eQctWMgsL7otpGiBf06dxMfnz2OrhasQnbsMftTVozQYpadTxRktTRD4AI6fD6NiudKYsWyZ2aaia9tnSj/XgHbimifq+EaqQiOKjMSl/Qfw3dcHPI2fn6cCkcYG+viqQVvAZyXd6rVrh9LVa0Apl7Pzs7G3R5HyFSAQqr+wsnrjQDurPwFG3P+dO7fZRWR4eDg6duyENXqksSclBiOfGjoEp+7eZ/Sj9AnsHR4KpUqFJ7f+wc65c9kwC4EQq65cSXYnJ7d54dqhQ5Bkd0dQ/VnaU88VSuBLuFbN8CN94fzKE0XdC2Hr8b/UAEU0qMRfrU96u9aV0r8DVWchPcencSUrVxNAw6efMcpXFb6KRLh37TqObliH4IBACC0tqGBYrNUMVgRBwLi8idZVCT4EkMukKFC8BEatXgMba2v2I1rL3PWWHifFgXZ6aDmLrPH9+3cMHzYEDx8+NApoUw3J3r174fT9h3EhT/SL/er9e6ydPhXfvL2R2y0/hixaBJf8KV/6Xdy7DzeOHUFQ9rIIrTIw+erpBNiBIq2c2ILgl3B6tw22FupQPqoOLrSwRJESpVC5Rg0UKlKUvWiIk5q+AIjhmkGWJFqUAAAgAElEQVRebCJPHPqxggOxNbfYTOq6M2pwNPTzXwOt8Vm140oixHsaNVKp+5Mfnl44MokUL548xtP79/HN14fR2bKfMWAFCNCpCk2+YkWR281NDbaxNrCKeMDZlnjMUi5SthzqdegIpUrJxrEdmvkLLaN/nTnQzugTyETrEzgRYRRdSBrD0g4ODsbo0SMhVijhsXGTGsZUKuxcuxrHd+9mldqHL1uBohXK66TF+5cu48SmDQi1dsP3eslwNoilal6RFGKyhd8fIZvPUTRs0wwVfv+drU1WKWGRGprVsEuRDXwLISTRYvz4+hXeL1/C+/V/iAoLBZFracCQBmp4m+Mv+ytkx4f2uOKK8SGYZc8l7AUqlBtbsUapVLDKNvQ1YGVnjxwurihSrizylyjBXnoUecH+qJQMeNWpovFfALGvEqWKvZBy58+PbLldYkXRNYhdp6PiOqWgAQ60ucfDqBoYPmwoKzNmDNAmwSZOnICjR4/g3OMnDJCIjKp7g3pM5px5XLHnwgX4RUQgRqEuAKsNOi7s2YuLe/5ETPai+F53KlT8eFEeNNg3JNbyTVot/MivyPl2FTr0748WvRMXKjaqMrnJOA0koQEOtLnHwqga0IB2h44dsWbNulR/Cl+6dIlZ79OWLkethg3RtGxZWFgKWYTGiTv34mQnCzxcIoFUIUe0XA6ZUpnkpRXh8onNm3D96DGEl+sGUQmq9B7rRtAS4icIfgaXb4fRY/gQ1GjZKkGWmlGVyE3GaYCztLlnIL00oAHtKlWqYNPmrXB1dU310hT6V7V2bRRwL4JD27wYydPQSVPQvmevJOeWKhSQ0yc+qCD6z4ro8X2plw8ewF97jiCg1aqf1vbn0KRlValAiTPZPx/GtA2eKFyylEmW/Uq1orkJzEIDnKVtFsdkPkKOHDkCZ06fYv7mXX/uRp06dVMtvFwuh3vhgupbMB4PFapVw4xlK+CULRvzJevSKJNSLFcgUBQFRgOiAo6uX4/rJ47Br+0GqMIAVVIhfipAIPKDy8f1mLPNC3kKZo0sR110yvXJGA1woJ0xes+0qx45chiTJk5g+9u9ey8aNGxolL3Wrv07fH0o6xFo1r4Dpi30gL2lJcQyOZSg+Gwwt4g+TaZQYN+G9dhz4gqCi/SHSpCQSpYnjwY/5CVc/E9g+LzZKFezlj7Tc305DaSJBjjQThO1Zt1JKSqieDF1+vqfu/eioZFAe//+fZg+bSojYNpx+ixc8rgil51tAkWTH5sscYVCgQgpJcboZoV3b9oU76NyQFI6XnFUhRSWz9bAQR6IHUcOIn+RIpAoVPghjoJCRbHGFCXyM4xOBWWq/fdZ96nhdq6PBjjQ1kdbXF+dNFAgfz6jg7a7eyEWrkagfebhYzY/gaaL7U/iqKSEU6e/q8FbkYwr5fHtO5g2bjwCS02ByiobeNJI2D+aA7dc2bBww3qUKKu90ow6Vjk2TI7Hg0yhhFgiRZRCCplcEQvw/FiwV8crs1yT+NHYse8YTbQd+6tu7x11DHUK/dUx1uoLV5KUvWSSiwZXqbMYNS2+C4rWYKnm6qBG9v/xhdS8xmgpFjYYqxL1v6tfdAoWt841QzXAgbahmuPGJasBDWgvX7EyVfwj8RfQzEmkQGcfP2EJKwQrjlZWsNKRnEkklUKqVDIOk1/bP5cvYdbEKYjM1wK2Px5i1JCuqN2kCfIXdudO2kgaoPMi/UdJpewM6L3AwJyScWLBP1quQLRcHUvOtaQ1wIE292QYXQMagC1atCiu37iZ6vnJii1YwC3WbOOj24CB6DtqFPu7jUAIByvdiaAipdKkfd88oGud2ggOC8f4WbPQptsfP1O4U70DbgJdNUBWuFzz1RI7SCSTIjQ6WtcpMn0/DrQz/RGn/wbbtm2Np0+eMND78tXPKAJoXgTFihdHdte8mLJ4CWxs1T5tJz2sbbLofkRHJwnIFGFCVWbIJ84109VAsFiMKJmUfWmR6yurOVs40DbdZ9NsJfPx8UGd2upIC98v34yyDw1of/T+DPJvL9y4CVVrqVPILfh8ZCPSIR1bkFjM+VR11JWpdxPLZIwBkl7GZI0reWp/e2ZuHGhn5tPNoL3FxVUD8PH9apSoCg1o03zbtnlh4+bN2H/latwOhTwesuvIY00XksHc53YGPR1ptyxd/tJFZ1CUCDEyOePhyozkVBxop90zlGVnjg/a5NMm33Zqmwa0yXK/ceM6Ro8aiSXbtqNw8RJsamJadraxhkDHCyzO2k7tiZj2eHLNfY2IgFypoCj+TNU40M5Ux2kam4kP2sWKFQeVHkttiw/aNFefPr3x4NEDHLxyAxaxF5HkJiH/ti6RB5SIQ5eSXMvcGhDLpJDIFQiJFqst70xQRoED7cz9zGbI7igcb/jwYbhw/hwcHBzw6r83qZIjfvSIxkceFhaKChXKo1PvPhgwbnzc/NmtrCEUaPdqUiIOEUzpmgafqg1wgzNcAxSV8jUyApQFa+4uEw60M/xxypwCHD9+DOPHjTUKaJOG4vu0Nb9048aNxcXLF7F481YUL1P2J3BbW0PICEZSbsmG/2kbyP3cbDVA7hJymygo4cpMQ8E50Dbbx8+0BT9x4jjGjR3DQPvZ85epqpQd39KmEmbE1U2NivdOmDAOAaFhmBevtJkQPGS31V5clxI8QmJiTFuRnHRG14BEIUdYdAwo/tscGwfa5nhqZiCzxtKmMlUzZ83GoEHxeD0MkF9jadvY2ODtuw9xM+zZsxszZ87A5ecvE8RX21lYgP5oaxQyJpJpL+CrbR7u5+alAQoRlMuV8IkMMzuDmwNt83rWzEba69eusVJhkZGR6NmrN5YsWZoq2StUKIfQkBBmsXt/8kkwV7duXfDq9Wus2bsPefLFZk4CyK6jmyQkOppl4XEt62kgUiLBd3GUWW2cA22zOi7zEVYsFqN/v764e/cOevXqjcWpBO21a9fAc+UKlrHo/UlN0appt27dQs+e3dF90GD0HjEy7t+Jk4SiSbQ1KlUWIZFo68b9PJNqgDhpAkSRZnNByYF2Jn0QTWFbffv2xo3r141iaV+4cB5DhwyGQCjAp0++ibb35csX1KnzO9bu248iJUvF/dyCx0c2G+3ZkhRJIuHS103hsckQGWLkcnyL/FnlKEOE0HFRDrR1VBTXTX8NaEC7XPny2LrVC25uhld90YB2Uu4RkiwsLAzkJrFydMTiTVsTRAbYW1jAVot/m7uU1P98M9uIsJgYBEeLTX5bHGib/BGZr4AU2XHs6FHw+XwcPnIM1atXN3gz2kCbJv748SPoRVGxZi0Mmzotbi1KcXe2ttaadBMjp+IJnJvE4EMy84EUs/8pPFRnDvOM2i4H2hml+SywbkhICCpWUBcQOHL0GGrUqGnwrjWgTS+AVavXxIX9/Tphp04d8fTZUwybPBUtOqlDA6kRZ/OvlW6SEiZKJgP94VrW1YB3aIhJE4pxoJ11n80033n8+OpDh4+iVi3DayxevnyJ+bSJNrVT585YvXptsvIPGjQAIpkcE+YvgK29fVw/AZ8HZ6uU+UlkSgXCJVIuUzLNnw7TXSBaJoMf+bd15LFJ751woJ3eGs9i62niq1u3boNNm7cYvPvAwAAMGzoUjx8/QqdOnbF6TfKg7efnh86dOsAxVy6s3PlngjUdLC1hIxSmKAeluIdySTcGn5W5DyQWyEBRpN6FotNr3xxop5ems+g6JUoUQ7RYfbmTWm7t4cOG4ty5s1pBm9batGkTli9fimnLVqB2o0Zx2ifrP6etrVY2QM6/nUUf2NhtE82rb0SYSSqBA22TPJbMI9Tz58/RulULo1Sx0Qe0SYOenitx4NBBzFu7HoWLF08A3FQ0wTKF2pKUakPRBKzCO9eypAa+R0Uh0gQvpjnQzpKPY/ptOiIiAmXLqOOmU1sQQQPa1apVw8ZNW+Di4pLiRsiqHjNmFB48foxVu/fCKVu2uP7krnSytEoRuCmagICby5ZMv+fFlFaiJFnv0GCT821zoG1KT0kmlIXS2MuULsl21qdvP3h4LDJ4l6NGjsDp06fY+D179qF+gwZa53r79i3at2+LKFEkTt1/BAvLn0WAqcpJThvtrhKuYIJWNWfaDiHRMQiNMa3YbQ60M+3jZhobo3T2li2bw/vjR+R2ccGjR/8zWLBr166y1Hh9QJv6XrlyhVncnfv2Q7dfiKt4UMHZ2obVmUyukcUeJpFwrhKDT858B0ZJpfA3sRR3DrTN93kyC8kJ8LZu3YLFizyYO+NhKkA7fgihrpa2RkmvXr1Eh04dMHH+QvzeqHEC3VkK+HC0TLnijZT4SaRcKKBZPHRGFJJcZMRLQpWOTKVxoG0qJ5GJ5di3dw9mzJiOXLly4da/d2Bra2vQbuOD9s5du9G4cULw1Tbpo0cP0aNHd6zYuSsBPwmNozBAe0vLFGk6qXQVxX9zLWtpIFAkMinubQ60s9bzlyG73bt3D2bOmA4LCwvMnjMX/fr1N1gOTdx3y1atsGWLl17zxMTEYNEiD5A8kxctQr1mLRKMtxEIYWdpkWK6O2VLEgc3R+Sql+rNujPRtwZGiUyGBZADbbN+nMxD+IcPH2LkiGEICAjA4CFDMXv2HIMFL1DADYjlvjYk7js0NBQtWjRDSFgYJnssQs36CS8zrYVCUAJOcpWoCKzJ4o7iLG6Dz9AcB34ICeZA2xwPjpPZcA106dIJ9+/dSzVox8REo3ixokwQQ0CbxpGb5fffa8H3iw82HDiEoqVKJ7S4hUJW9Salqu5UX5LoPDmL2/BnwpxGcqBtTqfFyWoUDXTt0gn37t1DkyZNGeGTk5OTQfPKZDIUcS+UKtCmwT4+Phg2bChevnyOyYuWoGHLVgnksRDwGXBb8gXJykmXU+Qu4Sq6G3SUZjXoY2iIycjLuUdM5igytyAaS5v82qdPn0WZsj+rp+uz8/ignVrmwODgYPz2WxXwqY7lipX4rXadBKKQpU2UrkTtmlwTywi4pZzFrc8hmmHfYLEYoTHRJuEi4UDbDB8gcxT5zp07+KNbFyb62XMXUL58eYO2IZfLUbxYEdD/Ozo64uWr1wbNoxlErpJ69erg0ydvrNl3ECXKlEk0n7Zak+QmoeLAnMWdqqMw6cEU8ukbHsaBtkmfEiecUTUQP1zv7NnzKF+hgkHzK5VKTJ06GYcPHTIKaJMQnz59wrhxY/D06VNM8liEBi1aJpCN7GxHKytQzcnkGnGUUK1BjqvEoGM1+UH0/JKLhGcCdK2cpW3yj0vmEVATrle7Th0cOHDI4I0dO3YUE8aPg4ODA17998bgeeIPJI4U8nE/ePgA89atR8XfqiUCbrK4BVoyJ4Oio40iDzeJaWmAA23TOg9OmnTSQMOG9fHh/ftUM/5pQNvOzg5Xrl6Hm5ubUXZAv5h79uzGypUrMHftehQtVQrCeLUlKVKE6k1SWKAgBYsrhEimOHZAo5yJqUwilkrhZyLp7JylbSpPRRaQ4/nzZ2jdSu16MDRcj8YeP3YM48ePZZ+qw4aPwPTpM4ymPXK/3LhxHYMGDUSz9u3RdcAg5HZ1TTC/kM+Hs1Xyae9Eoh8pkUKqVBhNLm6ijNUA+bNNxfXFgXbGPgtZanVKrqn2WxW2588+X1jBX0MaXRoOGTwIxODXu3cfLFq8xJBpUhzz9etX1KpVA9bWNjh+526iZBvyc+eysU1Q9T3+hGSVk+X+g3OXGP1sMmLCDyHkz86IlROvyYG2aZxDlpBCDdpVCc5QrVp1HDt+wuB99+ndC3//fQO9evfG4sVLDZ4npYHEKkiuki/fvmGZ13YUKFIk0UWUbWwiTnIXVGSdRUgkIOuba+arAS65xnzPjpM8FRogmtYxo0eBivS6u7vj75u3DJ6tT59e+PvGDbRq1Rqeq1YbTEKlTQCyuC9duojtu3aiZPnymLDAI5HVbcnnw8naOtnUd/Jv0x9iCeSa+WkgIiYGQdGmw6nNWdrm9wyZtcReW7fAw2MhCru742YqQLt37564+fffzPI9euw4s9zTsm3atBFLly5BQXd3bD6W9BeCtqLBlEFJwG0iX9lpqa5MNTfH8pepjpPbjL4a8PLaCo+FC5A9Rw5s374TVauSu0T/dvjwIUyeNJENJNCuXr2G/pPoOeLMmdOgdf1//ECbbn+gcZu2CWYgBwiVMBPwAYsU0t+phJmUiy7RU/sZ053cW1SZXaIwnUtlztLOmGchy676118nMG3qFERHR2P8hIkYP36CwbrQxH0fPXYC1aunraWtEVIkEmHKlEk4e+YsOvTsiT6jRsHK2ibBHij9nazulJJxCASoKgpXf9Lg40+XgXQfESSOSpe1dF2EA21dNcX1M4oGKKKiTeuWoCrt48ZPwIQJamtZ3xY/w9Jr23Y0b56QG1vf+fTtT9zcpUqVgFwuw59nLyB33rxJZMvxkNvGJtkIE1pToVAiWBKj7/Jc/3TQAH05fTQhSlbNljnQTofD55ZIqIHWrVow0O7W7Q8s9FgEa2trg1RUrFgRSGLUgJeauG+DFgfw5csXFl1y8eIFNG3fAa27dEW+QmoGQk0j/7WN0AL2lhbJLkOf4OTvJg4TrpmGBhRKFT6FmUba+q8a4UDbNJ6RLCWFBrQpDf38+Yso+AvQ6aoMikIZNHBAhoE2LUwWP5FhjR07GjYODnDJmw/z1qzFr0G9lgIB6A+FCCbXyGUiIfA2If+prmeR2fqFREczVj9TbBxom+KpZHKZ3rx5jaZN1PUdb/x9E0WKqIsa6NuIL6RsmVJsWGqSdfRdN7n+CxbMx6FDh+Dg7IxJCz1QKglSLAJ5F1tbqHi8ZKNIyDr/Tkk5KhVH+Wqsw9FjHqLaDRCJ9BiRvl050E5ffXOrxVqnBalsGIBLl6+iVCk18Orb4oP20qXL0KNnL32nMHp/iUSCiRMn4N9/b6H7kGHIW6AAKtesySzy+M2Cz4eVUJii5U3uEo3rxOiCchMm0gBR69LlcKA4yqTDMjnQ5h7eDNGAJvKjWrVqOHb8L4NkINCuVLE8qDBCnjx58ODhY4PmMfYguqR89+4dKJZcCaCAe2Gs2L4bSqU8gduEYJwSc6wFQthYJO82ofBAKiZMnM5cSxsNSBVyBEWJEaMw/XsFDrTT5hngZtWigbZtW+PpkyesV2ouEffu2YOZM6fDxcUFDx/9z+T0TqnwU6ZMRlBQEOo2aYIhk6ciR65ciSxvEjwnRZoAydamJJD/IVZn5nFJ8cY5avoCIpKwTyZS4ECXXXGgrYuWuD5G18CHD+/RsEH91IP23j2YOWM6cud2wb+37xgciWL0Df4yIfm7yfq+efNvDJ82HXnzF0DlGjUSkWaRp5usbiGPD2th0kUXmNtEoUC0QsHAm8uwNOz0iFqAXoIimXllqXKgbdh5c6NSqQFvb2/Ur6euybhs+Qp0797DoBn3xoK2UCjE9BkzMXjwEIPmSY9BISEh8PX1wejRoxASFo48+dxQsVpV9B8zLtHyBN4CPg8CFeBoawPeLz5xAmsCHVYxJ0aiRm5ToaFLD2Wmcg1KTSfqXHN0OXGgncrD54YbpgGqht68eVNEiUQoU6YsLly8ZNBEROY0fvw4iCIjMWToMMyaNdugedJ7UECAPyZPnoT37z/g27evWLhhM/IXLgTn7NlhlUTcOqXFO1hasAQeyriMb12T31waWxmeYxNM+iTJDSJXqqBQKvA1MtIs328yqRQRwaHYNHMqenbsjHHjxhu9/BlP9euVeXr/ZnDrmawGqDDvkiWLsc1rK8qUKYMLFy8bLGuXzh1x//59DBk6FLNmzTF4nowYGB4ejq1bt+D69ev48OED6jRrirxu+dFt4EDwk+AvIbC2Eggh5PPA5/PYJWb8RgWGyQKnmG/ObaLWTGh0NNOJSCphF8Nm1VRAgK8P/nfrJkICvuPhtauQx0gwefJkjBmjLgRizMaBtjG1mQnnWrN6FVat8kTJkiVx+sw5g/3RGtDu0LEjli5dDpvYCz1zUhlxjYeFhWL37j+xb98+FCxalN02rty5E/aOTkluhX5dqWYlTwVYCgWwE5IlDsbdTeFr9OlPIJ4VG+0/ICoSlNlobi4QZuvy+Ng+fx4CfD4jOkqMkMAA1GrVCo06dcaOhQvQp0tXjB2b2K2W2rPmQDu1Gszk4zdv3oRlS5ewSApybbi7F8bu3bvRuHFjtGzZmoE41X+0tLRMURO9e/VkF3zUzp2/gHLlypu15kgfFOc9f/58UNy3j89n9BoyDL83acJqVrq4ukLIQgSTtrIIyO0tLUHXmOT7JtIjTSWdzBp1QiBNl7MypQI/xGRZK4xuhabVQ6VSKuHn85kdVkhAADbOmA57J2c45cgGvtASA2bMRJ6CBeL2Qz7t7u3ac6CdVgfCzZu8Bry9P6L7H93g5+8PdwhRm0dREzz28D6BDJ+d7Rl4L1q0GAJB0pEUNPvt2/+yeTILaMfXGIUKHjp0kLEiEq2tjZ096jZtCls7W7iXLIW6jZuqwwdT+EpmLhWhkIFaZvN5R0okzBVEYE2x7CbfYsN9fN6+xZN//mFArJDLceXwIVjb2qJp9x6gPNiCJUqizG+/JbkdDrRN/pQzp4AUG7tzx3bm156usEZ5nhBO+HnBFgkVwlRKeKnE+OrmimHDh7N6kEm1+Ix/Z89dQPny5m1pJ7VH0pef3zfGCrh27WocO3YM1jY27OKSWpO2bdFjyDColCkDeGZ4mqiy6OewcJBfiKhtTfnqTMWc6Cr88A/A9gVzERUhYi6saLEYkeGhyO7iiomrVrEvITJMsru4aD0iDrS1qojrYGwNkPX455+7cGDdOqzjO8GFl1KBXxVGKyPgbSnEipWeaN++QyJx4oN2w4YN8efuvcYW2STnI9cJVdN59OghlEoVPn/+hIjICJQsVw59ho+Crb09s9qyZc+BPPnymTS4JadgsqDJL00tOFqMaJnc5CI/5DI5vn/7Ckm0GKrYT56I4BDsWbEEURGRrDi0S/4C4Av47KVau3Vr1G7dhoG5IReJHGib5K9j5hWKXCILFy7Ew6tX4cF3QGle8unb8bWwTBGFLyXdcenylSQf9OHDh+Hc2TNsSGoyLM1V8xSNc+XKZXz79o1tgWpb7tixnf134WLFGf+JMjYZh0IKG7RogYJE1BXfyW3cQAS9VclEUanBWS0Yj7k8yK2TEaEwv1rwSoUSz27/i48vXqiliw29jBZH4/nd24igiu18HirWroti5ctDpVKyb0f7bM6oXLceLLTczeiqMA60ddUU1y/VGoiKisL48WMZ//QxvjOckZKFnXC5CJ4KCxUi+LvkxIOHjxLJ4uvjg9q1a2VZ0P5VIcTHEhoaGvfPb9++waRJE+Hn58eyMMkKt7KyYj8nlzgBlL2DA1p364bOfftCLpVDoVJosJNFqKh4zCPxM4mH+dL1R3oNGNJclNMZGCX6GeFBPt40LMWmWVsFPniaN5aKBx5fBYFACH8fX5z5cyfeP3sKpVIBPu/nXQqNjRZHQRojhkrFh0IuQ5eRo1CtUWMWfqnRhY2dHSwN5IjX5ZeMA21dtMT1SbUGyBL09FyJDRvWYzzPFq35+hU+uKmUYr5KBAuBAFeuXEPRYsUSyOTv74/q1dT1Jv86eRpVqlRJtcyZfQKKSiH3SnBwSAI2E8JisViMwMAAfP/+/acaWCghOWl54BM/uKUlsx5d87kxS750+QpwyJ4Ncqksrl8c6qtfDwgWixEjJwuUHDeaJPzEMS1kxcb9a4JsUHpJxE/eV/fS/Gvcf1MSEp/PXkbhoaF4de8+3j35H8JCfjD56F3DY0aDCta2dsiRx5W9yHjkwohdj8mgUMDW0RHNevZEoRIl4uY0xK1hrOeJA21jaZKbJ1kN0C/Bxo0bsGHZUlTlWSI/BOjPT1hXMSX1kYX3r1KCh81r4Pz5a+jYqRPWrFmXYEhgYCBq1qwOuUyGEiVK4MrV69yJGKgBOi+y0t+9e4uPHz8yS5za/v378PzF8ziLsmCJEqjetBmIQoCBJYEcxYdLJQgPCUGwfwD8vL0R+uMHoiMpZposV7JqCSzjzHaGwTyeGsITcKnE/kV9PU0XjrFWPln9sZ8IFOpHIXOWVlawc3RAbrf8yFOgALLnyQM7e3sIhELmolDSiHhgrFmJrGnHbNlBe3HKmTPFKCUD1Wn0YRxoG12l3IS/aoAqmFMx3wNwwAZlFP7g2aA4j36Zfv6S0n+rbbjEjX5BW8qDMddjGmbNXoZOnTpjNVWHidcILNavW8vKf7m7u+Pvm7e4gzCCBihqZdbsWTh+4jiio2MYYI9cvgz5ixaDhYUFA8tfG50FY89TKNR/lEq19apBfwNcKilYBOof0cuArGuBgAEvWdnql0PmaxxoZ74zNakdnTt7FrOGD8divj2ceHx0VYRiJM8OT1RS3IUMNuCjKE8AKyJIggqL+Y6J5L+rkmKVkwBLFk3H0OFT0blzl0SgTYMoHXyRx0IUKlQIV69dh6VlYkAxKeWYqDD+Af54/d9rrFm3Bg8fPUbZatVgYWWJoQs9fgKvicqeFcTiQDsrnHIG7fHUqZMYPXIkOvGt0YNnjTUqMf5WSeAEPkbybZlUtuChPM8CNuAhuTiSZvIQ/F6vGpYvnY0atdokaWnTXF5bt8DDYyFsbW1ZOnv7DonDAzNIFSa/LFnCxLzotW0b3rx7g9fv3qF+h47IkScPajRpYtCFo8lv2kwF5EDbTA/O1MWmi8f+/friwc0bGMyzwwZEsU9kJ54AC3kOKKVjqN9KpRgXVTG4/e8p9sn7e+12WLDQA3369E2kAio4MG7cWISHhWHc+AmYMGGiqavJJOSjc/n991rw9/eDRC7DsuOnYOdgz+KKM/LCzSSUY4JCcKBtgodi7iIRCMydOwe7d+1ER1jhNmToy7NBY74VDihjYA+gnQ7RIyEqJRarIpGnaV3MmzcRK1ZsxMlTl/Hps2+yKtRqrKMAABqCSURBVGrVsgVevHiOsePGx4E2MekR4Ds6Jna9mLuuUyP/vXt38eDBA6xe7YnfatdFibJl0W3gIASIIlmtREPC+VIjDzdWNw1woK2bnrheemhg2bKl2LhBHd1hp+JjpcABxWIt6yOqaPypFOOcIHu8pPXEk1MswRhFBMp1aYVx4waxDjNnLkXDRi3Qt98AraBdunQZdiEpVygQHh7GYnAdHRzYTaen52rY2dnpsaPM05VeqOIoMXbu2sGSb+ydndF72AjUqF+fRVpomkgqRVhMDGLkFB6nfyx25tGY6e2EA23TOxOzlojcIu6FC6I+zwLtedYoBwvIYsO51OkMKoxSRKA1LNFakHTYHwUZUDJNJ0UwZs+egFYtG+P69duYPWd5ilY2Ka5z5054cP8ei8Dlq1SYwndAQ74lC1O5DgmWKkWgKOEGDRti167dicp9mbXytQhPURwKhQJFihRmURZbjp9Avvyx7HGx6YiaTD+aShOv/DGU4rgpOiMza8d89saBtvmclclLStl2w4YNwf8eP0aVKuXhkjsnk9nH9xvevfsIG4UKo/h2uKiUIEilwG6hc5J7eq2SYbIyEoNH9UfPnp0YeIwaPRN/dO+Dbt26J6uHT58+YffuXTi0YyfG821Rn0cxKQkbgdIaRRT8oETJHl2wZMmyLAHcQT+CMHPGDFy4cB5tu3dHmy7d4Fa4MCiRj6riOFr91FWEVMqyEon3QxOESX//wdLLAQmrUalMt9TyX+tgxk9++fVhUMdyazI3Tf5XxiABOdA2SG3coKQ0cPHCBQwZMhCeK+eiZMliyJ6NQFmFgMAg+Pp+g1Qqw/kL1/Hsxl1Q7MhOAcWRJIRVb5UcM5QiDJs1Bq1bNWaAPWXqQojFSmz12obcuXMnqXxKBiF61pevX2ENz5GxBqbUwqDEYqUIjvVqY8/e/Zn6QGfPnoXnz5/BIVduNGjZCtXr1mX7dSTObT4fFknEM0vkCoRLY5KMnKeiAlQJRkNcIpbKEC6VxIZhx89QjJ+n+FPFGi5HdTpNvH/n8VhVHjtLS1hSnDX9SM3Uy5rmSfn598TZkT8TcFSIlEpBbp7M9oXAgXam/nVNv80R33PpUsWxyGMa6tdXc4Ak12JiYtCiZS9IomOwnu+EErH8DjFQoqM8DLncXLFn91rY2dni5s17mDFzMebMmYf+AwYmOSVxmpQuVQJ8lRIb+U4oqmNkCnFfNFOGoFHz5ti6dVums7hFIhG2bfPC5i2b4OpWABsPH2H6I5DOlgw3BnNNSWMgIUs6EzQ64/dhISy+PLP45jnQzgQPpilsoXv3blDIo7Fs6Yw4IqKU5AoJCcWq1V64c/shJksEqAILeKqi8CKbHRYumIoqVcohMDCIZUCWKVsZy5evSHK6jx8/YNDAgfjy8SOm8u1Qj5dylZtfJ2mmCIFL3rzYstULFStWMgVVGkWGy5cvsYLHOV1dMcvTE6758jOwJjeIIBnTkwokUJUbqvCemRqluvtHRiBaTrSu5u+Y50A7Mz2dGbSXLZs3YcnSxdi/dwPc3QvqLIVUKsW7d94YNXgSCkOAd5Bh1+4NKF7cnX1q9+49Ck2atcLUqdOStILJuh84oB9u3f4XOVQ8HBZk05vBs7k8BLny5sKcuR5o1aq1zrKbcseLly5i4oTxKFqqDEbNmskA29naWl0MOBnQIn2HSmJi3R6mvDvDZCN3jl9kRKZ4IXGgbdgzwI2K1QAB77ixY3Dr35u4dOGA3nohn/WdO49YZMjhQ1uQK1cOiERRaNe+P6pVqw6vbdthZZWYEZDGnTp5ElPGjIIQKpYGf1igruKiW1Nhg0qMv5QxWLJ4Bg4fuYAzZ87pNtREe1E8+sqVy3Hw8CEs27oNxcuVhwWfBycr62Sta9pKjFyOCKkk2ZqTJrpdvcX6HiViXxLmbm1zoK330XMD4mvgn39uomeP7rj1z19aC/D+qjnifD53/hq2bNkLj4VTULVqBQQF/cCMGUvwzS8I+/YfRNmyZZNUOHFyjxw8CNP49jipioGfSoltAif8q5JArGHTBw+WPKA6LOASjxeZJqS4iGVKEexb10fNmlUwfcYSsy6e8O7dO4wYORzenz5iiscS1G7UmBX3tbWwSPGBpYs6sVyeZR5q/8hIiOVmUEsyhRPhQDvLPK5ps9GWLZqjerUyGDSop14WDAH2wYMnsX3HQezauRpFihRkkSJ//DEMgd+DcfDQkWQ5sa9fv45Ro4djhYiHojwLTFBG4LVKjvw8Ab4oFSwuvBAEqMWzZBZ4B7417H5xnLxUyTFbGYHT14/h3r1HmD3XE97en9NGSWk4K+mMdNmgQT18/vwZGw4dRolSpRlgW8dLlklKhLAYCaQsrC/rNIp8+RIeZtbZnhxoZ53n1eg7pUSNEsWLYt7ciWjY8Hed54+IEOHgoZM4duws/ty1Bvny5UF4eAQDbKlciWXLlqNt23ZJzvft61fUqlmNlSrLAz52KsW4DTmovshovi1a87QXV6BrtsPKaEh7tsSIEf1w8cJ1+AVGYfbsuTrvwVQ6Ur3NypUrwrVAAUxfsgylypZl/uuUq24CVMU8hsp4ZbFGl5IBIhGizdja5kA7iz20xtzuhvXrcP36Raxds0Bn8vg3b95j8+bdePX6PaNaJZdISHAops9cguhoOcaMHYd27donKSZZlTWq/4YI/wA05lnirDKGcZjcUskYF/dhQdLJOr9OdkklwT4XeyxePA0lSxRFn75jMHHidLRs1cqY6knzud6/f8+SmRxz5kL/MWNRunRpFh2irVH8MkVSZNUWGh3N6lCaq2+bA+2s+uSmct8EoBUrlEPRogWwft0inWYLCQlnESFBP4Jx7Ng2FHDLx1LXOncegiq/1cDkyZNRoEDy0ScLF8xn1KGUnk61BXcJnOHGE+C6SoLtSnHsRWTi0lW/CtdVEYYi1cpj3ZqF4ClVqFW3PQv5a968hU77MJVO1atXg1uRIpi4YCFyZs8OJ2trrdEzYRLJz3qMprKRdJaDIkm+RURAzkqnmV/jQNv8zswkJNaA9sgRfdG6dWMtMqnw7VsgunQbguJFC2PhwqlwdXWBn18Axo2bgwoVq2Dzlq0pJrccPXIY0yaMh4zHQz1YYDjfDjl5aicAhas1VgajM88Gw2N5upMSSAIVVihFeOeaA8ePbWNdGjXqgnoNGrLkGnNpRKFaq1ZNuObPj+nLVqBY8eLIbpNy+TZ6ldGlY1a2sOOf75fwcLP153OgbS6/qSYmp0QiwW9VK+P8uT0pgq1MJsdff53HgYMn8Ue3tmjVqjHs7e2wavVWXL1yCx07dcHcefNT3B29IJo0bgS/d++IlRt/8MiiVJNPufD4aMCzxH5lNJ6r5JgncEDOJDy6BFovVTJMkIfj0JFtKFgwH65fu4VZc1Zg8+ataNGypYlpOGlxPn/+hKFDh+Dl8+eYv2ET6jVsCCcdXCLEJ0KhfVxTa+BbZITZ6oMDbe4pNkgDFBNc+/eauHL5IKsBmKjFht217ziQuUPmzB6PZk3rM76KyVM8WGz26NFjMHrMWFZrMLlGgN2wQX28f/8Obm6uGDCgOxwc7HHx/FVcvX4b1gIhnMED2Zm5wccAvi2rP5mwqYvC/qEMR8fB3dG/XzfweXwsXLQa//zzAK/+e2OQDjJikIeHB7y8tsDrxEkUcS8CR+vEpFi/yhUuyTxp6cbSORFgfaYoEjNsHGib4aGZisgVypfF/r3rkD1HtgQiicXRuHDxBrZu3YPChQtg1Mj+KFu2JB4/fob163dCqRLi1OnTsLd30LqVP//ciXlz5mHnLk92afhro6TkRYvX4vWbD3j73htT+fZoxkt4GRcIJUYowlGvTRPMmDGGTXHo8CkcO34R//zzb1w1ca3CZHCHFy9eoGu3LpiyeAlq1amHbDbaI2UoJjlKKvuFmimDN2Iiy6spZ82vcaBtfmdmMhKXL1cG9epWw7Rpo5lM37//wLlzV/Hp8xf4fP6KZs3qo0ePDggM/IFz569i165DaNu2PWbOmo1cuXJp3ceHDx8wdMggNG36O3r36pxif6oUfvr0Jew/cAL1g8Soy7NASZ4QQVBgjkIEq7JFsHnTclhYCEERLAMHTWLFgdu3N486kufOncPYsaMwfMo0tOncFc7kEtFCo6FUqhAqjYFCqf1yVuthZMIOH0JCzJIBkAPtTPgwpteWRo4cgXdvX6KIeyE8ePgE5L+OjIzEls3LUbhwftjb2UEilaBd+wGIjBThwcPHrOSXdTIMc7/Kfe3qVQwe3B83rh9P0YUSf1xYaDiategBWx4PmwROmKmIRJCQj337NqBgQTfw+TyWIl+4cDHs3rNXJ3Kr9NJncutQtmP//n1B5FiXnr6As60tbLQkzhCeB0VHg+KSuZa0Bj6GBJtlkg0H2twTbbAGyN/cvFlTvH79H8tmrFevJrr/0Q5k4SnkcmzavBtfvwWia7c/MG7cODg7J3SjpLQw0bdWrFAG8+ZOQt26NfSSMSgoGKPHzMInH1/YWFlj+rQxaNasHntxLFy4GtExShw/cVKvOTOqM+l1166d2L5rJ9btP4jsTk6w15KaTmx94RJJpiV/MtZZBIvFCJMQZ7h5NQ60zeu8TE5af39/BipeW7ewC0lKWCCgKVOmDLr90R2urq5o1qy5XnLT+KlTJuPt2+dY5TkfNjr4buMvQODs4bEaN/+5h8WLZrBsTXUxBQ84OefGmjXr9OZJ0WsDRuy8du0arF6zGqNnzUaHzl20AjbZ1VTbMbPRqxpRpXFTUQWer5ERaTF1ms7JgXaaqjdrTE7p7GKxuhSVpgmFQthoiR1OTjsRERGoWaM6du30ZBEj+jSVUoWRI6fjf09fYOfO1awwg0qlRLc/hsPRMRv2HziIbNn0YQPUZ3Xj961e/Tc453bBUq9tcHV0TJZalVYmwv9ImQRiedZLTzdE88RD4hsRru1qwJCp03QMB9ppql5uckM0MGvWTJw59RcuXNCvDJi/fyDmz1+B128+ssvRFs0bgqraLPRYi+/fw1i5soIFCxkiUrqPoa+W+fPnsYrpV1+8gp1QCCsBMawk3+QKJULM8HM/3ZUbuyAH2ok1z1NpKnBm1Klw65qdBry9P2JA//4YPrQ76ujhy46MEGHs+Nl4+fItli+bhfr1a7LighMnLwCPZ4VFi5agsLu72eiDGPt69+6Bpp26oEufvqw8WErBIlRol+o0chePuh8xB9ocaOv+tHA9k9XAgwcP0LFje1y9fAiOjtrjuGkiopCoVbs1S6DZsd0TZcqUALlJevUeBaGFDU6dPgNbWyolbB6NbJ369euCZ2WNJZu3oIirFheRCgiOiQZdQHJNdw0wmtaIcN0HmEhPzj1iIgfBiaHWwM2bf+PwoV2YOmUUi6lOsamAr9/8MWnSfOR2yYke3TugRo3KLEZ8x86DiJHwsGfvPrMr2EuFJYYMGYKxc+eyosPOSVTuia8XdeV0qjzDNX00wIE2Z2nr87xwfZPRQOfOHVG3TmV07pQyTSpZo/4BgZg2bTHq16uFTp1aMsucaF///fcBSpUujxUrPWFvb292um7QoD6UfD7W7NkLV2fnFC8fxTIZRDLzrsSSUQfE3CPhYWZH0cpZ2hn1xHDrJqmB/G55MXnyiBRBW6lUYOLE+bh77xE6dWqDyZOGs5C+fftPMNB2L1IU16/fMEsNb9myGcuWLcWmw0dQqmRJ2ApT4GUBWDw2gQ/X9NcAZ2lzlrb+Tw03IpEGCuTPh0mThqFzp6Qro1+5chOP//eCuUDyF8iHGdNH4eHDp/D+9AVnz/2NadNmoEmTJmapWZlMigUL5uPM+fPYf+kKY++zTCFiJKsXM0jtIcsUChan/f/2zjamreuM4/97r9+JTQhdIIaWiNCGjiYllRDNpEklY1tY0mQL6fphUUu3aF1GS1i7Zlr6ko1WXUi77dtSiVVqtKVVitos3T4kndat69rmwzooUVatGypkZAU7xNjY2IB97/QcY4cXg3Exsa95joQSmXPPy+8c/uf4uec8j95e3vJOe6kjz8+nlQBd195y+wbs3Xt3vFzaRQ8Pe/DSiVeFm9fbN38ebW2HUFhYgPff/zvanv4lJEkRtxwrKuY6lUprA5exsEuXLmHXrp1ofuJJfLFu24I+sklorgSDy9ia3C+aPP196vdjPKIvl7Us2rk/N3XVQzo98qMftqKj4znhmU5TVRx+4ig++OACLBYT3vpTpzgZEgyFsG/fQ3C5PTja3o577vmmrvo5u7G0MHV1daGx8Rt44bXXsaXy1nn7Q1zcsy4z6brzGWo8MXePBUDfWPSUWLT1NForoK19n3yC7+z/Nuq33YnfnnwNodA4Ghq24ZaN5djz9R0gnyRnz/0ZnZ1/wObNd+BL9fW68dSXbPhuuqkU+753AE0Hvh/14jdP4oAGyUgu/vd69D/Cor348eWc14nAH998E83NB0DuVp3OIjQ27kBX1wWQn+7JyUkMDl3FY48dwp49e2BOchzuOjV5ydXQZZqvbv8KWo/8BLvv3gWDnDie+oSqwjfOl2iWDHyqAArwS75a9JRYtPU0WiuorfTVlcKZkSkgdhOQ/n/mzO9RWlqacyQaGrbD6/ej4/TvhC1bkRLff6SQYbTT5pQeAizaMznyNfb0zCsuJccJkLOt3bt3wblhA460H1vQk5+LbdlpnQ0s2izaaZ1QXNjKIHDq1CkcfvwwfnP2HFYXFMBmNCQ8n301GESYr6qndVKwaLNop3VCcWErg8DxF46j7ZmncfYf3VCmbNlk0y4wm6/d1tMAdygoLhFxSg8BIjk8FhAXlPSU2Katp9HituYcATKNHGxtgd9oQtOjj6LEkR/vo0mWxQUbCiwRDId1dzQt2wcrrKr436hPdwEjWLSzfWZx+3KawODgIGq31uLQr46jtKICN1htyJ8WQ9MgSeLFJN9+TP804Gvsc5nyi8j0zzMuMccIuFwu3FV3F5qff16INvmXLbbbkWc05VhPs687QrS93qRR7bOt5bzTzrYR4fasKALhcBhH24+iZ2AA33rkkXjfC602rF5k1PoVBSyNnb0SCOjSpS2LdhonARfFBD4LAfLs99Nn2nD8rb/McBP6OZsNjhy5PPRZuCznM/RCt9dzVXduWYkJi/ZyzgwumwksgoDb7Ubj3kYYC9ag5bljM56wGY0otFhhMiQJCLGIejjLNQKXfV7xcpde8uotsWjrbcS4vTlJ4PTp13Ho8I/xwJNPoaqmZkYfFSl6imS1xQodakzWjRcFjnAF/LoNz8ainXVTihu0Ugm8/de38cD+/Xi8owM3OJ1zMNCusNSeDzoKuGCU35UKcBH9DqsUrcYr3CPoNbFo63XkuN05R0BVVbzyyst46sgR3Nvaipurq7GmqGhOP1eZTLCbLDAp8ryOpXIOzhI7FI6oCIQn4Q74dWkSmd59Fu0lTgZ+nAmkm8Abb5zBww8/hNJbNqKsciPubTmYsAqrwSBEuyhvFdRpjrXS3R59lke2ak14RByfDGNCjSCks2AH83Fn0dbnjORW5ziB0dFRHDvWjhMnXoLRasHeA82482sU7FibE+hXliRhLSleZYdFMeS86YROfsiQoJGRg4z8dLVf/CNhJDQGT4iupWtiR0159WwKSTTNWbRz/I+fu6dvAiQ6TU33w+O5iq4Pu7FmrRM7mu5DXn6+EKTCoiI4y8ujwkVJ02AzmuCgIAoSYJIVGBXyzZ19pySoxRTya1JVQaahWBOjS5DQXfEZxXKkG6Hj4UhUqKdkWI8nP5LNxrgrYklCYMSLgd7/YHJiIkpEkjDm8+HkL36OH7QcRMs838CS1bHQ7/lG5FLo8bNMYBoBujn53nvvIhKJ4OLFi3jxxV8LwVtbeiPKq6qgaarQbRI/EvGtDdvhWF0As6LAoChxyV5lNCHPaBQCQAJIAinkXovuTJOl6f7N41tYKfopxa0kgaWjdHTbcPYed2bp0frJ/wflpb4spv5k7cvm38ecfUUXJQ2aJCESDuPj7m58+Ld3MBEMCQZiRCQZ3uFh9F7oweT4OIxGI+rq6lBf/2WYTCZUVd2GysrKtHeXRTvtSLlAJkD6qgnxjiWfz4sHH/wuzp8/Lz6iP3yZhHqaeSAqijJu+8JW7LjvftxYcTMkTYUqFJuEgkQ/KiSxAAxiT0srgTA/xPe/8ToSjUWumSJSmW9RUY4KcmwciHnfx//CuZMn0fPuO8K0Raad6Wc3VVrg4t4bJdTU1ODZZ3+G8vLyGQuZLMugn+VMLNrLSZfLZgJJCPT29qKz8xT6+vqncmpxKwqJvss1BApzNjIyInbJwkQBoKCoGJV3bEH5rVWwrykQgZRpJz89xeSJniPBUQwKzBYr8hwO8WPNy4PFZoNiMECSZVFGTMwSNnvGFj6FoZ39HK0xYksf/RYxo81TJvDYYkYMaHcbDPjh93oR8PkQGhuDqkYXRBLc6JJ2TYpFiTLZyoFRjwf/vtCD3p4eeFwuIcj0DH1hsdvtKCtbj5KSEiiKEhflWN35+fnYuXMnamtrsypkHot2CnOPszKB60mAfJ4MDQ2hv78PXjq3nMBPd+wjMs189NE/0d3dhf7+fgSDMb/e2tROHZBlBWarJaFo0+5Q7OIX8gWeLtFeCKIQ7egulxahSDiC8VAQoUAAfq8PY6M+BAMBaFOLV6zdMaFdv349Nm3ahOrqahQXr4NhgVuqs0X7eo7tUupi0V4KPX6WCeicQNyGK0mg0zCXL1/G4OCnYuc/MPBfkFtaWjiuXHHD7/eLxWBiYgK0oMTSlGUm4Y45tgbETPFk6zWbzbBYLHA4HFi7tghF9KLW6URZWZmILep0lmDdunXCLkzty3U7eqpTiEU7VWKcnwkwASaQQQIs2hmEz1UzASbABFIlwKKdKjHOzwSYABPIIAEW7QzC56qZABNgAqkSYNFOlRjnZwJMgAlkkACLdgbhc9VMgAkwgVQJsGinSozzMwEmwAQySIBFO4PwuWomwASYQKoEWLRTJcb5mQATYAIZJMCinUH4XDUTYAJMIFUCLNqpEuP8TIAJMIEMEvg/Kj7VTIbGzjoAAAAASUVORK5CYII=;fillOpacity=30;" parent="ie_nE9h8VSON7Q9d5ct0-1" vertex="1">
          <mxGeometry x="290" y="-70" width="290" height="413.14" as="geometry" />
        </mxCell>
      </root>
    </mxGraphModel>
  </diagram>
</mxfile>
